<?xml version="1.0" encoding="iso-8859-1"?>
<!-- Generator: Adobe Illustrator 22.0.1, SVG Export Plug-In . SVG Version: 6.00 Build 0)  -->
<svg version="1.1" id="Capa_1" xmlns="http://www.w3.org/2000/svg" xmlns:xlink="http://www.w3.org/1999/xlink" x="0px" y="0px"
	 viewBox="0 0 20 20" style="enable-background:new 0 0 20 20;" xml:space="preserve">
<g id="Close">
	<path style="fill:#DD7B8E;" d="M12.377,10l7.131-7.131c0.656-0.656,0.656-1.721,0-2.377c-0.656-0.656-1.721-0.656-2.377,0L10,7.623
		L2.87,0.492c-0.656-0.656-1.721-0.656-2.377,0c-0.656,0.656-0.656,1.721,0,2.377l7.131,7.131L0.493,17.13
		c-0.656,0.656-0.656,1.721,0,2.377c0.656,0.656,1.721,0.656,2.377,0L10,12.376l7.131,7.131c0.656,0.656,1.721,0.656,2.377,0
		c0.656-0.656,0.656-1.721,0-2.377L12.377,10z"/>
</g>
</svg>
