<?xml version="1.0" encoding="iso-8859-1"?>
<!-- Generator: Adobe Illustrator 22.0.1, SVG Export Plug-In . SVG Version: 6.00 Build 0)  -->
<svg version="1.1" id="&#x421;&#x43B;&#x43E;&#x439;_1"
	 xmlns="http://www.w3.org/2000/svg" xmlns:xlink="http://www.w3.org/1999/xlink" x="0px" y="0px" viewBox="0 0 79 60"
	 style="enable-background:new 0 0 79 60;" xml:space="preserve">
<polygon style="fill:#D97A8B;" points="57.551,30.89 31.091,44.121 31.091,17.66 57.551,30.89 "/>
<g>
	<g>
		<path style="fill:#D97A8B;" d="M78.233,43.003c-0.306,1.556-0.644,3.099-1.259,4.574c-1.449,3.473-3.759,6.217-6.919,8.247
			c-2.294,1.473-4.815,2.361-7.515,2.64c-3.147,0.325-6.206-0.115-9.104-1.442c-0.388-0.177-0.713-0.185-1.11-0.011
			c-3.188,1.395-6.478,0.482-8.525-2.371c-0.294-0.41-0.532-0.321-0.868-0.114c-2.045,1.264-4.274,2.031-6.645,2.381
			c-3.547,0.523-6.925-0.036-10.156-1.593c-3.111-1.5-5.577-3.705-7.39-6.636c-0.286-0.462-0.685-0.56-1.148-0.569
			c-1.14-0.023-2.256-0.22-3.357-0.485c-3.457-0.834-6.389-2.564-8.81-5.177c-2.529-2.729-4.029-5.938-4.577-9.607
			c-0.012-0.08-0.054-0.154-0.083-0.232c0-1.444,0-2.887,0-4.331c0.288-1.39,0.558-2.783,1.082-4.111
			c1.766-4.479,4.801-7.775,9.173-9.809c3.705-1.724,7.564-2.014,11.524-1.133c0.513,0.114,0.753,0.07,0.968-0.468
			c1.706-4.274,4.604-7.499,8.751-9.502c4.633-2.238,9.389-2.404,14.199-0.54c2.846,1.103,5.237,2.841,7.161,5.208
			c0.333,0.409,0.693,0.546,1.21,0.572c4.25,0.218,8.037,1.608,11.259,4.459c2.438,2.157,4.159,4.777,5.161,7.856
			c0.615,1.889,0.946,3.842,0.814,5.843c-0.037,0.553,0.178,0.916,0.573,1.279c2.439,2.241,4.126,4.954,4.988,8.161
			c0.229,0.853,0.403,1.72,0.602,2.581C78.233,40.115,78.233,41.559,78.233,43.003z M69.969,26.559
			c-0.044-0.809-0.034-1.494-0.125-2.165c-0.384-2.83-1.388-5.406-3.154-7.678c-1.763-2.27-3.98-3.92-6.639-4.982
			c-1.98-0.791-4.045-1.127-6.173-1.022c-0.581,0.029-0.978-0.166-1.293-0.643c-0.628-0.953-1.423-1.777-2.28-2.509
			c-3.807-3.251-8.189-4.598-13.151-3.661c-4.753,0.898-8.31,3.529-10.729,7.714c-0.687,1.188-1.133,2.465-1.502,3.777
			c-0.213,0.757-0.262,0.772-0.974,0.517c-2-0.718-4.049-1.066-6.184-0.99c-3.604,0.129-6.762,1.404-9.476,3.721
			c-2.508,2.142-4.195,4.829-4.97,8.07c-1.095,4.578-0.338,8.852,2.378,12.65c3.247,4.541,7.777,6.728,13.383,6.597
			c0.43-0.01,0.67,0.13,0.885,0.5c0.557,0.961,1.112,1.922,1.84,2.778c3.508,4.12,7.975,5.98,13.345,5.615
			c3.15-0.215,5.955-1.412,8.415-3.384c0.99-0.794,1.004-0.833,1.315,0.387c0.859,3.366,4.589,4.644,7.236,2.787
			c0.373-0.262,0.709-0.306,1.139-0.086c2.635,1.349,5.415,2.023,8.398,1.815c3.316-0.232,6.285-1.377,8.81-3.502
			c3.643-3.066,5.602-7.003,5.661-11.811c0.055-4.512-1.579-8.354-4.85-11.422C70.276,28.693,69.535,27.856,69.969,26.559z"/>
		<path style="fill:#D97A8B;" d="M60.581,58.832c-2.541,0-4.982-0.527-7.255-1.568c-0.331-0.152-0.562-0.154-0.892-0.01
			c-1.009,0.441-2.039,0.665-3.06,0.665c-2.288,0.001-4.344-1.11-5.79-3.126c-0.058-0.081-0.141-0.177-0.21-0.177
			c-0.072,0-0.193,0.069-0.301,0.135c-2.004,1.24-4.275,2.054-6.746,2.418c-3.532,0.52-7.003-0.022-10.311-1.617
			c-3.153-1.519-5.677-3.785-7.501-6.735c-0.22-0.358-0.517-0.434-0.926-0.443c-1.02-0.02-2.105-0.176-3.415-0.493
			c-3.483-0.841-6.493-2.609-8.944-5.255c-2.523-2.723-4.087-6.003-4.645-9.749c-0.003-0.019-0.019-0.057-0.034-0.091L0.5,32.608
			v-4.331l0.059-0.314C0.825,26.67,1.1,25.334,1.6,24.067c1.802-4.57,4.934-7.919,9.309-9.954c3.619-1.685,7.552-2.075,11.695-1.152
			c0.137,0.031,0.237,0.045,0.312,0.045c0.108,0,0.209,0,0.349-0.351c1.756-4.399,4.745-7.645,8.883-9.645
			c4.661-2.252,9.538-2.436,14.412-0.547c2.881,1.116,5.327,2.895,7.271,5.289c0.261,0.321,0.537,0.449,1.017,0.473
			c4.445,0.228,8.287,1.751,11.423,4.526c2.461,2.178,4.224,4.861,5.238,7.972c0.682,2.096,0.953,4.04,0.827,5.945
			c-0.028,0.423,0.104,0.711,0.487,1.064c2.499,2.297,4.204,5.085,5.065,8.289c0.158,0.585,0.288,1.176,0.42,1.767
			c0.06,0.274,0.121,0.549,0.184,0.822l0.007,4.392c-0.301,1.557-0.643,3.153-1.279,4.676c-1.46,3.498-3.823,6.314-7.021,8.37
			c-2.328,1.495-4.896,2.397-7.632,2.68C61.901,58.798,61.232,58.832,60.581,58.832z M52.87,56.616c0.218,0,0.44,0.053,0.678,0.162
			c2.769,1.268,5.792,1.747,8.965,1.418c2.652-0.274,5.141-1.148,7.398-2.599c3.106-1.995,5.399-4.729,6.817-8.125
			c0.617-1.478,0.953-3.044,1.243-4.522l-0.004-4.28c-0.057-0.215-0.118-0.49-0.179-0.767c-0.129-0.584-0.258-1.167-0.414-1.744
			c-0.835-3.103-2.487-5.807-4.91-8.034c-0.354-0.325-0.708-0.756-0.66-1.494c0.122-1.835-0.141-3.713-0.802-5.743
			c-0.983-3.02-2.694-5.623-5.084-7.738c-3.084-2.73-6.714-4.166-11.094-4.392c-0.637-0.032-1.044-0.226-1.405-0.67
			c-1.885-2.32-4.257-4.046-7.05-5.127c-4.738-1.837-9.459-1.657-13.986,0.531c-4.014,1.94-6.914,5.089-8.619,9.361
			c-0.136,0.34-0.343,0.688-0.847,0.688c-0.117,0-0.249-0.018-0.429-0.057c-4.023-0.896-7.84-0.521-11.353,1.115
			c-4.246,1.975-7.287,5.227-9.038,9.664c-0.482,1.225-0.753,2.538-1.015,3.808l-0.054,0.261l0.005,4.223
			c0.041,0.099,0.068,0.167,0.079,0.245c0.543,3.638,2.06,6.822,4.509,9.464c2.378,2.568,5.297,4.284,8.676,5.1
			c1.271,0.306,2.32,0.458,3.3,0.478c0.471,0.009,1.003,0.099,1.371,0.696c1.77,2.862,4.219,5.061,7.279,6.535
			c3.212,1.548,6.575,2.079,10.001,1.569c2.399-0.353,4.599-1.141,6.542-2.343c0.169-0.104,0.367-0.215,0.582-0.215
			c0.24,0,0.452,0.131,0.644,0.4c1.343,1.872,3.244,2.903,5.356,2.903c0.947-0.001,1.904-0.209,2.845-0.62
			C52.447,56.664,52.661,56.616,52.87,56.616z M60.592,56.67C60.591,56.67,60.591,56.67,60.592,56.67
			c-2.511,0-5.021-0.633-7.458-1.881c-0.329-0.169-0.55-0.155-0.864,0.066c-0.842,0.591-1.822,0.903-2.832,0.903
			c-2.294,0-4.23-1.544-4.817-3.842c-0.072-0.279-0.158-0.618-0.224-0.74c-0.117,0.055-0.367,0.256-0.61,0.451l-0.055,0.044
			c-2.585,2.073-5.466,3.231-8.564,3.442c-5.456,0.371-10.028-1.551-13.567-5.709c-0.732-0.859-1.295-1.829-1.839-2.767
			c-0.19-0.328-0.338-0.417-0.639-0.417c-0.199,0.004-0.358,0.006-0.517,0.006c-5.524,0-9.94-2.259-13.127-6.714
			c-2.734-3.823-3.548-8.152-2.42-12.867c0.776-3.246,2.478-6.008,5.057-8.211c2.791-2.382,6.034-3.656,9.64-3.784
			c2.114-0.088,4.216,0.261,6.284,1.005c0.157,0.056,0.371,0.133,0.459,0.133c0.046-0.04,0.128-0.331,0.166-0.47
			c0.453-1.61,0.925-2.794,1.529-3.838c2.489-4.308,6.161-6.947,10.911-7.843c4.887-0.92,9.406,0.334,13.374,3.72
			c0.982,0.838,1.744,1.677,2.329,2.565c0.246,0.373,0.525,0.526,0.962,0.526l0.096-0.002c2.168-0.109,4.288,0.243,6.285,1.041
			c2.71,1.083,4.982,2.788,6.751,5.067c1.728,2.225,2.807,4.85,3.207,7.806c0.063,0.466,0.079,0.938,0.096,1.439
			c0.008,0.239,0.016,0.487,0.031,0.749l0.003,0.051l-0.016,0.049c-0.385,1.153,0.269,1.884,1.236,2.791
			c3.331,3.124,4.991,7.033,4.935,11.62c-0.059,4.806-1.996,8.847-5.757,12.013c-2.526,2.125-5.542,3.325-8.964,3.565
			C61.309,56.657,60.949,56.67,60.592,56.67z M52.738,54.141c0.206,0,0.415,0.056,0.64,0.171c2.395,1.227,4.754,1.822,7.213,1.822
			c0,0,0,0,0.001,0c0.345,0,0.692-0.012,1.043-0.037c3.306-0.231,6.219-1.389,8.656-3.439c3.637-3.061,5.51-6.967,5.567-11.61
			c0.054-4.431-1.55-8.207-4.766-11.224c-1.028-0.964-1.843-1.88-1.393-3.301c-0.013-0.246-0.021-0.482-0.028-0.709
			c-0.016-0.486-0.032-0.945-0.092-1.385c-0.387-2.86-1.43-5.401-3.1-7.549c-1.71-2.203-3.907-3.851-6.527-4.898
			c-1.925-0.77-3.972-1.109-6.06-1.003l-0.122,0.003c-0.616,0-1.063-0.243-1.408-0.767c-0.558-0.845-1.287-1.647-2.231-2.452
			c-3.842-3.281-8.203-4.496-12.927-3.602c-4.59,0.867-8.138,3.418-10.546,7.585c-0.58,1.004-1.036,2.15-1.477,3.716
			c-0.13,0.462-0.242,0.861-0.682,0.861c-0.169,0-0.363-0.065-0.64-0.165c-2.03-0.729-4.022-1.053-6.084-0.973
			c-3.483,0.124-6.616,1.354-9.312,3.657c-2.492,2.127-4.135,4.794-4.884,7.928C2.49,31.327,3.276,35.51,5.916,39.202
			c3.168,4.431,7.563,6.608,13.159,6.485c0.001,0,0.001,0,0.002,0c0.543,0,0.863,0.19,1.12,0.632
			c0.561,0.968,1.112,1.916,1.813,2.739c3.428,4.025,7.842,5.887,13.124,5.521c2.985-0.203,5.766-1.321,8.265-3.326l0.054-0.043
			c0.483-0.388,0.726-0.582,0.979-0.582c0.413,0,0.518,0.411,0.708,1.156c0.526,2.057,2.253,3.439,4.299,3.439
			c0.9,0,1.773-0.278,2.525-0.806C52.227,54.231,52.481,54.141,52.738,54.141z"/>
	</g>
</g>
</svg>
