<?xml version="1.0" encoding="utf-8"?>
<!-- Generator: Adobe Illustrator 22.0.1, SVG Export Plug-In . SVG Version: 6.00 Build 0)  -->
<svg version="1.1" id="Isolation_Mode" xmlns="http://www.w3.org/2000/svg" xmlns:xlink="http://www.w3.org/1999/xlink" x="0px"
	 y="0px" viewBox="0 0 105 57.6" style="enable-background:new 0 0 105 57.6;" xml:space="preserve">
<style type="text/css">
	.st0{fill:#FFFCF4;stroke:#FFFFFF;stroke-width:2;stroke-miterlimit:10;}
</style>
<g>
	<path class="st0" d="M93.4,32.7c-5.8-2.4-12.3-2.8-18.5-3.2c-0.6,0-0.6,0.9,0,1c4.8,0.3,9.6,0.6,14.3,1.8
		c4.2,1.1,11.1,3.7,12.1,8.7c1.4,6.6-8.4,8-12.7,8.2c-5.3,0.2-10.7-0.1-16-0.1c-10.4-0.1-20.9,0-31.3,0.9c-4.9,0.4-9.8,1-14.7,1.7
		c-5,0.8-9.8,2.1-14.7,3c-3.2,0.6-7.1,0.6-8.2-3.2c-0.8-2.6,0.2-5.7,1.5-8c2.5-4.4,7-7.3,11.5-9.3c0.4-0.2,0.2-0.8-0.1-0.9
		c-2.8-1.1-7.8-3.1-9.3-6c-1.9-3.8,4.4-8,7-9.2c3.4-1.6,7.2-2,10.9-2.1c2.4-0.1,10.1-1,10.4,2.8c0,0.4,0.6,0.4,0.6,0
		c-0.1-3.7-5.1-3.6-7.7-3.7c-5.2-0.1-10.6,0.1-15.4,2.5c-2.9,1.5-7.6,5-7.2,8.8c0.4,3.6,5.8,6.1,9.2,7.4c-4,1.9-7.8,4.5-10.3,8.3
		c-2.1,3.1-3.6,8-1.4,11.4c2.3,3.5,7.1,2.6,10.5,1.8c6.9-1.6,13.9-2.9,21-3.7C47.9,50.2,61,50,74,50.1c6.4,0.1,13.1,0.8,19.4-0.4
		c3.5-0.7,8-2.6,8.8-6.6C103.2,37.8,97.3,34.4,93.4,32.7z"/>
	<path class="st0" d="M80.2,17.1c-0.4-3-2.9-5.7-5.1-7.5c-4.9-4-11.2-5.8-17.3-7.1c-5.9-1.2-13.6-2.4-18.6,2
		C36,7.3,35.4,13.2,39.9,15c0.2,0.1,0.3-0.2,0.1-0.3c-2.3-1.2-3.2-4-2.4-6.5c0.8-2.6,3.3-4.2,5.8-5c5-1.7,10.5-0.6,15.5,0.5
		c4.1,0.9,8.2,2.1,11.9,4.2c1.9,1.1,3.7,2.4,5.3,4c2,2.1,5.5,7.5,1,8.9c-0.6,0.2-0.3,1,0.3,0.9C79.4,21.3,80.5,19.2,80.2,17.1z"/>
</g>
</svg>
