<?xml version="1.0" encoding="iso-8859-1"?>
<!-- Generator: Adobe Illustrator 22.0.1, SVG Export Plug-In . SVG Version: 6.00 Build 0)  -->
<svg version="1.1" id="&#x421;&#x43B;&#x43E;&#x439;_1"
	 xmlns="http://www.w3.org/2000/svg" xmlns:xlink="http://www.w3.org/1999/xlink" x="0px" y="0px" viewBox="0 0 63.8 63.845"
	 style="enable-background:new 0 0 63.8 63.845;" xml:space="preserve">
<path style="fill:#DD7D90;" d="M63.794,32.027c0.127,17.292-14.125,31.368-31.073,31.807c-18.098,0.469-32.975-14.73-32.718-32.28
	c0.25-17.055,14.408-31.295,31.408-31.55C49.401-0.267,64.132,14.757,63.794,32.027 M31.875,60.667 M31.875,60.667"/>
<path style="fill:#FBEEE5;" d="M24.64,31.259c0.209-1.422,0.141-2.548,0.07-3.671c-0.041-0.639-0.504-0.88-1.024-1.144
	c-1.39-0.707-1.52-2.07-0.321-3.072c0.716-0.599,1.568-0.922,2.479-1.085c2.046-0.366,4.098-0.257,6.131,0.051
	c1.687,0.256,2.48,1.238,2.816,2.9c0.317,1.562-0.049,3.09-0.023,4.633c0.007,0.435-0.188,1.042,0.324,1.231
	c0.571,0.211,0.867-0.383,1.167-0.756c1.396-1.74,2.153-3.808,2.851-5.88c0.51-1.513,1.493-2.269,3.015-2.313
	c2.233-0.064,4.474-0.14,6.702-0.035c2.115,0.1,3.021,1.565,2.422,3.607c-0.731,2.497-2.142,4.618-3.7,6.656
	c-0.442,0.58-0.855,1.191-1.357,1.715c-0.976,1.018-0.887,1.774,0.24,2.688c1.518,1.23,2.938,2.606,4.155,4.149
	c1.387,1.755,0.956,4.188-1.045,4.563c-3.697,0.692-7.52,1.197-11.006-0.969c-0.883-0.55-1.655-1.284-2.455-1.963
	c-0.771-0.655-1.108-0.32-1.283,0.503c-0.536,2.537-0.957,2.8-3.531,2.872c-6.518,0.187-11.036-3.175-14.618-8.167
	c-2.641-3.682-4.745-7.678-6.494-11.854c-1-2.388-0.152-3.72,2.434-3.813c1.686-0.061,3.376-0.054,5.063-0.014
	c1.75,0.042,2.785,0.847,3.339,2.5C21.773,26.93,22.676,29.201,24.64,31.259 M31.829,29.234c-0.004,0-0.008,0-0.011,0
	c0-0.274,0.004-0.548-0.001-0.821c-0.052-3.115,0.762-3.059-3.245-3.056c-0.897,0-1.117,0.291-0.855,1.146
	c0.545,1.78,0.537,3.592,0.143,5.408c-0.272,1.254-0.681,2.42-2.109,2.749c-1.435,0.331-2.587-0.219-3.525-1.304
	c-1.354-1.567-2.397-3.319-3.206-5.223c-1.217-2.864-1.228-2.818-4.318-2.788c-1.157,0.011-1.205,0.409-0.775,1.295
	c1.895,3.902,3.86,7.765,6.645,11.128c2.625,3.169,5.861,5.16,10.146,5.031c0.701-0.021,1.024-0.196,1.167-0.968
	c0.549-3.002,2.602-3.888,5.208-2.308c0.428,0.26,0.882,0.516,1.223,0.87c1.913,1.983,4.225,2.754,6.941,2.412
	c0.404-0.051,0.824,0.029,1.23-0.016c0.422-0.048,1.049,0.265,1.214-0.27c0.138-0.442-0.411-0.77-0.733-1.075
	c-1.261-1.189-2.591-2.308-3.799-3.547c-1.433-1.471-1.513-2.729-0.379-4.427c0.557-0.832,1.199-1.607,1.818-2.396
	c1.07-1.364,2.182-2.698,2.906-4.295c0.586-1.293,0.524-1.413-0.846-1.431c-1.14-0.015-2.28,0.035-3.421,0.012
	c-0.786-0.016-1.223,0.26-1.507,1.053c-0.459,1.284-0.985,2.565-1.667,3.741c-0.935,1.612-1.932,3.238-3.608,4.216
	c-2.241,1.308-4.398,0.181-4.623-2.405C31.764,31.063,31.829,30.146,31.829,29.234"/>
</svg>
