<?xml version="1.0" encoding="iso-8859-1"?>
<!-- Generator: Adobe Illustrator 22.0.1, SVG Export Plug-In . SVG Version: 6.00 Build 0)  -->
<svg version="1.1" id="&#x421;&#x43B;&#x43E;&#x439;_1"
	 xmlns="http://www.w3.org/2000/svg" xmlns:xlink="http://www.w3.org/1999/xlink" x="0px" y="0px" viewBox="0 0 63.8 63.845"
	 style="enable-background:new 0 0 63.8 63.845;" xml:space="preserve">
<path style="fill:#DD7D90;" d="M63.794,32.027c0.127,17.292-14.125,31.368-31.073,31.807c-18.098,0.469-32.975-14.73-32.718-32.28
	c0.25-17.055,14.408-31.295,31.408-31.55C49.401-0.267,64.132,14.757,63.794,32.027 M31.875,60.667"/>
<path style="fill:#FBEEE5;" d="M34.841,15.857c1.389,0.004,2.402,0.822,2.8,2.186c0.624,2.144,1.233,4.291,1.842,6.439
	c1.688,5.955,3.329,11.924,5.093,17.857c0.411,1.384-0.305,3.257-2.081,3.753c-4.348,1.216-8.688,2.458-13.039,3.657
	c-1.25,0.346-2.902-0.447-3.389-2.262c-0.34-1.265-0.706-2.523-1.065-3.785c-1.654-5.813-3.313-11.623-4.962-17.438
	c-0.318-1.119-0.664-2.237-0.879-3.378c-0.296-1.576,0.449-2.784,1.998-3.243c3.235-0.958,6.486-1.862,9.731-2.787
	c1.004-0.286,2.009-0.568,3.011-0.857C34.254,15.898,34.611,15.845,34.841,15.857 M20.71,22.371
	c0.043,0.169,0.087,0.358,0.139,0.544c0.54,1.916,1.08,3.832,1.621,5.748c1.313,4.648,2.633,9.293,3.931,13.946
	c0.147,0.527,0.354,0.613,0.877,0.463c4.596-1.322,9.199-2.621,13.808-3.902c0.572-0.158,0.734-0.379,0.561-0.971
	c-0.711-2.422-1.377-4.856-2.063-7.287c-1.149-4.064-2.293-8.13-3.456-12.19c-0.314-1.094-0.812-1.375-1.913-1.081
	c-1.807,0.48-3.601,1.001-5.4,1.507c-2.337,0.658-4.673,1.32-7.009,1.979C21.183,21.301,20.808,21.694,20.71,22.371 M28.963,48.153
	c0.282-0.063,0.568-0.115,0.846-0.194c2.616-0.739,5.23-1.484,7.844-2.229c1.447-0.412,2.9-0.808,4.337-1.252
	c0.889-0.274,1.142-0.753,0.946-1.668c-0.111-0.522-0.32-1.023-0.41-1.547c-0.101-0.584-0.344-0.687-0.902-0.523
	c-2.657,0.773-5.327,1.501-7.99,2.252c-1.985,0.561-3.965,1.139-5.953,1.69c-0.435,0.12-0.618,0.295-0.454,0.77
	c0.214,0.618,0.361,1.259,0.557,1.884C27.96,47.9,28.376,48.137,28.963,48.153"/>
<path style="fill:#FBEEE5;" d="M28.859,50.079c-1.135,0-2.569-0.79-3.035-2.525c-0.269-0.999-0.553-1.993-0.837-2.987l-1.834-6.439
	c-1.121-3.932-2.24-7.862-3.355-11.793l-0.168-0.587c-0.264-0.915-0.537-1.861-0.716-2.814c-0.322-1.712,0.49-3.031,2.172-3.529
	c2.319-0.686,4.684-1.356,6.972-2.003l4.025-1.143c0.583-0.165,1.166-0.33,1.747-0.498c0.34-0.098,0.683-0.154,0.942-0.154
	l0.082,0.003c1.461,0.004,2.596,0.888,3.026,2.365c0.61,2.098,1.206,4.199,1.804,6.301l0.038,0.14
	c0.474,1.668,0.942,3.337,1.412,5.006c1.185,4.218,2.411,8.58,3.681,12.848c0.238,0.802,0.125,1.745-0.305,2.521
	c-0.421,0.762-1.111,1.31-1.947,1.544c-1.698,0.475-3.395,0.952-5.091,1.432c-2.649,0.747-5.299,1.494-7.952,2.226
	C29.31,50.05,29.087,50.079,28.859,50.079 M34.772,15.855v0.25c-0.211,0-0.512,0.05-0.804,0.135
	c-0.583,0.167-1.166,0.333-1.75,0.498l-4.024,1.143c-2.286,0.647-4.65,1.316-6.966,2.002c-1.432,0.424-2.096,1.501-1.823,2.956
	c0.176,0.93,0.445,1.865,0.705,2.769l0.169,0.588c1.115,3.932,2.234,7.862,3.354,11.793l1.834,6.439
	c0.286,0.997,0.571,1.994,0.839,2.995c0.398,1.48,1.602,2.155,2.553,2.155c0.183,0,0.361-0.024,0.529-0.069
	c2.652-0.732,5.301-1.479,7.949-2.227c1.696-0.478,3.395-0.957,5.091-1.431c0.904-0.253,1.395-0.849,1.646-1.304
	c0.366-0.662,0.464-1.461,0.263-2.138c-1.27-4.273-2.497-8.636-3.683-12.854c-0.469-1.669-0.938-3.338-1.411-5.006l-0.04-0.14
	c-0.595-2.1-1.192-4.2-1.802-6.297c-0.37-1.271-1.304-2.002-2.561-2.006L34.772,15.855z M28.988,48.404l-0.032-0.001
	c-0.737-0.021-1.212-0.354-1.411-0.993c-0.084-0.267-0.159-0.537-0.234-0.807c-0.099-0.36-0.199-0.719-0.32-1.071
	c-0.097-0.277-0.097-0.502-0.003-0.683c0.129-0.244,0.402-0.347,0.626-0.409c1.184-0.329,2.367-0.667,3.549-1.005
	c0.801-0.229,1.601-0.458,2.403-0.684c0.894-0.252,1.788-0.502,2.683-0.751c1.771-0.494,3.54-0.988,5.305-1.501
	c0.188-0.056,0.335-0.08,0.466-0.08c0.615,0,0.719,0.603,0.754,0.8c0.046,0.271,0.127,0.537,0.213,0.817
	c0.071,0.238,0.143,0.477,0.194,0.72c0.223,1.048-0.12,1.651-1.114,1.96c-1.063,0.328-2.149,0.634-3.2,0.93l-1.145,0.323
	c-2.613,0.745-5.229,1.491-7.844,2.23c-0.195,0.056-0.394,0.098-0.593,0.14L28.988,48.404z M42.02,40.92
	c-0.08,0-0.188,0.02-0.325,0.06c-1.767,0.514-3.539,1.008-5.312,1.502c-0.894,0.25-1.788,0.499-2.682,0.751
	c-0.8,0.227-1.602,0.455-2.401,0.685c-1.183,0.338-2.367,0.676-3.552,1.005c-0.225,0.063-0.297,0.122-0.317,0.161
	c-0.026,0.049-0.014,0.15,0.033,0.285c0.125,0.363,0.227,0.733,0.329,1.102c0.073,0.264,0.147,0.53,0.229,0.791
	c0.132,0.422,0.416,0.62,0.919,0.642l0.241-0.052c0.188-0.04,0.375-0.079,0.559-0.131c2.616-0.741,5.229-1.485,7.844-2.23
	l1.146-0.324c1.047-0.295,2.131-0.6,3.186-0.927c0.749-0.231,0.944-0.579,0.776-1.378c-0.049-0.227-0.119-0.453-0.187-0.677
	c-0.086-0.284-0.175-0.576-0.227-0.879C42.214,40.92,42.114,40.92,42.02,40.92 M26.904,43.388L26.904,43.388
	c-0.483,0-0.651-0.381-0.743-0.713c-0.979-3.506-1.97-7.011-2.961-10.513l-2.591-9.179c-0.036-0.129-0.068-0.259-0.099-0.383
	l-0.054-0.216l0.007-0.049c0.108-0.754,0.538-1.241,1.274-1.449l8.405-2.373c1.335-0.379,2.668-0.757,4.008-1.114
	c0.296-0.079,0.547-0.117,0.767-0.117c0.938,0,1.269,0.733,1.45,1.371c0.95,3.311,1.886,6.626,2.822,9.942l0.634,2.249
	c0.223,0.786,0.444,1.574,0.663,2.36c0.46,1.643,0.921,3.286,1.401,4.925c0.106,0.361,0.102,0.615-0.014,0.823
	c-0.147,0.269-0.448,0.383-0.721,0.458c-4.744,1.319-9.39,2.632-13.806,3.901C27.167,43.363,27.026,43.388,26.904,43.388
	 M20.965,22.358l0.03,0.121c0.03,0.119,0.061,0.243,0.095,0.367l2.591,9.179c0.992,3.504,1.983,7.008,2.961,10.515
	c0.097,0.348,0.177,0.348,0.262,0.348c0.073,0,0.173-0.019,0.305-0.057c4.418-1.271,9.065-2.584,13.811-3.902
	c0.235-0.066,0.373-0.137,0.418-0.218c0.044-0.079,0.033-0.228-0.03-0.441c-0.48-1.64-0.941-3.285-1.402-4.931
	c-0.22-0.786-0.44-1.573-0.662-2.359l-0.636-2.249c-0.935-3.315-1.871-6.63-2.82-9.94c-0.24-0.84-0.549-1.009-0.97-1.009
	c-0.176,0-0.385,0.033-0.638,0.1c-1.337,0.356-2.669,0.734-4.001,1.112l-8.405,2.373C21.344,21.516,21.055,21.831,20.965,22.358"/>
<path style="fill:#FBEEE5;" d="M46.209,35.839c-0.024,0.523-0.231,0.837-0.664,0.929c-0.529,0.111-0.84-0.209-0.979-0.662
	c-0.343-1.112-0.65-2.234-0.969-3.354c-0.813-2.867-1.626-5.734-2.436-8.601c-0.086-0.303-0.169-0.609-0.217-0.92
	c-0.07-0.459,0.096-0.84,0.549-0.985c0.471-0.15,0.824,0.104,0.98,0.53c0.235,0.635,0.416,1.291,0.603,1.943
	c1.004,3.52,2.003,7.042,3.001,10.563C46.136,35.491,46.178,35.705,46.209,35.839"/>
<path style="fill:#FBEEE5;" d="M45.342,37.04c-0.477,0-0.847-0.314-1.016-0.861c-0.271-0.88-0.52-1.767-0.77-2.653l-0.198-0.705
	c-0.815-2.867-1.627-5.734-2.438-8.602c-0.094-0.334-0.175-0.635-0.224-0.949c-0.095-0.615,0.175-1.087,0.721-1.262
	c0.558-0.179,1.076,0.1,1.291,0.681c0.215,0.579,0.386,1.18,0.551,1.761l0.059,0.201c0.868,3.047,1.732,6.095,2.598,9.144
	l0.403,1.419c0.043,0.156,0.079,0.315,0.106,0.442l0.035,0.159l-0.001,0.035c-0.038,0.818-0.491,1.083-0.863,1.162
	C45.509,37.03,45.424,37.04,45.342,37.04 M41.757,22.453c-0.059,0-0.122,0.011-0.187,0.032c-0.31,0.098-0.437,0.337-0.379,0.709
	c0.044,0.286,0.12,0.572,0.211,0.89c0.809,2.867,1.622,5.733,2.436,8.6l0.2,0.707c0.248,0.882,0.497,1.765,0.767,2.641
	c0.123,0.399,0.35,0.564,0.688,0.491c0.213-0.045,0.433-0.159,0.465-0.663l-0.021-0.096c-0.025-0.12-0.059-0.269-0.099-0.414
	l-0.403-1.419c-0.863-3.048-1.729-6.096-2.598-9.143l-0.058-0.202c-0.163-0.571-0.331-1.163-0.539-1.723
	C42.183,22.71,42.045,22.453,41.757,22.453"/>
<path style="fill:#FBEEE5;" d="M22.86,42.535c-0.055,0.431-0.209,0.777-0.668,0.854c-0.487,0.081-0.799-0.174-0.938-0.616
	c-0.276-0.878-0.535-1.762-0.786-2.647c-0.904-3.195-1.803-6.392-2.702-9.587c-0.046-0.163-0.082-0.329-0.121-0.494
	c-0.126-0.539-0.029-1,0.567-1.148c0.562-0.14,0.865,0.218,1.005,0.71c1.198,4.194,2.388,8.389,3.578,12.584
	C22.829,42.308,22.84,42.429,22.86,42.535"/>
<path style="fill:#FBEEE5;" d="M22.018,43.655c-0.476,0-0.842-0.295-1.002-0.807c-0.277-0.88-0.536-1.767-0.788-2.655
	c-0.778-2.747-1.552-5.496-2.325-8.246l-0.377-1.34c-0.038-0.135-0.07-0.272-0.101-0.408l-0.023-0.098
	c-0.242-1.036,0.366-1.351,0.751-1.446c0.101-0.025,0.199-0.038,0.293-0.038c0.28,0,0.784,0.12,1.012,0.921
	c1.128,3.95,2.248,7.899,3.369,11.85l0.209,0.736c0.026,0.09,0.041,0.183,0.055,0.271l0.022,0.133l-0.004,0.039
	c-0.031,0.234-0.122,0.944-0.876,1.07C22.158,43.648,22.087,43.655,22.018,43.655 M18.446,29.117c-0.053,0-0.111,0.007-0.173,0.023
	c-0.272,0.067-0.531,0.221-0.384,0.848l0.023,0.098c0.03,0.13,0.059,0.259,0.095,0.385l0.377,1.341
	c0.773,2.749,1.547,5.498,2.326,8.245c0.249,0.885,0.507,1.767,0.783,2.643c0.143,0.456,0.431,0.456,0.525,0.456
	c0.042,0,0.087-0.005,0.133-0.013c0.227-0.037,0.392-0.155,0.457-0.604l-0.011-0.066c-0.011-0.068-0.022-0.142-0.042-0.213
	l-0.209-0.736c-1.121-3.949-2.241-7.899-3.368-11.848C18.818,29.117,18.538,29.117,18.446,29.117"/>
<path style="fill:#FBEEE5;" d="M48.531,31.704c-0.007,0.454-0.178,0.757-0.574,0.88c-0.43,0.135-0.795-0.008-0.959-0.424
	c-0.22-0.561-0.386-1.144-0.553-1.725c-0.44-1.535-0.858-3.076-1.305-4.608c-0.164-0.56-0.13-1.061,0.469-1.261
	c0.621-0.207,0.96,0.233,1.116,0.758c0.48,1.624,0.93,3.257,1.39,4.887C48.26,30.723,48.401,31.236,48.531,31.704"/>
<path style="fill:#FBEEE5;" d="M47.657,32.883c-0.408,0-0.732-0.23-0.892-0.631c-0.225-0.574-0.396-1.171-0.56-1.748
	c-0.191-0.662-0.376-1.326-0.563-1.99c-0.244-0.874-0.489-1.747-0.743-2.617c-0.299-1.022,0.178-1.417,0.631-1.568
	c0.661-0.221,1.199,0.13,1.435,0.924c0.361,1.22,0.705,2.446,1.049,3.672l0.769,2.747l-0.001,0.036
	c-0.011,0.732-0.414,1.01-0.75,1.115C47.903,32.862,47.777,32.883,47.657,32.883 M45.907,24.764c-0.065,0-0.141,0.013-0.219,0.04
	c-0.278,0.092-0.509,0.272-0.308,0.953c0.254,0.872,0.498,1.747,0.743,2.622c0.186,0.663,0.372,1.325,0.562,1.988
	c0.162,0.565,0.329,1.151,0.545,1.702c0.111,0.28,0.339,0.374,0.653,0.277c0.188-0.059,0.381-0.178,0.396-0.611l-0.748-2.676
	c-0.343-1.223-0.687-2.446-1.047-3.664C46.399,25.107,46.23,24.764,45.907,24.764"/>
<path style="fill:#FBEEE5;" d="M18.661,40.133c0.02,0.464-0.141,0.823-0.627,0.926c-0.484,0.101-0.809-0.148-0.937-0.597
	c-0.606-2.119-1.202-4.24-1.784-6.365c-0.131-0.478,0.03-0.884,0.525-1.054c0.484-0.164,0.844,0.101,0.971,0.526
	c0.636,2.133,1.234,4.277,1.843,6.418C18.665,40.033,18.659,40.084,18.661,40.133"/>
<path style="fill:#FBEEE5;" d="M17.827,41.331c-0.472,0-0.826-0.292-0.971-0.802c-0.606-2.118-1.202-4.241-1.785-6.367
	c-0.173-0.632,0.09-1.151,0.686-1.356c0.578-0.196,1.116,0.1,1.292,0.691c0.484,1.623,0.945,3.253,1.406,4.882l0.437,1.539
	c0.019,0.064,0.019,0.125,0.019,0.17c0.027,0.677-0.266,1.097-0.826,1.214C17.997,41.321,17.911,41.331,17.827,41.331
	 M16.119,33.244c-0.062,0-0.13,0.012-0.201,0.036c-0.346,0.118-0.468,0.37-0.364,0.75c0.581,2.124,1.178,4.244,1.783,6.361
	c0.099,0.351,0.32,0.488,0.646,0.422c0.224-0.047,0.45-0.163,0.428-0.671l0.247-0.125L18.41,40.05l-0.436-1.534
	c-0.46-1.626-0.921-3.254-1.405-4.876C16.534,33.521,16.419,33.244,16.119,33.244"/>
<path style="fill:#FBEEE5;" d="M36.287,44.514c-0.01,0.547-0.539,1.047-1.096,1.034c-0.561-0.012-1.082-0.516-1.092-1.055
	c-0.009-0.576,0.539-1.088,1.137-1.063C35.788,43.454,36.297,43.979,36.287,44.514"/>
<path style="fill:#FBEEE5;" d="M35.21,45.798h-0.024c-0.7-0.014-1.324-0.623-1.336-1.302c-0.005-0.328,0.129-0.649,0.378-0.9
	c0.261-0.266,0.612-0.416,0.967-0.416c0.739,0.03,1.354,0.669,1.343,1.339C36.524,45.188,35.892,45.798,35.21,45.798 M35.223,43.681
	c-0.251,0-0.473,0.097-0.639,0.265c-0.152,0.155-0.237,0.352-0.234,0.544c0.007,0.407,0.418,0.8,0.848,0.809l0.013,0.25v-0.25
	c0.418,0,0.82-0.383,0.827-0.788c0.007-0.4-0.396-0.812-0.812-0.829H35.223z"/>
</svg>
