<?xml version="1.0" encoding="iso-8859-1"?>
<!-- Generator: Adobe Illustrator 22.0.1, SVG Export Plug-In . SVG Version: 6.00 Build 0)  -->
<svg version="1.1" id="&#x421;&#x43B;&#x43E;&#x439;_1"
	 xmlns="http://www.w3.org/2000/svg" xmlns:xlink="http://www.w3.org/1999/xlink" x="0px" y="0px" viewBox="0 0 63.8 63.845"
	 style="enable-background:new 0 0 63.8 63.845;" xml:space="preserve">
<path style="fill:#DD7D90;" d="M31.875,60.667 M63.794,32.027c0.127,17.292-14.125,31.368-31.073,31.807
	c-18.098,0.469-32.975-14.73-32.718-32.28c0.25-17.055,14.408-31.295,31.408-31.55C49.401-0.267,64.132,14.757,63.794,32.027
	 M31.875,60.667"/>
<path style="fill:#FBEEE5;" d="M31.893,46.269c-3.874,0-7.749-0.001-11.624,0c-2.487,0.001-3.728-1.217-3.735-3.711
	c-0.012-4.107,0.006-8.214-0.013-12.322c-0.006-1.344,0.355-2.506,1.459-3.337c0.821-0.62,1.09-1.405,1.02-2.42
	c-0.076-1.105-0.015-2.22-0.01-3.331c0.01-1.828,0.666-2.493,2.468-2.499c1.524-0.006,3.049-0.024,4.573-0.001
	c0.576,0.009,1.053-0.148,1.495-0.51c0.738-0.607,1.484-1.205,2.248-1.779c1.425-1.07,2.94-1.039,4.338,0.061
	c0.344,0.272,0.75,0.49,1.028,0.818c1.074,1.265,2.432,1.579,4.022,1.422c1.049-0.102,2.117-0.026,3.176-0.019
	c1.732,0.012,2.527,0.757,2.562,2.493c0.021,1.108-0.041,2.219-0.114,3.325c-0.047,0.699,0.141,1.287,0.659,1.736
	c1.497,1.297,1.878,2.95,1.833,4.869c-0.088,3.796-0.027,7.595-0.037,11.392c-0.007,2.61-1.197,3.806-3.798,3.81
	C39.591,46.273,35.742,46.268,31.893,46.269 M20.415,24.865c0,1.317,0.007,2.635-0.003,3.952c-0.004,0.448,0.128,0.778,0.531,1.034
	c3.246,2.065,6.486,4.141,9.718,6.226c0.811,0.525,1.581,0.52,2.387,0.001c3.174-2.035,6.349-4.07,9.537-6.081
	c0.56-0.353,0.791-0.762,0.806-1.443c0.052-2.45,0.151-4.898-0.008-7.35c-0.071-1.104-0.16-1.271-1.263-1.26
	c-1.91,0.021-3.82,0.119-5.729,0.093c-1.494-0.02-2.992-0.174-4.486-0.082c-1.239,0.077-2.485,0.193-3.713,0.074
	c-2.301-0.222-4.591,0.062-6.886,0.02c-0.679-0.013-0.909,0.298-0.897,0.943C20.432,22.282,20.415,23.573,20.415,24.865
	 M31.781,44.867c0-0.002,0-0.003,0-0.005c4.004,0,8.008,0.006,12.012-0.002c1.38-0.003,2.036-0.665,2.04-2.052
	c0.011-4.03,0.013-8.059,0.007-12.089c0-0.296,0.134-0.688-0.166-0.864c-0.307-0.18-0.573,0.138-0.823,0.296
	c-3.554,2.254-7.108,4.507-10.65,6.78c-1.899,1.219-2.95,1.182-4.834-0.053c-3.563-2.335-7.162-4.615-10.741-6.925
	c-0.474-0.305-0.699-0.338-0.696,0.36c0.019,4.185,0.002,8.369,0.01,12.554c0.003,1.404,0.643,2.002,2.063,2.001
	C23.929,44.865,27.855,44.867,31.781,44.867 M29.416,18.475c0.033,0.038,0.063,0.105,0.098,0.108
	c1.516,0.139,3.035,0.027,4.552,0.042c0.087,0.001,0.226-0.06,0.251-0.126c0.053-0.139-0.094-0.213-0.179-0.305
	C32.535,16.48,30.914,16.576,29.416,18.475"/>
<path style="fill:#FBEEE5;" d="M38.74,46.619l-12.629-0.001h-5.843c-2.703,0-4.078-1.365-4.085-4.059
	c-0.006-1.839-0.005-3.679-0.004-5.518c0-2.269,0.001-4.537-0.009-6.804c-0.008-1.618,0.515-2.802,1.597-3.618
	c0.685-0.516,0.949-1.149,0.882-2.116c-0.055-0.798-0.039-1.607-0.025-2.39c0.007-0.322,0.013-0.645,0.015-0.966
	c0.011-2.017,0.827-2.841,2.817-2.849l1.079-0.005c1.165-0.006,2.333-0.012,3.499,0.005h0.002c0.525,0,0.904-0.133,1.267-0.431
	c0.873-0.717,1.591-1.285,2.26-1.787c1.538-1.157,3.245-1.132,4.763,0.065c0.107,0.084,0.22,0.163,0.332,0.241
	c0.26,0.182,0.53,0.369,0.747,0.625c0.908,1.069,2.133,1.458,3.722,1.301c0.654-0.064,1.487-0.059,2.326-0.038
	c0.295,0.008,0.591,0.015,0.885,0.017c1.948,0.014,2.873,0.915,2.909,2.836c0.023,1.156-0.047,2.338-0.114,3.355
	c-0.043,0.633,0.13,1.093,0.539,1.448c1.405,1.218,2.009,2.804,1.953,5.143c-0.059,2.571-0.051,5.188-0.042,7.72
	c0.004,1.222,0.01,2.442,0.005,3.664c-0.007,2.793-1.362,4.152-4.145,4.158C41.874,46.618,40.308,46.619,38.74,46.619 M32.36,45.918
	l6.38,0.002c1.566,0,3.133-0.001,4.7-0.004c2.411-0.006,3.441-1.04,3.449-3.461c0.003-1.221-0.001-2.44-0.007-3.66
	c-0.008-2.536-0.017-5.158,0.044-7.739c0.05-2.139-0.463-3.513-1.714-4.596c-0.572-0.498-0.836-1.179-0.778-2.024
	c0.065-1.003,0.136-2.167,0.113-3.295c-0.028-1.536-0.65-2.139-2.215-2.15c-0.298-0.002-0.597-0.009-0.896-0.017
	c-0.813-0.02-1.62-0.026-2.24,0.034c-1.822,0.18-3.272-0.304-4.325-1.544c-0.159-0.186-0.38-0.34-0.613-0.504
	c-0.123-0.086-0.247-0.173-0.364-0.265c-1.272-1.002-2.624-1.022-3.91-0.056c-0.66,0.496-1.37,1.058-2.237,1.769
	c-0.483,0.397-1.031,0.59-1.673,0.59c-1.261-0.018-2.371-0.011-3.534-0.005l-1.081,0.006c-1.615,0.005-2.111,0.508-2.12,2.151
	c-0.001,0.325-0.007,0.651-0.014,0.977c-0.014,0.767-0.03,1.56,0.024,2.328c0.083,1.2-0.285,2.065-1.159,2.723
	c-0.907,0.683-1.325,1.654-1.32,3.056c0.011,2.269,0.01,4.538,0.009,6.809c0,1.838-0.001,3.677,0.004,5.515
	c0.007,2.294,1.082,3.362,3.384,3.362L32.36,45.918z M20.002,45.219c-1.622,0-2.41-0.77-2.413-2.351
	c-0.004-1.716-0.003-3.431-0.002-5.146c0.001-2.47,0.003-4.938-0.008-7.408c-0.002-0.387,0.061-0.616,0.21-0.765
	c0.238-0.241,0.608-0.159,1.025,0.11c1.248,0.805,2.497,1.606,3.747,2.407c2.338,1.499,4.675,2.997,6.996,4.521
	c0.952,0.623,1.628,0.889,2.26,0.889c0.622,0,1.278-0.251,2.193-0.838c3.345-2.147,6.701-4.276,10.058-6.404l0.595-0.377
	c0.047-0.03,0.094-0.066,0.143-0.103c0.255-0.194,0.67-0.419,1.046-0.201c0.424,0.249,0.379,0.709,0.351,0.984
	c-0.006,0.063-0.013,0.125-0.013,0.183c0.005,4.03,0.004,8.06-0.007,12.09c-0.004,1.589-0.81,2.397-2.391,2.4
	c-1.746,0.004-3.49,0.005-5.235,0.005l-6.434-0.002l-0.343,0.005l-6.741-0.001L20.002,45.219z M18.283,30.157
	c-0.002,0.04-0.004,0.092-0.004,0.156c0.011,2.47,0.009,4.94,0.008,7.41c-0.001,1.715-0.002,3.429,0.001,5.144
	c0.003,1.204,0.467,1.652,1.71,1.652l5.042-0.002l6.394,0.001l0.347-0.005l6.776,0.002c1.745,0,3.488-0.001,5.233-0.005
	c1.184-0.002,1.689-0.511,1.693-1.702c0.01-4.029,0.011-8.058,0.006-12.088c0-0.079,0.007-0.165,0.016-0.252
	c0.01-0.087,0.026-0.267,0-0.304c-0.073-0.014-0.203,0.091-0.275,0.147c-0.066,0.049-0.129,0.097-0.192,0.137l-0.595,0.378
	c-3.356,2.126-6.711,4.255-10.054,6.401c-1.037,0.665-1.807,0.949-2.571,0.949c-0.78,0-1.571-0.3-2.644-1.004
	c-2.32-1.521-4.655-3.018-6.991-4.515c-1.25-0.802-2.5-1.603-3.748-2.409C18.372,30.208,18.323,30.178,18.283,30.157 M31.854,36.817
	L31.854,36.817c-0.458,0-0.923-0.15-1.382-0.446c-3.233-2.086-6.472-4.161-9.717-6.225c-0.478-0.305-0.699-0.728-0.693-1.333
	c0.007-0.957,0.006-1.914,0.004-2.871l0.002-2.261c0.003-0.895,0.005-1.79-0.01-2.685c-0.006-0.285,0.02-0.697,0.306-0.988
	c0.207-0.21,0.501-0.312,0.903-0.312h0.044c0.89,0.017,1.781-0.016,2.673-0.05c1.487-0.056,3.024-0.086,4.241,0.033
	c1.027,0.099,2.089,0.028,3.123-0.04l0.534-0.035c0.979-0.061,1.961-0.017,2.942,0.027c0.525,0.024,1.048,0.047,1.572,0.054
	l0.646,0.004c0.953,0,1.906-0.025,2.86-0.05c0.738-0.019,1.475-0.039,2.213-0.047h0.104c1.288,0,1.438,0.435,1.515,1.587
	c0.133,2.084,0.083,4.191,0.034,6.23L43.74,28.56c-0.016,0.795-0.306,1.313-0.969,1.731c-3.188,2.011-6.362,4.045-9.533,6.082
	C32.777,36.668,32.312,36.817,31.854,36.817 M21.267,20.046v0.35c-0.2,0-0.336,0.035-0.403,0.103
	c-0.076,0.076-0.111,0.239-0.107,0.484c0.017,0.9,0.014,1.8,0.011,2.7l-0.003,1.18l0.001,1.078c0.001,0.959,0.003,1.918-0.005,2.877
	c-0.003,0.364,0.098,0.564,0.369,0.737c3.247,2.065,6.487,4.141,9.721,6.227c0.349,0.226,0.678,0.335,1.003,0.335
	c0.326,0,0.653-0.108,1.005-0.334c3.173-2.036,6.349-4.072,9.539-6.083c0.463-0.292,0.631-0.594,0.642-1.154l0.027-1.153
	c0.048-2.023,0.099-4.116-0.034-6.168c-0.06-0.932-0.06-0.932-0.814-0.932h-0.096c-0.733,0.008-1.468,0.028-2.203,0.047
	c-0.959,0.025-1.919,0.05-2.878,0.05l-0.655-0.004c-0.53-0.007-1.063-0.031-1.594-0.055c-0.956-0.042-1.913-0.088-2.867-0.028
	l-0.532,0.035c-1.06,0.071-2.162,0.143-3.236,0.038c-1.182-0.113-2.69-0.083-4.147-0.029c-0.904,0.033-1.809,0.066-2.712,0.05
	L21.267,20.046z M31.305,19.002c-0.708,0-1.287-0.023-1.822-0.071c-0.189-0.015-0.284-0.158-0.326-0.219l-0.193-0.219l0.178-0.236
	c1.622-2.057,3.512-2.164,5.253-0.303c0.123,0.11,0.377,0.334,0.25,0.668c-0.094,0.243-0.395,0.352-0.577,0.352l-0.302-0.001
	c-0.408,0-0.817,0.007-1.226,0.014C32.128,18.996,31.716,19.002,31.305,19.002 M30.052,18.271c0.705,0.039,1.6,0.032,2.476,0.017
	c0.4-0.008,0.799-0.015,1.199-0.016C32.459,17.017,31.251,17.015,30.052,18.271"/>
<path style="fill:#FBEEE5;" d="M32.517,25.966c0.011,2.081-0.262,1.835,1.855,1.852c0.413,0.004,0.826,0,1.239-0.002
	c0.412-0.001,0.611,0.196,0.611,0.617c-0.001,0.413-0.184,0.627-0.602,0.628c-0.542,0-1.084,0.001-1.626,0.001
	c-1.491,0-1.491,0-1.481,1.454c0.002,0.413,0.016,0.826-0.003,1.238c-0.018,0.438,0.143,0.996-0.601,1.013
	c-0.74,0.017-0.628-0.523-0.639-0.975c-0.01-0.49-0.003-0.981-0.008-1.471c-0.011-1.252-0.012-1.252-1.303-1.253
	c-0.516-0.001-1.032-0.002-1.548-0.001c-0.432,0.001-0.844,0.001-0.854-0.613c-0.009-0.604,0.373-0.648,0.823-0.644
	c0.671,0.005,1.343-0.025,2.012,0.007c0.621,0.029,0.904-0.192,0.874-0.844c-0.032-0.721,0.003-1.444,0.002-2.167
	c0-0.431,0.178-0.681,0.638-0.693c0.488-0.013,0.617,0.271,0.609,0.692C32.511,25.192,32.516,25.58,32.517,25.966"/>
<path style="fill:#FBEEE5;" d="M31.876,33.118c-0.306,0-0.545-0.084-0.708-0.25c-0.254-0.256-0.25-0.617-0.247-0.907l0.001-0.161
	c-0.007-0.307-0.007-0.614-0.007-0.92l-0.001-0.556c-0.003-0.382-0.007-0.777-0.065-0.846c-0.07-0.059-0.486-0.059-0.888-0.06
	l-1.068-0.001l-0.479,0.001c-0.399,0.038-1.19,0.001-1.205-0.958c-0.005-0.313,0.078-0.558,0.246-0.729
	c0.234-0.238,0.564-0.271,0.885-0.271l0.228,0.001l1.109-0.008c0.244,0,0.489,0.003,0.734,0.015
	c0.218-0.003,0.369-0.013,0.434-0.081c0.057-0.059,0.082-0.2,0.073-0.397c-0.022-0.477-0.014-0.955-0.006-1.433
	c0.004-0.25,0.008-0.5,0.008-0.75c0-0.647,0.357-1.027,0.978-1.044h0.003c0.325,0,0.551,0.084,0.711,0.247
	c0.177,0.181,0.26,0.443,0.255,0.802c-0.005,0.277-0.003,0.553-0.001,0.83l0.001,0.324c0.002,0.24-0.001,0.45-0.003,0.633
	c-0.005,0.368-0.01,0.749,0.042,0.825c0.068,0.046,0.466,0.046,0.615,0.046l0.598-0.002l0.604,0.002l0.887-0.003
	c0.305,0,0.542,0.085,0.71,0.252c0.168,0.169,0.253,0.41,0.252,0.715c0,0.621-0.347,0.977-0.951,0.977l-1.626,0.001
	c-0.502,0-0.976,0-1.059,0.082c-0.078,0.08-0.076,0.535-0.073,1.017l0.004,0.303c0.004,0.319,0.007,0.638-0.006,0.956
	c-0.003,0.064-0.001,0.132,0.001,0.2c0.005,0.222,0.01,0.473-0.104,0.699c-0.144,0.288-0.428,0.439-0.842,0.449H31.876z
	 M28.893,28.717l1.068,0.001c1.485,0.002,1.639,0.151,1.653,1.6l0.002,0.562c0,0.301,0,0.603,0.006,0.904v0.185
	c-0.002,0.143-0.004,0.358,0.044,0.408c0.004,0.004,0.046,0.041,0.21,0.041v0.35l0.026-0.35c0.048-0.001,0.205-0.009,0.232-0.063
	c0.035-0.07,0.031-0.229,0.028-0.368c-0.002-0.084-0.004-0.167,0-0.247c0.012-0.305,0.008-0.611,0.004-0.917l-0.002-0.304
	c-0.005-0.822-0.008-1.232,0.276-1.518c0.286-0.288,0.71-0.288,1.555-0.289l1.626-0.001c0.19,0,0.251-0.021,0.251-0.278
	c0-0.107-0.018-0.188-0.048-0.219c-0.03-0.029-0.108-0.047-0.208-0.047l-0.893,0.003l-0.604-0.002l-0.598,0.002
	c-0.536,0-0.878-0.017-1.115-0.257c-0.256-0.259-0.251-0.637-0.242-1.322c0.001-0.18,0.004-0.386,0.003-0.623l-0.002-0.321
	c-0.001-0.283-0.002-0.565,0.002-0.847c0.003-0.223-0.041-0.285-0.053-0.299c-0.025-0.024-0.089-0.038-0.175-0.038
	c-0.233,0.006-0.319,0.038-0.319,0.344c0.001,0.253-0.004,0.508-0.008,0.762c-0.008,0.463-0.016,0.927,0.006,1.389
	c0.017,0.406-0.069,0.705-0.267,0.913c-0.192,0.201-0.472,0.299-0.854,0.299l-0.12-0.003c-0.233-0.011-0.466-0.014-0.7-0.014
	l-1.109,0.008l-0.19-0.001h-0.003c-0.252,0-0.381,0.021-0.421,0.062c-0.024,0.023-0.047,0.095-0.045,0.226
	c0.004,0.234,0.005,0.269,0.454,0.269H28.893z"/>
<rect y="-0.001" style="fill:none;" width="63.8" height="63.845"/>
</svg>
