<?xml version="1.0" encoding="iso-8859-1"?>
<!-- Generator: Adobe Illustrator 22.0.1, SVG Export Plug-In . SVG Version: 6.00 Build 0)  -->
<svg version="1.1" id="&#x421;&#x43B;&#x43E;&#x439;_1"
	 xmlns="http://www.w3.org/2000/svg" xmlns:xlink="http://www.w3.org/1999/xlink" x="0px" y="0px" viewBox="0 0 48 48"
	 style="enable-background:new 0 0 48 48;" xml:space="preserve">
<path style="fill:#DD7D90;" d="M24.001,47.975C11.014,48.2-0.301,37.015,0.006,23.452C0.291,10.929,10.873,0.044,24.01,0.022
	C37.087,0,48.378,11.095,47.99,24.697C47.628,37.407,37.037,48.114,24.001,47.975 M23.957,45.627"/>
<path style="fill:#FBEEE5;" d="M17.621,32.63c0-1.782-0.029-3.565,0.012-5.346c0.019-0.829-0.244-1.155-1.117-1.145
	c-1.853,0.024-2.039-0.205-2.041-2.069c-0.001-1.199-0.006-2.399,0.014-3.599c0.023-1.333,0.384-1.695,1.712-1.776
	c1.431-0.088,1.434-0.088,1.419-1.538c-0.014-1.311,0.142-2.6,0.523-3.853c1.227-4.032,4.764-5.258,8.759-4.93
	c1.332,0.11,2.632,0.424,3.923,0.769c1.219,0.325,1.598,0.75,1.634,2.011c0.03,1.027,0.025,2.058-0.014,3.084
	c-0.045,1.214-0.436,1.575-1.64,1.594c-1.131,0.017-2.263-0.009-3.393,0.043c-1.092,0.049-1.272,0.429-1.288,1.86
	c-0.012,1.036,0.635,0.95,1.298,0.95c1.166-0.001,2.334-0.048,3.495,0.014c1.253,0.067,1.626,0.572,1.402,1.818
	c-0.27,1.517-0.588,3.025-0.89,4.535c-0.149,0.742-0.574,1.121-1.366,1.101c-0.958-0.025-1.922,0.044-2.878-0.01
	c-0.816-0.045-1.067,0.263-1.058,1.066c0.034,3.564,0.017,7.129,0.012,10.694c-0.002,1.577-0.224,1.797-1.768,1.805
	c-1.714,0.008-3.428,0.019-5.142,0.007c-1.16-0.01-1.556-0.358-1.584-1.533c-0.045-1.85-0.012-3.701-0.012-5.552
	C17.629,32.63,17.625,32.63,17.621,32.63 M19.956,30.811c0,1.234,0,2.468,0,3.702c-0.001,3.069-0.001,3.069,3.068,2.846
	c0.035-0.002,0.069-0.005,0.103-0.003c0.521,0.011,0.702-0.228,0.704-0.76c0.009-2.5,0.09-5,0.076-7.5
	c-0.008-1.265-0.163-2.529-0.062-3.798c0.071-0.895,0.525-1.377,1.426-1.433c1.028-0.064,2.056-0.112,3.078,0.042
	c0.644,0.097,0.98-0.161,1.084-0.774c0.051-0.304,0.047-0.624,0.144-0.912c0.294-0.884-0.124-1.093-0.909-1.078
	c-1.062,0.021-2.126,0.016-3.187-0.028c-0.713-0.03-1.47-0.205-1.506-1.077c-0.054-1.295-0.29-2.588-0.062-3.894
	c0.235-1.354,1.01-2.199,2.367-2.502c0.914-0.205,1.842-0.144,2.766-0.157c0.463-0.007,1.045,0.108,1.05-0.633
	c0.003-0.65,0.254-1.439-0.737-1.657c-1.339-0.295-2.69-0.572-4.066-0.515c-3.192,0.134-4.678,1.535-5.191,4.726
	c-0.227,1.402-0.121,2.804-0.131,4.206c-0.007,0.997-0.527,1.432-1.439,1.514c-0.339,0.031-0.684-0.002-1.026-0.011
	c-0.25-0.005-0.527-0.016-0.52,0.328c0.013,0.717-0.098,1.493,0.143,2.132c0.203,0.539,0.981,0.299,1.495,0.337
	c0.95,0.071,1.341,0.53,1.334,1.449C19.944,27.178,19.954,28.995,19.956,30.811"/>
</svg>
