<?xml version="1.0" encoding="iso-8859-1"?>
<!-- Generator: Adobe Illustrator 22.0.1, SVG Export Plug-In . SVG Version: 6.00 Build 0)  -->
<svg version="1.1" id="&#x421;&#x43B;&#x43E;&#x439;_1"
	 xmlns="http://www.w3.org/2000/svg" xmlns:xlink="http://www.w3.org/1999/xlink" x="0px" y="0px" viewBox="0 0 63.261 63.265"
	 style="enable-background:new 0 0 63.261 63.265;" xml:space="preserve">
<path style="fill:#DD7D90;" d="M63.087,31.734c0.125,17.056-13.932,30.939-30.647,31.373C14.59,63.569-0.083,48.578,0.17,31.267
	c0.247-16.82,14.21-30.865,30.978-31.117C48.892-0.116,63.42,14.702,63.087,31.734 M31.605,59.982"/>
<rect x="-75.5" y="-7.834" style="fill:none;" width="63.8" height="63.845"/>
<path style="fill:#FBEEE5;stroke:#FBEEE5;stroke-width:1.5;stroke-miterlimit:10;" d="M49.509,31.637
	c0,2.54,0.006,5.081-0.001,7.622c-0.014,5.389-4.847,10.235-10.229,10.247c-5.027,0.011-10.056,0.011-15.084,0.001
	c-5.563-0.01-10.351-4.668-10.408-10.212c-0.055-5.188-0.04-10.378,0.002-15.565c0.037-4.581,4.033-9.083,8.569-9.801
	c1.652-0.262,3.308-0.145,4.962-0.158c3.771-0.028,7.542-0.023,11.314-0.006c5.581,0.024,9.751,3.503,10.767,8.974
	c0.087,0.469,0.104,0.957,0.107,1.436C49.515,26.662,49.51,29.149,49.509,31.637 M15.621,31.586c-0.002,0-0.005,0-0.007,0
	c0,1.176,0,2.353,0,3.528c0,1.203,0.027,2.406-0.01,3.608c-0.034,1.114,0.176,2.175,0.51,3.227c0.909,2.867,4.163,5.573,7.067,5.663
	c5.477,0.171,10.96,0.185,16.436,0.008c4.274-0.138,7.866-3.768,8.009-8.048c0.174-5.261,0.135-10.529,0.012-15.793
	c-0.102-4.403-3.922-8.123-8.316-8.15c-5.078-0.033-10.157-0.017-15.237-0.005c-4.618,0.011-8.447,3.866-8.461,8.504
	C15.615,26.614,15.621,29.1,15.621,31.586"/>
<path style="fill:#FBEEE5;stroke:#FBEEE5;stroke-width:1.5;stroke-miterlimit:10;" d="M31.559,22.624
	c4.898-0.047,9.084,4.094,9.101,9.003c0.018,4.856-4.119,9.015-8.982,9.032c-4.878,0.016-8.98-4.049-9.053-8.972
	C22.551,26.839,26.66,22.671,31.559,22.624 M38.814,31.688c0.012-3.955-3.174-7.197-7.092-7.217
	c-3.983-0.021-7.242,3.141-7.252,7.032c-0.01,4.091,3.134,7.302,7.157,7.312C35.551,38.823,38.803,35.599,38.814,31.688"/>
<path style="fill:#FBEEE5;stroke:#FBEEE5;stroke-width:1.5;stroke-miterlimit:10;" d="M43.045,21.971
	c-0.023,0.886-0.858,1.683-1.737,1.661c-0.893-0.022-1.676-0.839-1.658-1.733c0.017-0.898,0.834-1.682,1.732-1.659
	C42.281,20.262,43.07,21.082,43.045,21.971"/>
</svg>
