<?xml version="1.0" encoding="iso-8859-1"?>
<!-- Generator: Adobe Illustrator 22.0.1, SVG Export Plug-In . SVG Version: 6.00 Build 0)  -->
<svg version="1.1" id="OBJECTS" xmlns="http://www.w3.org/2000/svg" xmlns:xlink="http://www.w3.org/1999/xlink" x="0px" y="0px"
	 viewBox="0 0 282 254" style="enable-background:new 0 0 282 254;" xml:space="preserve">
<path style="fill:#CFD1D2;" d="M281.5,247.585c0,3.604-56.904,6.527-127.1,6.527c-70.197,0-127.104-2.923-127.104-6.527
	c0-3.603,56.907-6.525,127.104-6.525C224.596,241.059,281.5,243.982,281.5,247.585z"/>
<path style="fill:#CBCDCE;" d="M191.124,86.856c0.816-1.066,2.028-1.841,3.439-2.412c-0.322,0.265-0.618,0.551-0.875,0.863
	c-4.083,4.966-5.412,11.596,2.011,14.108c4.249,1.437,8.073,1.356,10.431,1.069l-0.295,2.553c0,0-6.07,1.299-12.861-1.733
	C186.186,98.271,187.37,91.767,191.124,86.856z"/>
<path style="fill:#DB8D99;" d="M206.701,83.916c0,0-8.009-1.138-11.414,1.447c0,0,6.504-1.157,10.982,0.145L206.701,83.916z"/>
<path style="opacity:0.5;fill:#CBCDCE;" d="M207.993,83.532c-1.579,14.109,0.08,16.405,0.08,16.406
	c-0.07,0.311-0.143,0.586-0.216,0.787c-0.723,2.023-2.021,2.313-2.021,2.313s-0.837-11.036,2.16-19.51
	C207.993,83.53,207.993,83.53,207.993,83.532z"/>
<g>
	<g>
		<polygon style="fill:#E0B3B1;" points="4.399,143.577 82.485,143.577 82.575,95.145 4.49,94.96 		"/>
		
			<rect x="35.094" y="44.025" transform="matrix(0.0024 -1 1 0.0024 -43.6141 130.396)" style="fill:#FFD3CF;" width="16.906" height="86.064"/>
		<path style="opacity:0.5;fill:#FFD4D0;" d="M74.522,135.791c5.136-3.643,2.345-36.547,2.345-36.547L4.489,95.418l0.791-0.454
			l77.295,0.181l-0.09,48.432H4.399C4.399,143.577,69.385,139.433,74.522,135.791z"/>
		<path style="opacity:0.5;fill:#FFD3CF;" d="M0.531,78.502l58.1,0.138c-1.501-0.003-49.595-0.081-52.403,2.161
			C3.372,83.079,5.636,90.85,5.636,90.85s80.932,2.479,80.927,4.763L0.5,95.407L0.531,78.502z"/>
		<path style="fill:#F7B3B0;" d="M83.048,80.866c0,0-43.193-0.687-45.473,0.008c-2.282,0.701,41.909-0.348,43.044,2.109
			c1.134,2.459,1.85,8.051,1.85,8.051L83.048,80.866z"/>
		<path style="fill:#F7B3B0;" d="M8.685,96.322c0,0-2.293,34.575-1.502,36.43c0.792,1.853,1.354-33.093,4.455-33.913
			c3.097-0.822,9.702-1.688,9.702-1.688L8.685,96.322z"/>
	</g>
</g>
<polygon style="fill:#D4D4D5;" points="66.44,181.351 59.514,181.252 19.122,146.124 26.047,146.223 "/>
<rect x="0.5" y="143.602" style="fill:#BABCBE;" width="84.539" height="3.414"/>
<g>
	<g>
		<g>
			<path style="fill:#272425;" d="M203.56,213.542c0,19.057,15.448,34.505,34.503,34.505s34.504-15.448,34.504-34.505
				c0-19.053-15.45-34.503-34.504-34.503S203.56,194.489,203.56,213.542z"/>
			<path style="fill:#8D8F92;" d="M215.832,213.542c0,12.28,9.955,22.235,22.231,22.235c12.277,0,22.235-9.955,22.235-22.235
				c0-12.279-9.958-22.232-22.235-22.232C225.787,191.311,215.832,201.264,215.832,213.542z"/>
			<path style="fill:#59595B;" d="M219.537,213.542c0,10.234,8.295,18.528,18.526,18.528c10.231,0,18.527-8.295,18.527-18.528
				c0-10.231-8.296-18.525-18.527-18.525C227.832,195.018,219.537,203.311,219.537,213.542z"/>
			<path style="fill:#6D6E70;" d="M228.989,213.542c0,5.013,4.066,9.075,9.074,9.075c5.013,0,9.076-4.062,9.076-9.075
				c0-5.011-4.062-9.072-9.076-9.072C233.054,204.47,228.989,208.532,228.989,213.542z"/>
		</g>
		<g>
			<path style="fill:#D4D4D5;" d="M238.097,210.435c0.694,1.186,0.361,2.827-0.74,3.649l-0.035,0.027
				c-1.099,0.823-2.768,0.677-3.707-0.325l-21.47-22.831c-0.939-1-0.812-2.491,0.292-3.313l6.58-4.92
				c1.098-0.82,2.564-0.524,3.258,0.66L238.097,210.435z"/>
			<path style="opacity:0.5;fill:#D4D4D5;" d="M219.017,182.723l-6.58,4.92c-1.103,0.823-1.231,2.313-0.292,3.313l3.031,3.226
				c0-0.001,2.524-7.339,8.462-2.822c5.943,4.518,10.834,16.453,10.95,18.568c0.112,2.112-3.314,1.371-3.314,1.371l2.34,2.488
				c0.939,1.001,2.608,1.147,3.707,0.325l0.035-0.027c1.101-0.821,1.435-2.463,0.74-3.649l-15.821-27.052
				C221.581,182.199,220.115,181.903,219.017,182.723z"/>
		</g>
	</g>
	<g>
		<path style="fill:#FF798F;" d="M194.235,218.193h20.308c0,0,12.923-27.494,56.847-27.494c0,0-4.91-28.731-41.902-20.08
			C192.502,179.268,194.235,218.193,194.235,218.193z"/>
		<path style="fill:#CBCDCE;" d="M202.809,212.016l11.735,6.177h-20.308c0,0-1.734-38.925,35.253-47.574
			c8.329-1.948,15.016-1.991,20.402-0.905C248.878,169.681,212.634,166.497,202.809,212.016z"/>
		<path style="fill:#DB8D99;" d="M267.924,188.536c0,0-27.356,0.206-47.391,17.301c0,0,12.619-17.919,40.648-20.183
			c0,0-1.156-9.887-8.669-13.594C252.512,172.06,262.337,174.118,267.924,188.536z"/>
	</g>
	<rect x="30.017" y="205.093" style="fill:#434244;" width="14.748" height="8.862"/>
	<g>
		<path style="fill:#272425;" d="M49.528,213.542c0,19.057,15.447,34.505,34.503,34.505c19.055,0,34.504-15.448,34.504-34.505
			c0-19.053-15.449-34.503-34.504-34.503C64.976,179.039,49.528,194.489,49.528,213.542z"/>
		<path style="fill:#8D8F92;" d="M61.8,213.542c0,12.28,9.954,22.235,22.231,22.235c12.278,0,22.233-9.955,22.233-22.235
			c0-12.279-9.955-22.232-22.233-22.232C71.754,191.311,61.8,201.264,61.8,213.542z"/>
		<path style="fill:#59595B;" d="M65.504,213.542c0,10.234,8.296,18.528,18.527,18.528c10.231,0,18.528-8.295,18.528-18.528
			c0-10.231-8.296-18.525-18.528-18.525C73.8,195.018,65.504,203.311,65.504,213.542z"/>
		<path style="fill:#6D6E70;" d="M74.956,213.542c0,5.013,4.063,9.075,9.075,9.075c5.011,0,9.074-4.062,9.074-9.075
			c0-5.011-4.063-9.072-9.074-9.072C79.02,204.47,74.956,208.532,74.956,213.542z"/>
	</g>
	<g>
		<path style="fill:#6F0028;" d="M194.276,89.312c-0.869,0-5.492,0.577-8.669,3.178c-3.182,2.602-4.771,4.769-4.771,4.769
			s-1.009,3.034-0.43,5.925c0.577,2.888,6.332,14.161,6.332,14.161l6.092-6.07l-1.156-8.091c0,0-0.866-3.756,3.178-6.358
			L194.276,89.312z"/>
		<path style="fill:#CBCDCE;" d="M180.837,97.259c0,0,1.589-2.167,4.771-4.769c3.176-2.601,7.8-3.178,8.669-3.178l0.11,1.427
			c-1.476,0.485-3.334,1.107-5.023,1.558c-5.124,1.373-6.213,4.767-6.213,4.767s-1.011,4.479-0.433,7.37
			c0.386,1.934,6.696,6.937,7.595,10.488l-3.572,2.422c0,0-5.756-11.273-6.332-14.161
			C179.828,100.292,180.837,97.259,180.837,97.259z"/>
	</g>
	<path style="fill:#313131;" d="M159.286,218.002l-4.874,6.545c0,0-1.484,2.317-5.529,2.317c-4.046,0-27.165,0-27.165,0
		s-5.78,0-9.825-2.022c-4.047-2.023-5.219-2.6-9.248-2.6c-4.028,0-15.22,0-15.22,0s-3.852,0.769-7.609-4.049
		c-2.958-3.79-5.491-8.378-5.491-8.378h31.787C106.114,209.815,125.476,219.159,159.286,218.002z"/>
	<g>
		<path style="fill:#F2D27D;" d="M208.149,83.098c0,0,1.156,0,1.156,3.902c0,3.901-0.726,11.702-1.448,13.726
			c-0.723,2.023-2.021,2.313-2.021,2.313S204.967,91.624,208.149,83.098z"/>
		<path style="fill:#FF798F;" d="M208.149,83.098c-1.014,0-13.265-1.156-17.025,3.758c-3.754,4.911-4.939,11.415,1.85,14.449
			c6.791,3.031,12.861,1.733,12.861,1.733L208.149,83.098z"/>
	</g>
	<g>
		<polygon style="fill:#59595B;" points="85.415,218.772 108.812,218.772 106.587,217.312 84.081,217.312 		"/>
		<polygon style="fill:#59595B;" points="82.718,215.775 104.284,215.775 102.389,214.534 81.583,214.534 		"/>
	</g>
	<g>
		<path style="fill:#434244;" d="M63.714,146.709c0,0,26.298,1.319,39.446-1.65c13.148-2.97,27.214-4.619,29.966,0.66
			c2.753,5.279,5.809,14.187,3.974,15.836c-1.834,1.652-6.42,2.312-9.478,2.312c-3.06,0-68.424,0-68.424,0s-1.904,0.329-3.434-4.95
			C54.236,153.639,51.483,145.059,63.714,146.709z"/>
		<path style="fill:#9A9A9A;" d="M55.764,158.918c-0.938-3.24-2.33-7.716-0.447-10.317l0,0c0.166,12.455,8.396,11.306,20.221,9.987
			c11.823-1.32,39.954-2.641,50.146-3.08c10.188-0.44,8.878-6.749,8.876-6.76c2.23,5.132,4.058,11.447,2.54,12.808
			c-1.834,1.652-6.42,2.312-9.478,2.312c-3.06,0-68.424,0-68.424,0S57.294,164.196,55.764,158.918z"/>
	</g>
	<path style="fill:#272425;" d="M183.074,98.882c0,2.431-1.972,4.403-4.403,4.403c-2.432,0-4.402-1.972-4.402-4.403
		c0-2.432,1.971-4.402,4.402-4.402C181.102,94.479,183.074,96.45,183.074,98.882z"/>
	<g>
		<path style="fill:#FF798F;" d="M194.371,103.568c0,0-31.21-4.624-24.37,45.561c5.151,37.789,13.56,49.413,4.889,52.016
			c-8.669,2.599-40.123,0-40.123,0s-7.512-1.445-6.354-9.823c1.154-8.382,8.332-19.651,9.202-30.344H60.603
			c0,0-24.71,17.051-24.999,57.215h17.903c0,0,3.352,0.421,6.471-2.618c3.117-3.04,4.132-4.132,4.132-4.132h35.315
			c0,0,2.885-0.703,6.862,2.259c3.975,2.963,7.639,8.03,12.55,8.03c4.913,0,54.962,0,54.962,0s9.9,0.389,17.228-8.185
			c7.329-8.578,13.485-22.805,18.395-30.319c4.913-7.513,13.9-11.009,22.295-12.352c0,0-5.374-15.448-15.111-19.141
			C206.866,148.039,197.503,122.729,194.371,103.568z"/>
		<path style="fill:#BC5E70;" d="M118.188,207.732c-0.809-1.821-4.135-10.056-1.518-17.293c2.961-8.189,2.961-15.514-12.262-15.514
			c-15.22,0-36.785,3.878-45.241,15.514c-7.304,10.054-8.613,16.237-8.834,17.736l-0.045,0.001c0,0,0.439-6.88,9.156-19.263
			c8.717-12.385,30.951-16.511,46.645-16.511c15.693,0,15.693,7.796,12.644,16.511c-3.054,8.714,1.742,18.803,1.742,18.803
			L118.188,207.732z"/>
		<path style="fill:#CBCDCE;" d="M60.603,160.977h77.012c-0.071,0.85-0.243,1.702-0.487,2.555l0,0c0,0-51.013,4.958-60.646,2.646
			c-9.633-2.312-20.419,5.394-24.659,12.714c-4.238,7.321-6.586,23.503-4.275,29.283c2.312,5.78,3.77,7.746,8.862,5.395
			c5.094-2.354,3.853-5.393,12.33-5.009c8.476,0.384,29.668,0,29.668,0s5.393-0.772,10.402,3.468
			c5.01,4.239,16.183,6.935,33.137,7.32c16.953,0.386,35.029,2.291,43.924-4.238c8.788-6.451,19.551-25.048,19.807-25.49
			c-4.185,7.62-9.076,17.403-14.651,23.925c-7.328,8.574-17.228,8.185-17.228,8.185s-50.049,0-54.962,0
			c-4.911,0-8.575-5.067-12.55-8.03c-3.976-2.962-6.862-2.259-6.862-2.259H64.11c0,0-1.014,1.092-4.132,4.132
			c-3.119,3.039-6.471,2.618-6.471,2.618H35.604C35.893,178.028,60.603,160.977,60.603,160.977z"/>
		<path style="fill:#CBCDCE;" d="M174.626,125.531c0.866,18.204,11.823,61.55,9.51,69.063c-2.308,7.514-5.201,8.382-15.892,9.826
			c-10.693,1.444-31.534-0.07-35.397-3.969c-0.002-0.001-0.004-0.006-0.007-0.009c1.079,0.532,1.927,0.703,1.927,0.703
			s31.454,2.599,40.123,0c8.671-2.602,0.262-14.227-4.889-52.016c-6.839-50.185,24.37-45.561,24.37-45.561l0.185,1.109
			C194.557,104.677,173.758,107.324,174.626,125.531z"/>
		<path style="fill:#DB8D99;" d="M193.747,111.237c0,0,1.111,36.275,15.019,44.775c13.904,8.5,14.463,6.215,20.277,14.387
			c0,0-4.771-7.891-9.221-12.562C215.374,153.167,200.173,151.244,193.747,111.237z"/>
	</g>
</g>
<g>
	<g>
		<path style="fill:#272425;" d="M155.64,193.783c0,0,0.419,5.486,0.814,7.343c0,0,16.176,1.325,20.02,0.133
			c3.845-1.194,3.316-3.713,0.398-5.305c-2.916-1.59-10.869-3.073-10.869-3.073S158.16,194.048,155.64,193.783z"/>
		<path style="fill:#434244;" d="M149.891,195.82c0,0,0.418,5.487,0.814,7.344c0,0,16.177,1.326,20.02,0.133
			c3.845-1.193,3.316-3.714,0.4-5.304c-2.919-1.589-10.871-3.074-10.871-3.074S152.41,196.087,149.891,195.82z"/>
		<path style="fill:#A06B47;" d="M87.015,123.794c0,0-5.349,22.339,12.003,25.662c17.353,3.322,36.181-4.249,36.551-0.557
			c0.371,3.693,20.103,44.975,20.103,44.975s5.969,2.853,13.723-0.84c0,0-16.29-51.887-18.134-55.949
			c-1.847-4.06-13.309-11.255-21.025-9.33C122.52,129.68,114.886,131.917,87.015,123.794z"/>
		<g>
			<path style="fill:#C18459;" d="M86.388,123.794c0,0-4.722,22.339,12.63,25.662c17.353,3.322,36.181-4.249,36.551-0.557
				c0.371,3.693,13.695,46.921,13.695,46.921s7.699,2.853,15.452-0.84c0,0-11.61-53.834-13.455-57.895
				c-1.847-4.06-13.309-11.255-21.025-9.33C122.52,129.68,115.376,126.563,86.388,123.794z"/>
			<path style="opacity:0.5;fill:#476A74;" d="M139.374,150.007c0.738-1.108,0.368-7.752-13.662-4.799
				c-14.028,2.955-27.504,1.663-31.934-2.027c-4.431-3.694-7.384-15.326,8.121-11.634c15.501,3.693,28.328-3.787,28.338-3.791
				c0,0,0,0-0.002,0c-7.715,1.925-14.859-1.192-43.847-3.961c0,0-4.722,22.339,12.63,25.662c17.353,3.322,36.181-4.249,36.551-0.557
				c0.301,2.996,11.682,40.058,13.146,45.055C146.689,186.281,138.693,151.027,139.374,150.007z"/>
			<g style="opacity:0.5;">
				<path style="fill:#476A74;" d="M156.895,196.869c0.057-0.001,0.117-0.002,0.18-0.003
					C157.013,196.862,156.954,196.871,156.895,196.869z"/>
				<path style="fill:#476A74;" d="M157.934,196.821c1.983-0.147,4.289-0.654,6.781-1.84c0,0-10.446-47.461-12.713-55.632
					c0.018,0.101,11.597,53.21,10.758,54.61C162.038,195.159,160.039,196.542,157.934,196.821z"/>
			</g>
		</g>
	</g>
	<g>
		<path style="fill:#E4BB97;" d="M171.228,88.83c0,0,8.367-1.204,12.522,2.394c4.152,3.599,3.184,8.571,1.88,9.687
			c-1.3,1.115-2.786,1.209-3.437,0.28c-0.65-0.929,0.373-1.301,0.093-3.437c-0.279-2.14-2.508-4.276-3.903-2.605
			c-1.394,1.675-4.538,2.838-7.436,2.789L171.228,88.83z"/>
		<path style="opacity:0.5;fill:#E4BB97;" d="M178.383,95.15c1.395-1.671,3.625,0.465,3.903,2.605
			c0.28,2.136-0.744,2.508-0.093,3.437c0.651,0.929,2.137,0.836,3.437-0.28c-1.664,0.778-2.085,0.859-2.165-0.147
			c-0.08-1.002,1.466-3.171-1.493-5.775c-1.749-1.538-3.972-1.546-6.587,0.168c-2.619,1.716-3.433-0.077-3.16-3.146
			c0.268-3.012,2.18-3.357,2.25-3.37c-1.891,0-3.249,0.19-3.249,0.19l-0.281,9.108C173.845,97.988,176.989,96.824,178.383,95.15z"/>
	</g>
	<path style="fill:#65270F;" d="M83.369,121.988c0,0,27.832,15.837,51.829,3.654c0,0,8.491-53.164-16.982-65.347
		c0,0-9.646-4.06-14.002-3.772C99.861,56.812,80.928,81.337,83.369,121.988z"/>
	<g>
		<path style="fill:#E4BB97;" d="M104.187,58.819c0,0,7.754,5.906,14.03,3.321V50.696h-13.928L104.187,58.819z"/>
		<path style="opacity:0.5;fill:#E4BB97;" d="M104.288,50.696l-0.056,4.491c5.013,1.83,13.984,2.25,13.984,2.25v-6.742H104.288z"/>
	</g>
	<path style="opacity:0.5;fill:#910E36;" d="M135.199,125.642c0,0,2.302-14.435,0.909-29.987c-1.758-1.977-3.105-3.991-3.287-5.641
		C132.265,85.03,122.005,69.6,122.005,69.6s-3.308-5.059-8.569-3.398c-5.261,1.662-14.122,7.475-11.076,16.334
		c3.047,8.863,9.969,14.124,15.23,20.492c5.259,6.368,14.674,8.861,13.292,11.63c-1.387,2.768-24.368-6.093-24.368-6.093
		s17.165,11.353,20.766,13.015c3.602,1.662-5.261,5.261-13.845,3.877c-8.573-1.382-32.099,1.759-29.243-25.868
		c-0.934,6.782-1.314,14.262-0.825,22.4C83.369,121.988,111.202,137.824,135.199,125.642z"/>
	<g>
		<path style="fill:#C9835E;" d="M169.878,103.042c-31.677,4.193-35.333,4.536-38.228,5.031
			c-5.002,0.858-14.679-11.252-20.682-18.119c-6.002-6.864-8.089-14.692-4.671-17.564c0,0,4.34-4.834,9.341-5.151
			c5.007-0.316,9.34,4.582,11.342,8.942c1.999,4.362,9.266,15.915,9.266,15.915l35.366-4.305
			C171.613,87.789,172.095,99.167,169.878,103.042z"/>
		<path style="opacity:0.5;fill:#E7AD42;" d="M165.839,102.213c-4.571,1.93-26.097,3.862-30.529,3.308
			c-4.428-0.554-6.368-1.663-7.475-6.091c0,0-5.538,1.938-9.691-4.154c-4.154-6.09-10.305-13.663-11.076-18.275
			c-0.77-4.611,3.921-8.924,11.93-9.199c-1.071-0.418-2.195-0.636-3.36-0.563c-5,0.317-9.341,5.151-9.341,5.151
			c-3.418,2.872-1.331,10.7,4.671,17.564c6.003,6.867,15.68,18.977,20.682,18.119c2.894-0.495,6.551-0.838,38.228-5.031
			c2.216-3.875,1.735-15.252,1.735-15.252S170.412,100.28,165.839,102.213z"/>
	</g>
</g>
<g>
	<g>
		<path style="fill:#E4BB97;" d="M141.765,29.243l-0.002-0.001c-3.376-9.063-4.887-21.976-23.014-20.287
			c-13.111,1.223-23.841,10.674-23.841,23.84c0,13.167,10.673,23.841,23.841,23.841c11.88,0,21.726-8.69,23.538-20.062
			c1.981,0.1,3.788,0.061,4.308-0.354C147.886,35.186,142.579,29.499,141.765,29.243z"/>
		<path style="fill:#4E2B07;" d="M98.346,45.137c0,0-0.462-8.158,5.781-6.142c7.011,2.265,12.93-6.038,12.93-6.038l-0.602,4.976
			c0,0,18.33-7.914,23.368-13.73c5.04-5.813-2.713-13.566-6.201-13.954c-3.49-0.388-21.184-5.143-31.4,6.201
			C92.006,27.796,92.418,35.012,98.346,45.137z"/>
	</g>
	<g>
		<g>
			<path style="fill:#C9835E;" d="M120.26,30.482c0,0,12.808-8.733,19.62-17.52c0,0,20.929-3.1,20.929-1.292
				C160.809,13.479,144.441,30.17,120.26,30.482z"/>
			<path style="opacity:0.5;fill:#910E36;" d="M160.809,11.67c-2.084,2.972-8.139,7.916-20.986,12.533
				c-12.845,4.619-9.223-0.715-9.223-0.715s-0.112-0.307-0.296-0.8c-5.27,4.536-10.044,7.793-10.044,7.793
				C144.441,30.17,160.809,13.479,160.809,11.67z"/>
		</g>
		<g>
			<g>
				<path style="fill:#C9835E;" d="M95.348,40.356c0,0,32.852-7.754,44.532-27.394c0,0-4.867-19.124-31.635-11.112
					C81.478,9.861,95.348,40.356,95.348,40.356z"/>
			</g>
			<path style="opacity:0.5;fill:#910E36;" d="M97.183,24.009c-1.11-15.421,8.348-21.184,8.499-21.275
				C82.4,11.881,95.348,40.356,95.348,40.356s32.852-7.754,44.532-27.394C125.592,30.6,98.301,39.556,97.183,24.009z"/>
		</g>
	</g>
</g>
<g>
	<path style="fill:#FFF0E5;" d="M41.026,113.212c-0.011,1.041,0.523,1.965,1.336,2.269c0.835,0.312,1.77,0.007,2.488-0.814
		c0.504-0.576,0.769-1.217,0.882-2.005c0.129-0.899,0.416-1.817,0.84-2.617c0.267-0.503,0.86-0.914,1.4-1.174
		c0.899-0.432,1.842-0.009,2.292,0.879c0.527,1.041,0.339,2.437-0.416,3.17c-0.472,0.458-1.034,0.637-1.667,0.517
		c-0.236-0.045-0.446-0.225-0.668-0.343c0.023-0.054,0.046-0.108,0.07-0.162c0.089-0.015,0.184-0.057,0.267-0.041
		c0.738,0.151,1.145,0.036,1.307-0.658c0.168-0.723,0.191-1.517,0.093-2.256c-0.095-0.713-0.723-0.863-1.268-0.381
		c-0.192,0.17-0.365,0.392-0.47,0.624c-0.596,1.319-0.753,2.699-0.322,4.084c0.577,1.854,2.424,2.244,3.709,0.803
		c0.616-0.691,0.98-1.468,0.975-2.465c-0.008-1.409,0.162-2.819,0.257-4.249c-0.33-0.298-1.162,0.133-1.189-0.736
		c0.479-0.028,1.063,0.107,1.355-0.125c0.301-0.24,0.283-0.852,0.468-1.273c0.176-0.4,0.408-0.784,0.669-1.135
		c0.109-0.146,0.356-0.188,0.707-0.358c-0.215,1.034-0.393,1.89-0.605,2.91c0.782-0.151,1.453-0.28,2.234-0.431
		c-0.379,1.25-1.469,0.922-2.32,1.155c-0.186,1.987-0.444,3.976-0.093,5.975c0.113,0.646,0.305,1.353,1.057,1.481
		c0.765,0.131,1.036-0.591,1.37-1.097c0.254-0.385,0.415-0.83,0.629-1.243c0.083-0.16,0.196-0.304,0.295-0.456
		c0.051,0.017,0.103,0.035,0.154,0.052c0,0.142,0.053,0.314-0.008,0.421c-0.534,0.945-1.01,1.937-1.658,2.798
		c-0.612,0.813-1.628,0.74-2.303-0.042c-0.221-0.256-0.393-0.564-0.544-0.869c-0.142-0.287-0.225-0.603-0.358-0.971
		c-0.805,1.197-1.545,2.455-3.197,2.393c-1.559-0.058-2.632-0.814-3.047-2.456c-0.311,0.387-0.539,0.713-0.81,0.999
		c-0.856,0.903-1.877,1.338-3.121,0.955c-1.174-0.363-1.867-1.207-2.082-2.388c-0.256-1.404-0.154-2.794,0.544-4.074
		c0.513-0.941,1.246-1.594,2.415-1.526c0.121,0.007,0.244,0.015,0.36,0.046c1.057,0.285,1.693,1.464,1.54,2.845
		c-0.127,1.151-0.903,1.917-2.016,1.966C42.075,113.231,41.574,113.212,41.026,113.212z M40.971,112.409
		c1.506,0.474,2.385-0.121,2.443-1.627c0.012-0.318,0.019-0.672-0.105-0.95c-0.144-0.324-0.412-0.79-0.666-0.816
		c-0.307-0.032-0.759,0.257-0.964,0.541C41.071,110.401,40.931,111.396,40.971,112.409z"/>
	<path style="fill:#FFF0E5;" d="M22.378,114.323c-0.054,0.211-0.066,0.324-0.111,0.422c-0.386,0.85-0.199,1.664,0.569,2.182
		c0.857,0.578,1.803,0.71,2.774,0.332c1.239-0.483,1.495-2.06,0.412-2.822c-0.87-0.612-1.839-1.092-2.79-1.58
		c-1.019-0.523-1.984-1.107-2.7-2.019c-1.946-2.479-1.11-6.38,1.751-8.119c1.129-0.686,2.336-1.086,3.696-0.828
		c1.511,0.286,2.467,1.17,2.86,2.631c0.428,1.592,0.192,3.105-0.785,4.448c-0.905,1.244-2.413,1.297-3.432,0.167
		c-1.291-1.432-0.79-4.301,0.914-5.216c0.065-0.035,0.15-0.034,0.354-0.076c-0.123,0.292-0.197,0.504-0.298,0.701
		c-0.569,1.111-0.68,2.276-0.412,3.482c0.052,0.233,0.153,0.463,0.272,0.672c0.238,0.419,0.546,0.785,1.086,0.743
		c0.532-0.041,0.736-0.473,0.872-0.9c0.465-1.46,0.562-2.947,0.101-4.421c-0.542-1.734-2.057-2.324-3.66-1.473
		c-2.039,1.082-3.289,4.328-2.477,6.499c0.486,1.299,1.558,2.029,2.717,2.654c0.569,0.307,1.156,0.585,1.711,0.916
		c1.639,0.978,2.192,2.059,1.77,3.396c-0.439,1.389-2.026,2.341-3.687,2.177c-1.028-0.102-1.993-0.387-2.686-1.229
		c-0.386-0.469-0.541-1.005-0.279-1.584C21.188,114.885,21.632,114.492,22.378,114.323z"/>
	<path style="fill:#FFF0E5;" d="M33.702,114.752c-0.248,0.407-0.423,0.75-0.65,1.055c-0.848,1.142-2.229,1.124-3.024-0.063
		c-0.253-0.378-0.459-0.825-0.55-1.268c-0.294-1.449-0.23-2.901,0.202-4.32c0.168-0.551,0.432-1.064,1.067-1.216
		c0.16-0.038,0.338,0,0.508,0.003c-0.006,0.154,0.025,0.321-0.024,0.46c-0.523,1.497-0.632,3.046-0.557,4.611
		c0.022,0.456,0.115,0.933,0.292,1.351c0.295,0.698,1.097,0.788,1.572,0.194c0.564-0.706,0.724-1.553,0.797-2.438
		c0.078-0.942,0.192-1.886,0.375-2.812c0.105-0.533,0.459-0.933,1.071-1.019c0.389-0.055,0.485,0.08,0.379,0.435
		c-0.449,1.497-0.464,3.034-0.377,4.573c0.024,0.417,0.089,0.873,0.287,1.226c0.175,0.312,0.542,0.666,0.858,0.702
		c0.273,0.031,0.697-0.295,0.875-0.577c0.707-1.113,0.853-2.396,0.863-3.675c0.006-0.801-0.143-1.607-0.255-2.405
		c-0.09-0.639,0.398-1.311,1.023-1.296c0.131,0.003,0.318,0.17,0.374,0.306c0.099,0.237,0.147,0.507,0.164,0.766
		c0.121,1.815,0,3.609-0.679,5.312c-0.227,0.57-0.569,1.131-0.983,1.581c-1.005,1.09-2.483,0.851-3.168-0.462
		C33.986,115.474,33.873,115.152,33.702,114.752z"/>
</g>
<g>
	<path style="fill:#FFF0E5;" d="M33.493,121.636c-0.18,0.34-0.301,0.564-0.418,0.79c-0.46,0.897-0.606,1.84-0.396,2.828
		c0.103,0.485,0.361,0.854,0.87,0.992c0.556,0.151,0.988-0.054,1.346-0.47c1.102-1.281,1.12-4.434,0.032-5.725
		c-0.866-1.028-2.481-1.153-3.757-0.292c-0.894,0.604-1.445,1.473-1.805,2.456c-0.911,2.488-1.156,5.06-0.636,7.65
		c0.394,1.959,1.392,3.539,3.446,4.187c1.269,0.4,2.442,0.181,3.496-0.613c1.013-0.763,1.711-1.781,2.167-2.948
		c0.13-0.334,0.068-0.754,0.05-1.132c-0.125-2.491-0.225-4.984,0.41-7.428c0.16-0.617,0.44-1.218,0.758-1.773
		c0.269-0.469,0.732-0.788,1.321-0.684c0.644,0.114,0.862,0.64,0.944,1.201c0.235,1.621-0.085,3.194-0.555,4.727
		c-0.355,1.157-0.809,2.288-1.288,3.401c-0.218,0.506-0.363,0.984-0.216,1.515c0.269,0.97,0.461,1.977,0.866,2.888
		c0.27,0.608,0.854,1.077,1.287,1.596c-1.081,0.421-2.274-0.847-3.314-3.645c-0.202,0.348-0.369,0.66-0.558,0.957
		c-1.192,1.871-2.746,3.172-5.115,2.952c-2.844-0.265-4.751-1.949-5.319-4.765c-0.588-2.917-0.32-5.777,1.074-8.449
		c0.871-1.67,2.171-2.844,4.112-3.185c2.257-0.397,4.208,0.922,4.59,3.175c0.201,1.187,0.08,2.345-0.525,3.415
		c-0.674,1.191-1.827,1.73-3.109,1.467c-1.089-0.224-1.727-0.955-1.802-2.062C31.364,123.366,32.287,121.892,33.493,121.636z
		 M39.148,128.368c0.078-0.117,0.129-0.173,0.156-0.238c0.716-1.744,1.31-3.527,1.526-5.407c0.077-0.676,0.046-1.37,0.006-2.052
		c-0.01-0.17-0.227-0.43-0.384-0.46c-0.153-0.029-0.423,0.142-0.516,0.3c-0.182,0.308-0.318,0.657-0.402,1.006
		c-0.52,2.163-0.512,4.367-0.478,6.572C39.056,128.16,39.101,128.231,39.148,128.368z"/>
	<path style="fill:#FFF0E5;" d="M61.307,125.789c0.154-1.247,0.264-2.476,0.474-3.687c0.091-0.523,0.348-1.033,0.606-1.507
		c0.254-0.466,0.714-0.678,1.242-0.535c0.501,0.136,0.818,0.542,0.784,1.036c-0.09,1.327-0.156,2.67-0.422,3.967
		c-0.288,1.401-0.792,2.757-1.202,4.132c-0.312,1.044-0.022,2.006,0.482,2.897c0.275,0.485,0.84,0.488,1.226,0.001
		c0.41-0.517,0.708-1.123,1.056-1.689c0.115-0.187,0.235-0.371,0.353-0.557c0.06,0.023,0.12,0.047,0.18,0.07
		c-0.02,0.158,0.005,0.341-0.066,0.471c-0.433,0.795-0.808,1.638-1.353,2.351c-0.759,0.994-1.838,0.834-2.434-0.279
		c-0.161-0.301-0.274-0.628-0.443-1.022c-0.251,0.356-0.465,0.683-0.704,0.992c-1.203,1.556-2.735,1.381-3.575-0.404
		c-0.067-0.143-0.132-0.288-0.236-0.516c-0.18,0.262-0.307,0.482-0.469,0.673c-0.287,0.338-0.556,0.708-0.901,0.976
		c-0.914,0.708-1.884,0.513-2.466-0.482c-0.21-0.359-0.332-0.77-0.507-1.19c-0.236,0.368-0.437,0.742-0.695,1.072
		c-0.926,1.186-2.502,1.067-3.094-0.311c-0.834-1.94-0.687-3.908,0.178-5.824c0.065-0.143,0.166-0.305,0.295-0.377
		c0.268-0.149,0.566-0.244,0.852-0.361c-0.026,0.261-0.009,0.536-0.084,0.782c-0.454,1.497-0.513,3.025-0.414,4.57
		c0.004,0.06,0.015,0.121,0.031,0.179c0.157,0.591,0.282,1.229,1.023,1.355c0.751,0.127,1.07-0.482,1.279-0.991
		c0.317-0.77,0.517-1.599,0.681-2.42c0.205-1.026,0.269-2.082,0.509-3.098c0.091-0.384,0.482-0.712,0.78-1.024
		c0.095-0.099,0.333-0.063,0.505-0.088c0.017,0.17,0.083,0.351,0.045,0.507c-0.388,1.583-0.583,3.187-0.492,4.815
		c0.033,0.582,0.093,1.176,0.251,1.733c0.218,0.77,0.888,0.939,1.433,0.365c0.644-0.678,1.161-1.406,1.089-2.461
		c-0.091-1.329,0.259-2.575,1.173-3.6C59.217,125.259,60.15,125.11,61.307,125.789z M61.428,127.981
		c-0.669-0.018-0.741-0.132-0.514-0.77c0.153-0.432,0.19-0.867-0.235-1.146c-0.444-0.292-0.884-0.122-1.187,0.251
		c-0.263,0.324-0.498,0.698-0.639,1.089c-0.459,1.275-0.456,2.589-0.107,3.884c0.104,0.387,0.374,0.771,0.668,1.049
		c0.169,0.16,0.636,0.242,0.804,0.124c0.752-0.529,1.248-1.315,1.366-2.203C61.68,129.534,61.493,128.772,61.428,127.981z
		 M62.502,127.658c0.095,0.015,0.19,0.031,0.284,0.046c0.342-1.654,0.706-3.304,1.013-4.965c0.098-0.53,0.07-1.088,0.044-1.631
		c-0.007-0.156-0.191-0.4-0.327-0.426c-0.136-0.026-0.337,0.148-0.468,0.277c-0.092,0.091-0.133,0.25-0.164,0.386
		C62.418,123.432,62.504,125.548,62.502,127.658z"/>
	<path style="fill:#FFF0E5;" d="M47.637,129.581c-0.2,0.667-0.367,1.589-0.748,2.412c-0.523,1.129-1.711,1.668-2.92,1.514
		c-1.156-0.147-2.004-0.93-2.318-2.176c-0.252-1.002-0.257-1.999,0.148-2.974c0.067-0.161,0.127-0.35,0.107-0.516
		c-0.163-1.316,0.524-2.268,1.867-2.559c1.719-0.372,3.006,0.367,3.486,2.066C47.439,127.981,47.486,128.654,47.637,129.581z
		 M42.751,128.697c-0.046,1.117-0.091,2.186,0.365,3.197c0.252,0.558,0.677,0.894,1.312,0.912c0.638,0.018,1.126-0.288,1.354-0.846
		c0.696-1.703,0.781-3.452,0.183-5.203c-0.207-0.607-0.689-0.945-1.34-0.959c-0.68-0.015-1.149,0.358-1.438,0.938
		c-0.273,0.55-0.248,1.092,0.187,1.576c0.07,0.078,0.098,0.194,0.164,0.334C43.264,128.664,43.047,128.678,42.751,128.697z"/>
</g>
<path style="fill:#FFF0E5;" d="M44.199,102.184c0.253-0.996-1.237-1.402-1.533-0.423c-0.095,0.316-0.238,0.611-0.383,0.906
	c-0.183-0.147-0.352-0.304-0.459-0.494c-0.511-0.725-1.654-0.092-1.206,0.705c0.36,0.64,1.014,0.875,1.484,1.393
	c0.315,0.347,0.882,0.229,1.113-0.143c0.04-0.065,0.081-0.129,0.121-0.193c0.057-0.053,0.11-0.116,0.154-0.195
	c0.178-0.316,0.351-0.628,0.494-0.955c0.017-0.039,0.035-0.077,0.051-0.117C44.099,102.511,44.156,102.351,44.199,102.184z"/>
</svg>
