<svg xmlns="http://www.w3.org/2000/svg" viewBox="0 0 32 32"><path d="M16 .5C7.44.5.5 7.44.5 16c0 8.56 6.94 15.5 15.5 15.5 8.56 0 15.5-6.94 15.5-15.5C31.5 7.44 24.56.5 16 .5zm8.88 22.298l-2.717.038s-.584.116-1.353-.413c-1.017-.698-1.975-2.512-2.723-2.275-.758.24-.734 1.873-.734 1.873s.005.348-.168.534c-.187.202-.554.243-.554.243h-1.217s-2.685.162-5.049-2.3c-2.578-2.684-4.854-8.01-4.854-8.01s-.131-.35.011-.518c.161-.19.597-.202.597-.202l2.907-.019s.274.046.471.19c.162.119.252.34.252.34s.47 1.188 1.091 2.264c1.216 2.099 1.781 2.56 2.194 2.334.602-.328.421-2.968.421-2.968s.011-.958-.302-1.384c-.243-.331-.702-.428-.904-.455-.163-.021.105-.402.453-.572.524-.256 1.447-.271 2.54-.259.85.008 1.096.061 1.427.142 1.003.241.662 1.176.662 3.419 0 .718-.13 1.728.389 2.064.223.143.768.022 2.13-2.294.646-1.095 1.131-2.385 1.131-2.385s.105-.231.27-.329c.169-.1.395-.069.395-.069l3.061-.019s.919-.111 1.068.305c.155.436-.344 1.453-1.595 3.119-2.053 2.736-2.281 2.481-.577 4.062 1.628 1.511 1.966 2.246 2.021 2.338.678 1.119-.744 1.206-.744 1.206z" fill="#fff"/></svg>