<svg xmlns="http://www.w3.org/2000/svg" viewBox="0 0 32 32"><g fill="#fff"><path d="M20.621 8.748h-9.24a2.677 2.677 0 0 0-2.675 2.675v9.238a2.678 2.678 0 0 0 2.675 2.676h9.24a2.68 2.68 0 0 0 2.675-2.676v-9.238a2.679 2.679 0 0 0-2.675-2.675zM16 20.845a4.81 4.81 0 0 1-4.803-4.803A4.81 4.81 0 0 1 16 11.239a4.808 4.808 0 0 1 4.803 4.803A4.809 4.809 0 0 1 16 20.845zm4.958-8.613a1.137 1.137 0 0 1 0-2.273 1.14 1.14 0 0 1 1.137 1.137c0 .627-.511 1.136-1.137 1.136zm0 0"/><path d="M16 13.27a2.776 2.776 0 0 0-2.773 2.773A2.777 2.777 0 0 0 16 18.817a2.777 2.777 0 0 0 2.774-2.774A2.777 2.777 0 0 0 16 13.27zm0 0"/><path d="M16 .5C7.44.5.5 7.44.5 16c0 8.56 6.94 15.5 15.5 15.5S31.5 24.56 31.5 16C31.5 7.44 24.56.5 16 .5zm9.324 20.161a4.709 4.709 0 0 1-4.704 4.705h-9.24a4.71 4.71 0 0 1-4.705-4.705v-9.238a4.711 4.711 0 0 1 4.705-4.705h9.24a4.71 4.71 0 0 1 4.704 4.705v9.238zm0 0"/></g></svg>