<?xml version="1.0" encoding="iso-8859-1"?>
<!-- Generator: Adobe Illustrator 22.0.1, SVG Export Plug-In . SVG Version: 6.00 Build 0)  -->
<svg version="1.1" id="Layer_1" xmlns="http://www.w3.org/2000/svg" xmlns:xlink="http://www.w3.org/1999/xlink" x="0px" y="0px"
	 viewBox="167 357 80 80" style="enable-background:new 167 357 80 80;" xml:space="preserve">
<path style="fill:#F2D0CD;" d="M241.5,381.971c0-4.998-6.943-9.234-18.617-11.394c-0.179-0.725-0.243-1.488-0.181-2.261
	c0.156-1.931-0.446-3.788-1.652-5.095c-1.135-1.23-2.709-1.881-4.553-1.881c-1.173,0-2.322,0.594-3.414,1.765
	c-0.463,0.496-0.435,1.273,0.061,1.736c0.496,0.463,1.273,0.435,1.736-0.061c0.419-0.449,1.039-0.984,1.618-0.984
	c1.156,0,2.08,0.367,2.748,1.09c0.731,0.793,1.109,2.001,1.009,3.232c-0.186,2.305,0.458,4.559,1.812,6.348
	c1.136,1.499,1.299,3.36,0.488,5.539h-8.431v-1.763l4.597-2.477c0.597-0.322,0.82-1.067,0.499-1.664s-1.066-0.82-1.664-0.499
	l-3.838,2.068c-0.578-1.245-1.723-2.175-3.102-2.455c0.807-2.298,1.627-4.228,2.445-5.749c0.321-0.597,0.097-1.342-0.5-1.663
	c-0.598-0.321-1.342-0.097-1.663,0.5c-0.464,0.863-0.926,1.842-1.385,2.93c-0.839-0.021-1.68-0.036-2.511-0.036
	c-0.831,0-1.671,0.014-2.51,0.036c-2.229-5.3-4.531-7.895-6.988-7.895c-1.844,0-3.418,0.65-4.553,1.881
	c-1.206,1.307-1.808,3.164-1.652,5.095c0.062,0.773-0.002,1.536-0.181,2.261c-11.666,2.158-18.607,6.39-18.616,11.384
	c0,0.004,0,0.007,0,0.011v10.868c0,2.104,1.252,4.096,3.619,5.859v5.062c0,0.678,0.55,1.228,1.228,1.228s1.228-0.55,1.228-1.228
	v-3.523c1.303,0.694,2.805,1.338,4.495,1.925c6.41,2.224,14.908,3.449,23.929,3.449c8.021,0,15.808-0.997,21.925-2.806
	c0.65-0.192,1.022-0.876,0.829-1.526c-0.192-0.65-0.875-1.021-1.526-0.829c-5.898,1.745-13.437,2.706-21.228,2.706
	c-8.754,0-16.966-1.177-23.124-3.313c-5.585-1.938-8.92-4.555-8.92-7.002v-5.977c1.79,1.679,4.528,3.186,8.115,4.431
	c6.411,2.224,14.909,3.449,23.929,3.449s17.518-1.225,23.929-3.449c3.587-1.244,6.324-2.751,8.114-4.43v5.976
	c0,1.403-1.056,2.844-3.031,4.194c-0.031,0.019-0.061,0.039-0.09,0.061c-0.843,0.567-1.848,1.118-3.006,1.642
	c-0.618,0.28-0.892,1.007-0.612,1.625c0.205,0.454,0.652,0.722,1.12,0.722c0.169,0,0.341-0.035,0.506-0.11
	c0.526-0.238,1.023-0.483,1.496-0.733v20.903c0,4.285-11.674,9.06-28.425,9.06s-28.425-4.775-28.425-9.06v-13.29
	c0-0.678-0.55-1.228-1.228-1.228s-1.228,0.55-1.228,1.228v13.29c0,3.311,3.378,6.307,9.511,8.435
	c5.727,1.987,13.316,3.081,21.371,3.081c8.054,0,15.643-1.094,21.37-3.081c6.133-2.128,9.511-5.123,9.511-8.435v-22.431
	c2.381-1.766,3.618-3.757,3.618-5.874v-10.849C241.5,381.984,241.5,381.978,241.5,381.971z M211.666,377.506
	c0,0.002,0,0.004,0,0.006v2.494h-9.333v-2.496c0-1.061,0.863-1.925,1.925-1.925h0.821c0.003,0,0.005,0,0.008,0h3.841
	c0.001,0,0.003,0,0.004,0s0.003,0,0.004,0h0.806C210.802,375.586,211.664,376.447,211.666,377.506z M207,371.655
	c0.517,0,1.038,0.005,1.56,0.014c-0.172,0.471-0.343,0.959-0.513,1.461h-2.093c-0.17-0.503-0.341-0.99-0.512-1.461
	C205.963,371.66,206.484,371.655,207,371.655z M193.746,368.118c-0.099-1.231,0.278-2.439,1.009-3.232
	c0.667-0.723,1.592-1.09,2.748-1.09c0.412,0,1.55,0.319,3.219,3.275c0.89,1.576,1.784,3.64,2.663,6.146
	c-1.318,0.268-2.423,1.13-3.022,2.293l-3.918-2.111c-0.597-0.322-1.342-0.099-1.664,0.499c-0.322,0.597-0.099,1.342,0.499,1.664
	l4.597,2.477v1.968h-8.431c-0.811-2.179-0.648-4.04,0.488-5.54C193.288,372.678,193.932,370.424,193.746,368.118z M236.878,385.514
	c-1.541,1.264-3.877,2.46-6.754,3.459c-6.158,2.137-14.371,3.314-23.124,3.314c-8.753,0-16.965-1.177-23.124-3.314
	c-2.877-0.998-5.213-2.194-6.754-3.459c-1.437-1.179-2.166-2.371-2.166-3.543c0-3.329,5.825-6.675,14.749-8.606
	c-1.143,1.716-1.972,4.475-0.198,8.378c0.199,0.438,0.636,0.72,1.118,0.72h10.479h11.789h10.479c0.481,0,0.919-0.281,1.118-0.72
	c1.774-3.903,0.945-6.662-0.198-8.378c8.918,1.929,14.741,5.271,14.75,8.598c0,0.003,0,0.005,0,0.008v0.016
	C239.037,383.155,238.309,384.341,236.878,385.514z"/>
</svg>
