<?xml version="1.0" encoding="iso-8859-1"?>
<!-- Generator: Adobe Illustrator 22.0.1, SVG Export Plug-In . SVG Version: 6.00 Build 0)  -->
<svg version="1.1" id="&#x421;&#x43B;&#x43E;&#x439;_1"
	 xmlns="http://www.w3.org/2000/svg" xmlns:xlink="http://www.w3.org/1999/xlink" x="0px" y="0px" viewBox="0 0 30 30"
	 style="enable-background:new 0 0 30 30;" xml:space="preserve">
<path style="fill:#D97A8B;" d="M29.473,5.315c-0.066-0.738-0.156-1.469-0.601-2.098C28.135,1.921,27,1.13,25.619,0.652
	c-1.202-0.336-2.434-0.183-3.654-0.209c-1.231-0.025-2.463-0.019-3.695-0.002c-1.243-0.023-2.487-0.02-3.731,0
	c-1.242-0.022-2.484-0.02-3.727,0c-1.218-0.019-2.437-0.02-3.655,0.003C5.893,0.419,4.636,0.43,3.491,1.087
	C2.483,1.633,1.722,2.426,1.154,3.413C1.027,3.608,0.95,3.826,0.863,4.041C0.465,5.026,0.516,6.062,0.517,7.092
	C0.495,8.311,0.499,9.53,0.516,10.749c-0.023,1.242-0.02,2.485,0,3.727c-0.022,1.243-0.02,2.487,0,3.731
	c-0.02,1.232-0.021,2.464,0.002,3.696c0.043,1.228-0.165,2.472,0.23,3.678c0.18,0.57,0.428,1.107,0.76,1.603
	c1.192,1.657,2.815,2.398,4.848,2.391c5.843-0.021,11.685-0.016,17.528-0.003c1.993,0.004,3.58-0.752,4.749-2.372
	c0.305-0.471,0.574-0.959,0.718-1.506c-0.003-0.185,0.114-0.361,0.038-0.551c0.165-1.064,0.051-2.137,0.111-3.205
	c0-1.244,0-2.488,0-3.731c0-1.246,0-2.492,0-3.737c0-1.244,0-2.488,0-3.731c0-1.246,0-2.492,0-3.737
	C29.491,6.438,29.482,5.877,29.473,5.315z M27.674,23.74c-0.001,2.382-1.475,3.865-3.852,3.868c-5.83,0.006-11.661,0.006-17.491,0
	c-2.379-0.002-3.848-1.483-3.849-3.869c-0.003-5.83-0.004-11.661,0-17.491c0.002-2.343,1.488-3.83,3.824-3.834
	c2.933-0.005,5.866-0.001,8.799-0.001c2.897,0,5.795-0.002,8.692,0.001c2.404,0.002,3.876,1.475,3.878,3.889
	C27.678,12.115,27.678,17.928,27.674,23.74z"/>
<path style="fill:#D97A8B;" d="M11.539,9.778c-0.09,0.144-0.064,0.308-0.082,0.465c-0.059,0.509-0.39,0.828-0.865,0.838
	c-0.479,0.01-0.88-0.331-0.903-0.858c-0.031-0.714,0.1-1.413,0.379-2.076c0.989-2.351,3.455-3.693,5.969-3.253
	c2.492,0.436,4.332,2.561,4.437,5.126c0.024,0.585-0.307,1.014-0.814,1.056c-0.534,0.044-0.892-0.29-0.966-0.895
	c-0.013-0.103-0.045-0.204-0.069-0.306c-0.149-0.08-0.141-0.233-0.172-0.368c-0.38-1.63-1.681-2.762-3.325-2.765
	c-1.562-0.003-2.976,0.957-3.4,2.613C11.69,9.506,11.693,9.678,11.539,9.778z"/>
</svg>
