<?xml version="1.0" encoding="iso-8859-1"?>
<!-- Generator: Adobe Illustrator 22.0.1, SVG Export Plug-In . SVG Version: 6.00 Build 0)  -->
<svg version="1.1" id="&#x421;&#x43B;&#x43E;&#x439;_1"
	 xmlns="http://www.w3.org/2000/svg" xmlns:xlink="http://www.w3.org/1999/xlink" x="0px" y="0px" viewBox="0 0 108 108"
	 style="enable-background:new 0 0 108 108;" xml:space="preserve">
<g>
	<path style="fill:#EFCFCB;" d="M64.208,69.122c-3.093,0-6.186,0.001-9.279-0.001c-1.684-0.001-2.592-0.657-2.98-2.284
		c-0.565-2.372-1.082-4.756-1.585-7.143c-0.119-0.563-0.343-0.975-0.81-1.336c-3.378-2.613-4.495-7.147-2.592-10.775
		c1.076-2.052,2.815-3.34,5.118-3.783c0.469-0.09,0.759-0.24,0.924-0.745c0.75-2.297,2.422-3.592,4.714-4.146
		c0.424-0.103,0.773-0.206,0.87-0.701c0.276-1.409,1.227-2.317,2.34-3.097c0.444-0.311,0.909-0.595,1.343-0.919
		c0.594-0.444,0.932-1.026,0.959-1.795c0.041-1.172,0.353-1.395,1.53-1.068c1.511,0.42,2.872,1.159,4.06,2.171
		c2.047,1.745,3.614,3.825,4.207,6.511c0.125,0.565,0.509,0.707,0.961,0.85c2.38,0.749,4.427,2.027,6.108,3.877
		c3.372,3.711,3.016,8.638-0.877,11.801c-0.47,0.382-0.628,0.873-0.745,1.397c-0.623,2.804-1.23,5.612-1.841,8.419
		c-0.145,0.663-0.275,1.331-0.738,1.87c-0.549,0.638-1.237,0.914-2.083,0.909c-3.201-0.016-6.403-0.007-9.604-0.007
		C64.208,69.126,64.208,69.124,64.208,69.122z M65.43,49.999c0.676,0.032,1.355,0.042,2.028,0.103
		c0.507,0.046,0.901,0.319,0.918,0.863c0.018,0.588-0.384,0.816-0.925,0.939c-0.901,0.205-1.783-0.019-2.673-0.03
		c-2.377-0.029-4.702-0.414-6.934-1.218c-2.009-0.723-3.783-1.784-4.618-3.928c-0.533-1.369-0.606-1.388-1.993-0.808
		c-0.125,0.052-0.245,0.116-0.364,0.182c-2.659,1.465-3.295,3.901-2.743,6.858c0.565,3.024,2.775,4.557,5.516,5.387
		c3.059,0.926,6.201,0.942,9.343,0.496c3.055-0.433,5.749-1.689,8.142-3.635c1.079-0.878,2.263-1.619,3.656-1.881
		c1.216-0.229,2.459-0.193,3.246,0.922c0.43,0.609,0.635,0.427,1.017,0.062c1.672-1.6,1.932-4.87,0.593-7.022
		c-1.609-2.586-3.958-4.129-6.852-4.857c-0.91-0.229-1.263-0.678-1.432-1.565c-0.658-3.446-2.836-5.696-5.887-7.211
		c-0.227-0.113-0.503-0.236-0.623,0.085c-0.542,1.462-1.803,2.191-2.998,2.986c-0.993,0.66-1.627,1.502-1.519,2.763
		c0.064,0.748-0.308,1.024-1.029,0.972c-0.928-0.068-1.767,0.261-2.554,0.704c-2.959,1.667-2.999,5.121-0.089,6.855
		C59.363,49.634,62.39,49.86,65.43,49.999z M65.4,62.494c0.005,0,0.011,0,0.016,0c0,0.623,0.027,1.249-0.009,1.87
		c-0.029,0.5-0.344,0.796-0.85,0.808c-0.474,0.012-0.78-0.268-0.846-0.72c-0.139-0.963-0.235-1.933-0.225-2.909
		c0.004-0.381,0.188-0.855-0.521-0.831c-1.211,0.041-1.379,0.128-1.302,0.905c0.084,0.835,0.231,1.665,0.294,2.501
		c0.041,0.551-0.253,0.956-0.813,1.051c-0.597,0.102-0.931-0.262-1.028-0.8c-0.134-0.744-0.268-1.498-0.29-2.252
		c-0.035-1.21-0.055-1.13-1.389-1.154c-0.635-0.011-0.742,0.284-0.604,0.817c0.176,0.682,0.328,1.37,0.502,2.053
		c0.159,0.62-0.014,1.12-0.634,1.299c-0.681,0.197-0.991-0.29-1.149-0.855c-0.189-0.678-0.391-1.361-0.484-2.055
		c-0.151-1.134-0.631-1.831-1.88-1.845c-0.392-0.004-0.788-0.186-1.171-0.32c-0.521-0.182-0.717-0.043-0.59,0.512
		c0.433,1.901,0.87,3.801,1.285,5.707c0.159,0.731,0.563,1.021,1.316,1.018c6.128-0.022,12.256-0.026,18.384-0.014
		c0.74,0.001,1.15-0.233,1.308-0.999c0.423-2.042,0.915-4.07,1.354-6.109c0.29-1.348,0.684-2.677,0.651-4.084
		c-0.016-0.697-0.323-0.968-0.988-0.988c-0.768-0.024-1.421,0.304-2.09,0.597c-0.48,0.21-0.826,0.442-0.268,0.976
		c0.273,0.261,0.201,0.667,0.155,1.014c-0.282,2.148-0.576,4.294-0.872,6.44c-0.026,0.186-0.067,0.38-0.148,0.547
		c-0.207,0.429-0.537,0.69-1.041,0.579c-0.468-0.103-0.68-0.44-0.658-0.897c0.029-0.595,0.074-1.19,0.154-1.78
		c0.209-1.557,0.449-3.11,0.652-4.668c0.028-0.212,0.219-0.78-0.351-0.474c-1.066,0.572-2.107,1.129-2.01,2.701
		c0.081,1.311-0.164,2.642-0.266,3.964c-0.047,0.607-0.294,1.101-0.97,1.064c-0.662-0.037-0.882-0.545-0.886-1.153
		c-0.002-0.244-0.004-0.489,0.017-0.732c0.084-0.998,0.186-1.995,0.262-2.994c0.023-0.301,0.03-0.608-0.465-0.532
		c-1.281,0.197-1.555,0.489-1.554,1.764C65.4,61.844,65.4,62.169,65.4,62.494z"/>
</g>
<path style="fill:#EFCFCB;" d="M6.966,82.796c-1.528,0-2.771-1.243-2.771-2.771V7.358c0-1.528,1.243-2.771,2.771-2.771h72.667
	c1.528,0,2.771,1.243,2.771,2.771v3.696h3.695V7.358c0-3.565-2.901-6.466-6.466-6.466H6.966C3.401,0.892,0.5,3.792,0.5,7.358v72.667
	c0,3.565,2.901,6.466,6.466,6.466h4.157v-3.695H6.966z"/>
<path style="fill:#EFCFCB;" d="M17.59,14.748h64.815v-3.695H17.59c-3.565,0-6.466,2.901-6.466,6.466v65.277h3.695V17.519
	C14.819,15.991,16.062,14.748,17.59,14.748z"/>
<rect x="82.404" y="11.053" style="fill:#EFCFCB;" width="3.695" height="3.695"/>
<rect x="11.124" y="82.796" style="fill:#EFCFCB;" width="3.695" height="3.695"/>
<path style="fill:#EFCFCB;" d="M17.59,92.958c-1.528,0-2.771-1.243-2.771-2.771v-3.696h-3.695v3.696
	c0,3.565,2.901,6.466,6.466,6.466h4.311v-3.695H17.59z"/>
<path style="fill:#EFCFCB;" d="M96.723,17.519c0-3.565-2.901-6.466-6.466-6.466h-4.157v3.695h4.157c1.528,0,2.771,1.243,2.771,2.771
	v3.99h3.695V17.519z"/>
<path style="fill:#EFCFCB;" d="M25.596,27.975c0-1.528,1.243-2.771,2.771-2.771h64.661v-3.695H28.367
	c-3.565,0-6.466,2.901-6.466,6.466v64.983h3.695V27.975z"/>
<path style="fill:#EFCFCB;" d="M101.034,21.509h-4.311v3.695h4.311c1.528,0,2.771,1.243,2.771,2.771v72.667
	c0,1.528-1.243,2.771-2.771,2.771H28.367c-1.528,0-2.771-1.243-2.771-2.771v-3.99h-3.695v3.99c0,3.565,2.901,6.466,6.466,6.466
	h72.667c3.565,0,6.466-2.901,6.466-6.466V27.975C107.5,24.41,104.599,21.509,101.034,21.509z"/>
<rect x="21.901" y="92.958" style="fill:#EFCFCB;" width="3.695" height="3.695"/>
<rect x="93.028" y="21.509" style="fill:#EFCFCB;" width="3.695" height="3.695"/>
<path style="fill:#EFCFCB;" d="M57.429,78.382H36.222c-0.599,0-1.089-0.49-1.089-1.089l0,0c0-0.599,0.49-1.089,1.089-1.089h21.207
	c0.599,0,1.089,0.49,1.089,1.089l0,0C58.517,77.892,58.027,78.382,57.429,78.382z"/>
<path style="fill:#EFCFCB;" d="M95.635,78.382H61.523c-0.599,0-1.089-0.49-1.089-1.089l0,0c0-0.599,0.49-1.089,1.089-1.089h34.112
	c0.599,0,1.089,0.49,1.089,1.089l0,0C96.723,77.892,96.233,78.382,95.635,78.382z"/>
<path style="fill:#EFCFCB;" d="M95.635,86.408H68.818c-0.599,0-1.089-0.49-1.089-1.089l0,0c0-0.599,0.49-1.089,1.089-1.089h26.817
	c0.599,0,1.089,0.49,1.089,1.089l0,0C96.723,85.919,96.233,86.408,95.635,86.408z"/>
<path style="fill:#EFCFCB;" d="M64.84,86.408H36.222c-0.599,0-1.089-0.49-1.089-1.089l0,0c0-0.599,0.49-1.089,1.089-1.089H64.84
	c0.599,0,1.089,0.49,1.089,1.089l0,0C65.928,85.919,65.438,86.408,64.84,86.408z"/>
<path style="fill:#EFCFCB;" d="M45.737,94.192h-9.515c-0.599,0-1.089-0.49-1.089-1.089v0c0-0.599,0.49-1.089,1.089-1.089h9.515
	c0.599,0,1.089,0.49,1.089,1.089v0C46.825,93.702,46.336,94.192,45.737,94.192z"/>
<path style="fill:#EFCFCB;" d="M95.635,94.192h-46.1c-0.599,0-1.089-0.49-1.089-1.089v0c0-0.599,0.49-1.089,1.089-1.089h46.1
	c0.599,0,1.089,0.49,1.089,1.089v0C96.723,93.702,96.233,94.192,95.635,94.192z"/>
</svg>
