<?xml version="1.0" encoding="iso-8859-1"?>
<!-- Generator: Adobe Illustrator 22.0.1, SVG Export Plug-In . SVG Version: 6.00 Build 0)  -->
<svg version="1.1" id="&#x421;&#x43B;&#x43E;&#x439;_1"
	 xmlns="http://www.w3.org/2000/svg" xmlns:xlink="http://www.w3.org/1999/xlink" x="0px" y="0px" viewBox="0 0 108 108"
	 style="enable-background:new 0 0 108 108;" xml:space="preserve">
<path style="fill:#EFCFCB;" d="M14.217,68.586c-0.251-0.11-0.512-0.167-0.773-0.167c-0.724,0-1.367,0.421-1.72,1.127
	c-0.432,0.864-0.538,1.916,1.947,3.169l0.813,0.41l0.408-0.952C15.958,69.691,15.017,68.937,14.217,68.586z"/>
<path style="fill:#EFCFCB;" d="M13.464,53.935c1.412-0.003,2.473,1.02,2.504,2.416c0.031,1.381-1.202,2.609-2.573,2.562
	c-1.306-0.046-2.437-1.237-2.43-2.56C10.972,54.963,12.03,53.939,13.464,53.935z"/>
<path style="fill:#EFCFCB;" d="M13.969,68.284c1.412-0.003,2.473,1.02,2.504,2.416c0.031,1.381-1.202,2.609-2.573,2.562
	c-1.306-0.046-2.437-1.237-2.43-2.56C11.477,69.311,12.535,68.287,13.969,68.284z"/>
<path style="fill:#EFCFCB;" d="M40.413,67.972c1.412-0.003,2.473,1.02,2.504,2.416c0.031,1.381-1.202,2.609-2.573,2.562
	c-1.306-0.046-2.437-1.237-2.43-2.56C37.921,68.999,38.98,67.976,40.413,67.972z"/>
<path style="fill:#EFCFCB;" d="M47.413,60.847c1.412-0.003,2.473,1.02,2.504,2.416c0.031,1.381-1.202,2.609-2.573,2.562
	c-1.306-0.046-2.437-1.237-2.43-2.56C44.921,61.874,45.98,60.851,47.413,60.847z"/>
<path style="fill:#EFCFCB;" d="M47.413,46.868c1.412-0.003,2.473,1.02,2.504,2.416c0.031,1.381-1.202,2.609-2.573,2.562
	c-1.306-0.046-2.437-1.237-2.43-2.56C44.921,47.896,45.98,46.872,47.413,46.868z"/>
<path style="fill:#EFCFCB;" d="M47.413,32.874c1.412-0.003,2.473,1.02,2.504,2.416c0.031,1.381-1.202,2.609-2.573,2.562
	c-1.306-0.046-2.437-1.237-2.43-2.56C44.921,33.901,45.98,32.878,47.413,32.874z"/>
<path style="fill:#EFCFCB;" d="M47.413,18.878c1.412-0.003,2.473,1.02,2.504,2.416c0.031,1.381-1.202,2.609-2.573,2.562
	c-1.306-0.046-2.437-1.237-2.43-2.56C44.921,19.905,45.98,18.882,47.413,18.878z"/>
<path style="fill:#EFCFCB;" d="M7.246,18.879c1.412-0.003,2.473,1.02,2.504,2.416c0.031,1.381-1.202,2.609-2.573,2.562
	c-1.306-0.046-2.437-1.237-2.43-2.56C4.754,19.907,5.813,18.883,7.246,18.879z"/>
<path style="fill:#EFCFCB;" d="M7.246,32.875c1.412-0.003,2.473,1.02,2.504,2.416c0.031,1.381-1.202,2.609-2.573,2.562
	c-1.306-0.046-2.437-1.237-2.43-2.56C4.754,33.902,5.813,32.878,7.246,32.875z"/>
<path style="fill:#EFCFCB;" d="M7.246,46.868c1.412-0.003,2.473,1.02,2.504,2.416c0.031,1.381-1.202,2.609-2.573,2.562
	c-1.306-0.046-2.437-1.237-2.43-2.56C4.754,47.896,5.813,46.872,7.246,46.868z"/>
<path style="fill:#EFCFCB;" d="M7.246,60.847c1.412-0.003,2.473,1.02,2.504,2.416c0.031,1.381-1.202,2.609-2.573,2.562
	c-1.306-0.046-2.437-1.237-2.43-2.56C4.754,61.874,5.813,60.851,7.246,60.847z"/>
<path style="fill:#EFCFCB;" d="M27.453,66.972c1.412-0.003,2.473,1.02,2.504,2.416c0.031,1.381-1.202,2.609-2.573,2.562
	c-1.306-0.046-2.437-1.237-2.43-2.56C24.961,67.999,26.019,66.976,27.453,66.972z"/>
<path style="fill:#EFCFCB;" d="M20.548,46.855c1.313,0.033,2.476,1.218,2.47,2.516c-0.006,1.383-1.251,2.557-2.639,2.487
	c-1.387-0.07-2.376-1.16-2.334-2.574C18.085,47.912,19.209,46.821,20.548,46.855z"/>
<path style="fill:#EFCFCB;" d="M15.97,14.263c0.032,1.401-0.974,2.483-2.371,2.551c-1.389,0.068-2.622-1.104-2.627-2.495
	c-0.005-1.302,1.175-2.493,2.478-2.501C14.771,11.81,15.94,12.944,15.97,14.263z"/>
<path style="fill:#EFCFCB;" d="M43.946,14.355c-0.021,1.395-1.125,2.477-2.494,2.443c-1.366-0.034-2.475-1.173-2.454-2.518
	c0.021-1.349,1.167-2.462,2.523-2.448C42.862,11.844,43.966,12.993,43.946,14.355z"/>
<path style="fill:#EFCFCB;" d="M20.313,23.847c-1.391-0.106-2.403-1.366-2.26-2.814c0.136-1.381,1.273-2.277,2.707-2.133
	c1.275,0.128,2.298,1.273,2.248,2.516C22.951,22.801,21.678,23.95,20.313,23.847z"/>
<path style="fill:#EFCFCB;" d="M34.43,32.866c1.334-0.04,2.502,1.037,2.58,2.378c0.075,1.295-1.04,2.533-2.354,2.613
	c-1.38,0.084-2.629-1.09-2.641-2.482C32.003,33.98,33.035,32.908,34.43,32.866z"/>
<path style="fill:#EFCFCB;" d="M15.951,42.364c-0.001,1.366-1.11,2.444-2.507,2.437c-1.362-0.007-2.485-1.145-2.461-2.495
	c0.024-1.36,1.162-2.474,2.511-2.458C14.845,39.864,15.952,40.998,15.951,42.364z"/>
<path style="fill:#EFCFCB;" d="M27.481,16.799c-1.336-0.016-2.517-1.2-2.487-2.492c0.031-1.338,1.214-2.496,2.517-2.467
	c1.395,0.032,2.44,1.109,2.431,2.506C29.933,15.759,28.874,16.815,27.481,16.799z"/>
<path style="fill:#EFCFCB;" d="M20.544,9.632c-1.336-0.016-2.517-1.2-2.487-2.492c0.031-1.338,1.214-2.496,2.517-2.467
	c1.395,0.032,2.44,1.109,2.431,2.506C22.995,8.593,21.936,9.648,20.544,9.632z"/>
<path style="fill:#EFCFCB;" d="M34.529,9.632c-1.336-0.016-2.517-1.2-2.487-2.492c0.031-1.338,1.214-2.496,2.517-2.467
	c1.395,0.032,2.44,1.109,2.431,2.506C36.981,8.593,35.922,9.648,34.529,9.632z"/>
<path style="fill:#EFCFCB;" d="M13.437,25.853c1.301-0.044,2.487,1.113,2.515,2.454c0.029,1.389-1.022,2.462-2.432,2.483
	c-1.4,0.02-2.481-1.009-2.528-2.407C10.949,27.076,12.086,25.899,13.437,25.853z"/>
<path style="fill:#EFCFCB;" d="M37.016,63.305c0.013,1.315-1.101,2.471-2.423,2.515c-1.418,0.047-2.582-1.085-2.573-2.5
	c0.008-1.294,1.18-2.459,2.484-2.469C35.781,60.842,37.003,62.035,37.016,63.305z"/>
<path style="fill:#EFCFCB;" d="M27.499,25.831c1.317-0.003,2.439,1.16,2.432,2.522c-0.007,1.412-1.057,2.442-2.475,2.427
	c-1.353-0.014-2.506-1.17-2.475-2.48C25.013,26.954,26.156,25.834,27.499,25.831z"/>
<path style="fill:#EFCFCB;" d="M36.992,49.503c-0.091,1.345-1.293,2.421-2.615,2.341c-1.332-0.081-2.412-1.283-2.343-2.61
	c0.068-1.321,1.291-2.422,2.609-2.348C35.96,46.96,37.08,48.208,36.992,49.503z"/>
<path style="fill:#EFCFCB;" d="M22.985,63.478c-0.026,1.33-1.178,2.385-2.575,2.358c-1.432-0.027-2.411-1.069-2.357-2.511
	c0.052-1.386,1.195-2.492,2.513-2.43C21.872,60.957,23.01,62.172,22.985,63.478z"/>
<path style="fill:#EFCFCB;" d="M34.442,18.905c1.354-0.032,2.498,1.036,2.553,2.383c0.053,1.297-1.073,2.478-2.421,2.539
	c-1.292,0.058-2.491-1.081-2.538-2.414C31.989,20.07,33.074,18.937,34.442,18.905z"/>
<path style="fill:#EFCFCB;" d="M20.546,32.884c1.333,0.036,2.483,1.223,2.437,2.517c-0.047,1.338-1.231,2.484-2.522,2.442
	c-1.344-0.043-2.425-1.182-2.404-2.534C18.079,33.94,19.2,32.848,20.546,32.884z"/>
<path style="fill:#EFCFCB;" d="M43.992,42.32c0.026,1.368-1.05,2.489-2.419,2.52c-1.362,0.031-2.482-1.049-2.512-2.423
	c-0.031-1.393,1.015-2.483,2.406-2.508C42.841,39.884,43.967,40.959,43.992,42.32z"/>
<path style="fill:#EFCFCB;" d="M27.54,53.949c1.434,0.029,2.438,1.062,2.406,2.475c-0.032,1.383-1.15,2.489-2.482,2.453
	c-1.305-0.035-2.468-1.234-2.458-2.533C25.015,55.015,26.173,53.921,27.54,53.949z"/>
<path style="fill:#EFCFCB;" d="M43.993,28.371c-0.01,1.351-1.133,2.425-2.515,2.405c-1.404-0.02-2.459-1.102-2.421-2.484
	c0.036-1.327,1.224-2.487,2.514-2.457C42.906,25.866,44.003,27.015,43.993,28.371z"/>
<path style="fill:#EFCFCB;" d="M29.929,42.395c-0.017,1.382-1.124,2.477-2.476,2.449c-1.349-0.028-2.484-1.174-2.471-2.495
	c0.013-1.292,1.203-2.44,2.531-2.441C28.899,39.907,29.946,40.985,29.929,42.395z"/>
<path style="fill:#EFCFCB;" d="M43.972,56.359c0.004,1.334-1.129,2.499-2.441,2.512c-1.348,0.013-2.467-1.087-2.495-2.451
	c-0.027-1.367,1.041-2.448,2.441-2.469C42.866,53.93,43.967,54.993,43.972,56.359z"/>
<path style="fill:#EFCFCB;" d="M99.05,16.817H66.537v0.056c-2.666-0.001-5.331-0.002-7.997-0.002l-3.77,0
	c-0.884,0-1.97,0-2.424-1.539c-1.293-4.384-3.996-7.796-8.033-10.14C38.951,2.079,33.359,0.5,27.689,0.5
	c-4.265,0-8.642,0.896-13.008,2.662C5.862,6.73,1.586,13.144,1.974,22.226c0.186,4.364,0.141,8.805,0.097,13.099
	c-0.02,1.913-0.039,3.826-0.039,5.739L2.029,55.842c-0.004,10.81-0.007,21.62,0.003,32.429c0.005,4.925,1.94,9.115,5.751,12.453
	c5.043,4.416,11.427,6.671,18.977,6.705c14.321,0.063,28.372,0.071,39.013,0.071c0.255,0,0.509,0,0.764,0v0H99.05
	c3.86,0,7-3.119,7-6.954V23.771C106.05,19.937,102.91,16.817,99.05,16.817z M6.095,72.166c-0.001-1.395-0.001-2.79-0.018-4.184
	c-0.012-1.055-0.027-2.25,1.539-3.081c0.556-0.294,0.88-0.83,0.888-1.469c0.009-0.686-0.364-1.324-0.972-1.667
	c-1.39-0.782-1.475-1.869-1.444-2.826c0.029-0.909,0.022-1.84,0.016-2.739c-0.003-0.434-0.006-0.867-0.005-1.3
	c0-0.148-0.002-0.294-0.004-0.44c-0.019-1.316-0.039-2.808,1.797-3.83c0.507-0.282,0.589-0.803,0.593-1.089
	c0.009-0.722-0.415-1.462-1.056-1.84c-0.998-0.589-1.404-1.351-1.356-2.545c0.061-1.514,0.04-3.039,0.016-4.349l-0.003-0.154
	c-0.028-1.429-0.057-2.906,1.791-3.974c0.564-0.326,0.647-0.884,0.646-1.187c-0.002-0.737-0.443-1.464-1.123-1.853
	c-0.959-0.548-1.352-1.264-1.315-2.394c0.03-0.915,0.021-1.851,0.012-2.757c-0.005-0.536-0.011-1.071-0.008-1.607
	c0.001-0.159-0.001-0.316-0.004-0.473c-0.019-1.31-0.04-2.795,1.795-3.813c0.559-0.31,0.636-0.869,0.633-1.175
	c-0.008-0.706-0.422-1.376-1.053-1.708c-1.275-0.669-1.24-1.548-1.083-2.465c0.374-2.186,1.445-4.152,3.273-6.01
	c1.862-1.892,4.136-3.351,6.951-4.459c0.287-0.113,0.584-0.23,0.884-0.23c0.854,0,1.068,0.897,1.139,1.192
	c0.234,0.975,0.88,1.535,1.772,1.535c0.179,0,0.367-0.023,0.557-0.068c1.133-0.27,1.674-1.261,1.379-2.526
	c-0.1-0.428-0.159-0.874,0.088-1.23c0.246-0.354,0.674-0.453,1.1-0.507c2.995-0.38,5.404-0.388,7.724-0.038
	c0.495,0.075,0.991,0.2,1.264,0.606c0.277,0.411,0.199,0.938,0.099,1.352c-0.275,1.146,0.18,1.953,1.315,2.335
	c1.088,0.367,2.118-0.222,2.532-1.439c0.173-0.507,0.409-1.2,1.177-1.2c0.198,0,0.419,0.05,0.673,0.154
	c3.996,1.632,6.751,3.695,8.669,6.492c0.761,1.11,1.307,2.359,1.624,3.713c0.222,0.948,0.25,1.933-1.041,2.705
	c-0.675,0.404-1.072,1.002-1.09,1.642c-0.018,0.655,0.36,1.294,1.037,1.752c1.129,0.765,1.27,1.698,1.253,2.592
	c-0.032,1.685-0.027,3.162,0.016,4.515c0.041,1.301,0.088,2.775-1.613,3.896c-0.453,0.298-0.701,0.756-0.699,1.288
	c0.003,0.623,0.348,1.217,0.923,1.589c1.287,0.832,1.429,1.867,1.392,2.863c-0.035,0.917-0.032,1.855-0.029,2.763
	c0.001,0.425,0.003,0.85,0,1.275c-0.001,0.147,0,0.293,0.002,0.439c0.012,1.321,0.026,2.819-1.707,3.908
	c-0.499,0.313-0.607,0.776-0.61,1.109c-0.006,0.663,0.388,1.334,1.028,1.753c1.202,0.786,1.342,1.777,1.315,2.731
	c-0.039,1.366-0.024,2.761-0.01,4.11l0.005,0.431c0.018,1.37,0.036,2.786-1.687,3.834c-0.554,0.336-0.64,0.886-0.642,1.184
	c-0.004,0.664,0.36,1.307,0.951,1.676c1.155,0.723,1.383,1.596,1.369,2.686c-0.026,2.053-0.025,4.143-0.024,6.164
	c0,1.024,0.001,2.049-0.002,3.074c0,0.166-0.058,0.294-0.12,0.43c-0.028,0.063-0.065,0.143-0.108,0.253l-0.248,0.629l-0.529-0.422
	c-2.174-1.736-4.083-3.111-6.33-4.175l-0.899-0.425l0.081-0.043c-0.016-0.005-0.032-0.011-0.049-0.016
	c-0.122-0.033-0.208-0.098-0.283-0.172c-0.113-0.014-0.21-0.049-0.29-0.103c-0.142-0.01-0.263-0.05-0.357-0.118
	c-0.201-0.004-0.356-0.077-0.467-0.189c-0.108-0.003-0.203-0.025-0.284-0.063c-0.031,0.005-0.06,0.011-0.096,0.011
	c-0.336,0-0.725-0.119-1.198-0.275c-2.118-0.698-4.098-1.103-6.053-1.238c-1.029-0.071-1.69-0.469-2.209-1.333
	c-0.5-0.831-1.138-1.289-1.796-1.289c-0.656,0-1.314,0.45-1.854,1.267c-0.373,0.564-0.818,1.238-1.71,1.292
	c-2.511,0.153-5.108,0.745-8.42,1.92l-1.078,0.382l0,0l-0.773,0.385c-2.626,1.31-4.647,2.635-6.362,4.171l-0.338,0.302l-0.334-0.306
	c-0.625-0.573-0.574-1.194-0.54-1.604c0.007-0.084,0.014-0.166,0.013-0.245C6.096,74.673,6.096,73.42,6.095,72.166z M27.161,83.732
	l0.001-2.014c0.002-1.704,0.004-3.407-0.006-5.111c-0.003-0.542,0.046-1.098,0.426-1.479c0.288-0.29,0.683-0.416,1.247-0.363
	c5.436,0.49,12.315,1.776,17.291,7.42c1.537,1.743,2.419,3.751,2.622,5.966c0.223,2.427-0.713,4.401-2.782,5.869
	c-2.173,1.541-4.906,2.355-7.903,2.355h0c-3.555,0-7.21-1.173-10.026-3.218c-0.862-0.626-0.859-1.535-0.858-2.136
	c0.004-1.766,0.003-3.531,0.002-5.297L27.161,83.732z M102.05,100.546c0,1.643-1.346,2.98-3,2.98L71.2,103.455
	c0-0.005,0-0.009,0-0.014c-6.569,0.002-13.137,0.004-19.706,0.004c-7.917,0-15.838-0.002-23.755-0.008
	c-6.512-0.004-11.883-1.668-16.421-5.088c-2.735-2.062-4.353-4.483-4.946-7.404c-0.722-3.557,0.411-6.76,3.467-9.791
	c2.766-2.745,6.436-4.619,11.219-5.731c0.796-0.186,1.313-0.095,1.667,0.263c0.391,0.395,0.435,1.024,0.43,1.529
	c-0.036,3.58-0.037,7.22-0.037,10.741c0,1.824,0,3.649-0.005,5.473c-0.002,0.77,0.039,1.349,0.595,1.783
	c4.316,3.37,9.394,5.226,14.298,5.226c2.645,0,5.188-0.538,7.559-1.598c2.83-1.266,4.828-3.015,6.109-5.349
	c0.79-1.439,1.157-3.046,1.154-5.058c-0.019-17.138-0.017-34.277-0.015-51.415l0.001-12.972c0-2.717,0.214-2.937,2.863-2.937
	l10.862,0v0l0.011,0l5.303,0c0.001-0.017,0.003-0.035,0.004-0.052l27.195-0.268c1.654,0,3,1.337,3,2.98V100.546z"/>
</svg>
