<?xml version="1.0" encoding="iso-8859-1"?>
<!-- Generator: Adobe Illustrator 22.0.1, SVG Export Plug-In . SVG Version: 6.00 Build 0)  -->
<svg version="1.1" id="&#x420;&#x435;&#x436;&#x438;&#x43C;_&#x438;&#x437;&#x43E;&#x43B;&#x44F;&#x446;&#x438;&#x438;"
	 xmlns="http://www.w3.org/2000/svg" xmlns:xlink="http://www.w3.org/1999/xlink" x="0px" y="0px" viewBox="0 0 30 30"
	 style="enable-background:new 0 0 30 30;" xml:space="preserve">
<path style="fill:#F47A8D;" d="M0.515,17.204c0.119-3.793,1.516-6.989,4.454-9.463c0.633-0.533,1.056-1.273,1.713-1.777
	c1.044-0.801,1.748-1.938,2.798-2.742c1.867-1.43,3.932-2.339,6.27-2.619c5.935-0.71,11.659,2.937,13.257,8.904
	c1.325,4.948-0.037,9.223-3.894,12.652c-0.267,0.237-0.491,0.515-0.746,0.76c-1.453,1.398-2.716,3.002-4.36,4.19
	c-3.013,2.177-6.378,2.901-9.98,1.994c-5.011-1.262-8.068-4.529-9.256-9.538C0.59,18.802,0.453,18.012,0.515,17.204z M12.803,28.45
	c6.073,0.031,11.302-4.862,11.293-11.279C24.088,10.707,18.9,5.9,12.907,5.898C6.558,5.895,1.532,10.892,1.535,17.19
	C1.538,23.304,6.514,28.455,12.803,28.45z M11.352,3.217c4.788-1.179,8.954-0.293,12.363,3.156
	c3.387,3.428,4.265,7.585,3.095,12.225c2.869-4.513,1.914-10.698-2.133-14.25C20.433,0.622,14.681,0.961,11.352,3.217z M9.078,5.433
	c4.756-1.246,8.954-0.369,12.394,3.05c3.421,3.4,4.318,7.59,3.185,12.253c2.733-4.437,2.069-10.551-2.322-14.342
	C18.386,2.984,12.637,3.017,9.078,5.433z"/>
<g>
	<g>
		<path style="fill:#F47A8D;" d="M18.608,12.104c-0.307-0.212-0.616-0.423-0.926-0.631c-0.418-0.281-0.789-0.209-1.069,0.203
			c-1.453,2.144-2.906,4.287-4.359,6.431c-0.279,0.412-0.563,0.821-0.839,1.236c-0.092,0.138-0.169,0.153-0.289,0.028
			c-0.265-0.274-0.54-0.539-0.812-0.807c-0.497-0.489-0.989-0.984-1.495-1.462c-0.304-0.287-0.667-0.29-0.963-0.019
			c-0.318,0.291-0.623,0.598-0.928,0.902c-0.145,0.145-0.242,0.317-0.231,0.521c-0.004,0.213,0.066,0.387,0.207,0.528
			c1.268,1.268,2.527,2.544,3.809,3.798c0.599,0.586,1.281,0.5,1.75-0.189c1.411-2.071,2.816-4.147,4.223-6.221
			c0.713-1.051,1.429-2.1,2.139-3.152C19.154,12.781,19.086,12.434,18.608,12.104z"/>
	</g>
</g>
</svg>
