<?xml version="1.0" encoding="iso-8859-1"?>
<!-- Generator: Adobe Illustrator 22.0.1, SVG Export Plug-In . SVG Version: 6.00 Build 0)  -->
<svg version="1.1" id="&#x421;&#x43B;&#x43E;&#x439;_1"
	 xmlns="http://www.w3.org/2000/svg" xmlns:xlink="http://www.w3.org/1999/xlink" x="0px" y="0px" viewBox="0 0 108 108"
	 style="enable-background:new 0 0 108 108;" xml:space="preserve">
<path style="fill:#FAD0CC;" d="M11.808,107.44l0.001-0.35c28.177-0.004,56.355-0.015,84.532-0.031
	c2.848-0.002,4.696-0.537,5.815-1.683c1.112-1.14,1.629-3.015,1.625-5.9c-0.013-10.188-0.015-20.376-0.017-30.564
	c-0.001-8.494-0.003-16.987-0.011-25.48c-0.001-1.452,0.133-2.968,1.748-4.132c1.643-1.184,1.993-3.068,1.997-4.44
	c0.005-1.969-0.002-3.8-0.023-5.599c-0.053-4.577-2.157-6.718-6.622-6.736c-5.16-0.021-10.318-0.007-15.479,0.006
	c-2.312,0.006-4.624,0.012-6.936,0.015l-2.814,0.002l-5.973-0.001l0.678-0.611c6.144-5.537,7.431-9.077,5.294-14.569
	c-1.65-4.241-5.478-6.786-10.239-6.806l-0.074,0c-7.882,0-10.263,5.746-11.663,11.956l-0.197,0.872l-0.916-1.577
	c-0.198-0.34-0.319-0.546-0.434-0.754c-1.821-3.307-4.733-5.204-7.99-5.204c-1.536,0-3.083,0.412-4.599,1.224
	c-2.268,1.215-3.885,3.165-4.555,5.491c-0.694,2.412-0.324,5.058,1.041,7.452c0.567,0.994,0.699,1.571,0.455,1.991
	c-0.298,0.513-1.06,0.555-1.882,0.555l-0.107,0c-4.918-0.029-9.919-0.036-14.754-0.043c-4.267-0.006-8.533-0.012-12.8-0.032
	l-0.053,0c-2.36,0-3.975,0.768-5.082,2.416c-1.776,2.645-1.671,11.013,0.172,13.568l0.123,0.174c0.166,0.24,0.337,0.487,0.53,0.597
	c1.78,1.013,1.778,2.668,1.775,4.129C4.343,63.231,4.344,81.638,4.375,99.65c0.009,5.354,2.093,7.439,7.432,7.439h0V107.44
	L11.808,107.44z M56.206,19.537c0.503-3.672,1.02-7.446,2.364-10.971c1.106-2.902,3.474-4.634,6.335-4.634
	c0.468,0,0.946,0.048,1.421,0.143c4.109,0.822,6.64,3.91,6.604,8.058l-0.004,0.049c-0.275,1.837-0.971,4.446-3.824,5.879
	c-3.539,1.778-7.497,2.71-10.678,3.458c-0.259,0.061-0.501,0.092-0.721,0.092c-0.626,0-0.979-0.253-1.165-0.466
	C56.222,20.781,56.11,20.24,56.206,19.537z M38.382,14.583c0.19-2.573,2.047-4.532,4.732-4.99c0.337-0.057,0.675-0.087,1.007-0.087
	c2.223,0,4.129,1.318,4.975,3.44c0.98,2.457,1.455,4.444,1.537,6.434c0.228,0.731,0.197,1.303-0.091,1.701
	c-0.264,0.363-0.711,0.547-1.329,0.547h0c-0.186,0-0.39-0.017-0.607-0.05c-0.45-0.069-0.902-0.135-1.354-0.201
	c-1.678-0.245-3.414-0.498-5.083-0.931C39.421,19.733,38.147,17.76,38.382,14.583z M4.965,36.446
	c-0.559-0.566-0.657-1.488-0.641-2.992c0.009-0.871,0.004-1.632-0.001-2.297c-0.017-2.364-0.025-3.55,0.661-4.241
	c0.649-0.654,1.808-0.701,3.64-0.701c0.333,0,0.694,0.002,1.084,0.005c0.46,0.003,0.963,0.006,1.511,0.006l0.314,0
	c9.586-0.023,19.172-0.006,28.759,0.012l8.549,0.014c3.284,0.005,3.516,0.23,3.542,3.443c0.004,0.522-0.001,1.046-0.007,1.569
	c-0.01,1.011-0.021,2.057,0.042,3.074c0.06,0.956-0.123,1.646-0.558,2.11c-0.455,0.485-1.163,0.71-2.226,0.71h-0.054
	c-2.783-0.02-5.845-0.028-9.635-0.028c-1.891,0-3.782,0.002-5.673,0.004c-1.891,0.002-3.783,0.004-5.674,0.004l-11.863-0.005
	c-2.886,0-5.771-0.001-8.657-0.005C6.459,37.127,5.532,37.021,4.965,36.446z M11.64,103.376c-3.103-0.002-3.57-0.471-3.571-3.583
	c-0.003-5.419-0.001-10.838,0-16.258c0.003-13.046,0.005-26.536-0.044-39.804c-0.004-1.134,0.201-1.848,0.665-2.314
	c0.468-0.47,1.171-0.67,2.35-0.67h0.048c4.952,0.022,10.377,0.032,16.586,0.032c5.412,0,10.825-0.008,16.237-0.016l8.053-0.01
	c3.503-0.004,4.123-0.63,4.149-4.188c0.004-0.511,0.01-1.022,0.017-1.534c0.023-1.867,0.048-3.798-0.072-5.681
	c-0.072-1.135,0.116-1.9,0.594-2.409c0.494-0.527,1.272-0.762,2.521-0.762l0.07,0c9.634,0.063,19.43,0.064,28.905,0.066
	c3.212,0,6.424,0.001,9.636,0.004h0.055c0.64,0,1.208-0.01,1.712-0.018c1.963-0.031,3.001-0.048,3.624,0.585
	c0.697,0.708,0.677,2.047,0.632,4.983L103.8,32.22c-0.002,0.139-0.006,0.278-0.01,0.418c-0.011,0.41-0.021,0.798,0.01,1.183
	c0.088,1.086-0.117,1.884-0.629,2.439c-0.535,0.58-1.386,0.863-2.6,0.863c-5.441-0.027-10.779-0.021-16.149-0.014l-5.05,0.005
	l-0.308,0c-0.671,0-1.385,0.004-2.099,0.051c-1.681,0.11-2.42,0.69-2.396,1.882c0.022,1.086,0.741,1.605,2.33,1.683
	c0.96,0.047,1.914,0.054,2.801,0.054l1.778-0.002c1.271,0,2.542,0.003,3.813,0.007c1.271,0.004,2.541,0.007,3.811,0.007
	c3.178,0,5.602-0.024,7.858-0.076c1.232-0.026,1.993,0.174,2.488,0.671c0.485,0.487,0.7,1.242,0.695,2.445
	c-0.054,13.421-0.048,27.066-0.042,40.263c0.002,5.266,0.005,10.533,0.003,15.799c-0.001,3.009-0.516,3.5-3.673,3.502
	c-6.927,0.005-13.855,0.006-20.782,0.006l-22.083-0.001v-0.022l-21.251,0.001C25.426,103.382,18.533,103.381,11.64,103.376z"/>
<path style="fill:#FAD0CC;" d="M64.965,41.182c-1.274-0.057-2.446-0.013-3.584-0.188c-1.085-0.167-1.83-0.863-1.835-2.055
	c-0.005-1.198,0.728-1.921,1.833-2.036c2.541-0.264,5.098-0.257,7.634,0.076c1.008,0.132,1.734,0.792,1.782,1.851
	c0.053,1.175-0.695,1.93-1.782,2.093C67.644,41.128,66.241,41.11,64.965,41.182z"/>
<g>
	<path style="fill:#FAD0CC;" d="M51.805,63.369c-0.014,1.3,0.653,2.455,1.669,2.834c1.043,0.389,2.212,0.008,3.107-1.016
		c0.629-0.72,0.961-1.52,1.102-2.504c0.161-1.123,0.52-2.269,1.05-3.269c0.333-0.629,1.075-1.142,1.749-1.466
		c1.123-0.54,2.301-0.012,2.863,1.098c0.658,1.3,0.423,3.044-0.52,3.959c-0.589,0.572-1.292,0.796-2.083,0.646
		c-0.295-0.056-0.557-0.281-0.834-0.428c0.029-0.067,0.058-0.135,0.087-0.202c0.111-0.019,0.23-0.072,0.333-0.051
		c0.922,0.188,1.431,0.046,1.633-0.822c0.21-0.904,0.239-1.895,0.116-2.818c-0.118-0.89-0.904-1.078-1.583-0.476
		c-0.24,0.212-0.455,0.489-0.587,0.78c-0.745,1.648-0.94,3.371-0.402,5.101c0.72,2.315,3.028,2.804,4.633,1.004
		c0.77-0.863,1.225-1.834,1.217-3.08c-0.01-1.76,0.202-3.521,0.321-5.307c-0.412-0.372-1.452,0.166-1.485-0.92
		c0.598-0.035,1.328,0.134,1.692-0.156c0.376-0.299,0.353-1.064,0.584-1.59c0.22-0.5,0.51-0.98,0.836-1.418
		c0.136-0.182,0.445-0.235,0.883-0.448c-0.268,1.292-0.491,2.361-0.755,3.635c0.976-0.188,1.816-0.35,2.79-0.538
		c-0.474,1.561-1.835,1.152-2.898,1.443c-0.232,2.482-0.554,4.967-0.116,7.464c0.142,0.807,0.381,1.69,1.32,1.85
		c0.956,0.163,1.294-0.738,1.711-1.371c0.317-0.481,0.519-1.037,0.786-1.553c0.103-0.2,0.244-0.38,0.368-0.569
		c0.064,0.022,0.128,0.043,0.193,0.065c0,0.177,0.066,0.392-0.01,0.526c-0.667,1.18-1.262,2.419-2.072,3.495
		c-0.764,1.016-2.034,0.924-2.877-0.052c-0.276-0.32-0.491-0.704-0.679-1.086c-0.177-0.359-0.282-0.754-0.447-1.212
		c-1.006,1.495-1.93,3.066-3.994,2.989c-1.948-0.073-3.288-1.017-3.807-3.069c-0.389,0.483-0.673,0.891-1.011,1.248
		c-1.07,1.128-2.345,1.672-3.898,1.192c-1.467-0.453-2.333-1.507-2.601-2.983c-0.319-1.754-0.193-3.49,0.679-5.089
		c0.641-1.176,1.557-1.991,3.016-1.907c0.151,0.009,0.305,0.018,0.449,0.057c1.32,0.356,2.115,1.828,1.924,3.554
		c-0.159,1.437-1.128,2.395-2.519,2.456C53.114,63.392,52.489,63.369,51.805,63.369z M51.736,62.365
		c1.882,0.592,2.979-0.151,3.052-2.032c0.015-0.397,0.024-0.839-0.131-1.186c-0.18-0.404-0.515-0.987-0.832-1.02
		c-0.383-0.039-0.948,0.322-1.204,0.676C51.86,59.857,51.685,61.1,51.736,62.365z"/>
	<path style="fill:#FAD0CC;" d="M28.51,64.756c-0.067,0.263-0.082,0.405-0.138,0.527c-0.482,1.061-0.248,2.079,0.71,2.726
		c1.07,0.722,2.253,0.887,3.466,0.414c1.548-0.603,1.868-2.573,0.514-3.525c-1.087-0.765-2.297-1.364-3.485-1.974
		c-1.273-0.653-2.479-1.383-3.373-2.522c-2.431-3.097-1.387-7.97,2.187-10.143c1.411-0.858,2.918-1.357,4.617-1.035
		c1.887,0.357,3.082,1.462,3.573,3.287c0.535,1.988,0.24,3.878-0.98,5.556c-1.13,1.554-3.014,1.62-4.287,0.209
		c-1.613-1.788-0.987-5.372,1.141-6.516c0.081-0.044,0.187-0.042,0.442-0.094c-0.153,0.364-0.246,0.629-0.372,0.876
		c-0.71,1.387-0.85,2.843-0.514,4.349c0.065,0.291,0.191,0.579,0.34,0.84c0.297,0.523,0.682,0.98,1.356,0.929
		c0.665-0.051,0.92-0.591,1.089-1.125c0.581-1.824,0.702-3.681,0.127-5.523c-0.677-2.166-2.569-2.903-4.572-1.84
		c-2.547,1.352-4.109,5.407-3.094,8.119c0.607,1.623,1.946,2.535,3.393,3.316c0.711,0.384,1.444,0.73,2.137,1.144
		c2.047,1.222,2.739,2.572,2.211,4.242c-0.548,1.735-2.531,2.924-4.605,2.719c-1.284-0.127-2.49-0.484-3.355-1.536
		c-0.482-0.586-0.676-1.255-0.349-1.979C27.023,65.458,27.577,64.967,28.51,64.756z"/>
	<path style="fill:#FAD0CC;" d="M42.656,65.292c-0.31,0.508-0.529,0.937-0.811,1.317c-1.059,1.427-2.784,1.404-3.777-0.079
		c-0.316-0.472-0.574-1.03-0.686-1.584c-0.368-1.811-0.288-3.623,0.252-5.396c0.21-0.688,0.54-1.329,1.332-1.519
		c0.2-0.048,0.422,0,0.634,0.004c-0.007,0.192,0.031,0.401-0.029,0.574c-0.653,1.87-0.789,3.806-0.696,5.76
		c0.027,0.569,0.143,1.165,0.364,1.687c0.369,0.872,1.37,0.984,1.963,0.243c0.705-0.882,0.905-1.94,0.996-3.046
		c0.097-1.177,0.24-2.356,0.468-3.513c0.131-0.666,0.573-1.165,1.337-1.273c0.486-0.069,0.606,0.1,0.473,0.543
		c-0.56,1.87-0.58,3.79-0.471,5.712c0.029,0.521,0.112,1.09,0.359,1.531c0.218,0.389,0.677,0.833,1.072,0.877
		c0.341,0.038,0.87-0.369,1.093-0.721c0.883-1.39,1.066-2.993,1.078-4.591c0.007-1.001-0.178-2.007-0.318-3.005
		c-0.112-0.799,0.497-1.637,1.278-1.619c0.164,0.004,0.397,0.213,0.467,0.382c0.124,0.297,0.184,0.633,0.205,0.957
		c0.152,2.267,0,4.508-0.848,6.636c-0.284,0.712-0.71,1.413-1.228,1.975c-1.256,1.362-3.102,1.063-3.957-0.577
		C43.01,66.194,42.869,65.792,42.656,65.292z"/>
</g>
<g>
	<path style="fill:#FAD0CC;" d="M42.395,73.892c-0.225,0.425-0.377,0.704-0.522,0.987c-0.574,1.12-0.757,2.299-0.494,3.533
		c0.129,0.606,0.451,1.066,1.087,1.239c0.695,0.189,1.234-0.067,1.682-0.587c1.377-1.601,1.399-5.539,0.04-7.152
		c-1.082-1.284-3.099-1.441-4.694-0.365c-1.117,0.754-1.805,1.84-2.255,3.069c-1.138,3.108-1.444,6.321-0.794,9.557
		c0.492,2.448,1.739,4.421,4.305,5.23c1.586,0.5,3.05,0.227,4.368-0.766c1.265-0.953,2.138-2.225,2.708-3.682
		c0.163-0.417,0.086-0.942,0.062-1.415c-0.156-3.112-0.282-6.226,0.512-9.279c0.2-0.77,0.549-1.522,0.947-2.215
		c0.336-0.586,0.915-0.984,1.65-0.854c0.804,0.142,1.077,0.799,1.179,1.501c0.294,2.025-0.106,3.99-0.693,5.904
		c-0.443,1.446-1.011,2.859-1.609,4.249c-0.272,0.632-0.454,1.229-0.27,1.892c0.336,1.212,0.576,2.47,1.082,3.608
		c0.338,0.76,1.067,1.345,1.608,1.994c-1.35,0.526-2.84-1.059-4.139-4.554c-0.252,0.434-0.461,0.824-0.697,1.196
		c-1.489,2.337-3.431,3.963-6.389,3.687c-3.552-0.331-5.935-2.434-6.644-5.952c-0.735-3.644-0.399-7.216,1.341-10.555
		c1.088-2.086,2.712-3.552,5.137-3.979c2.819-0.496,5.256,1.151,5.734,3.967c0.252,1.482,0.101,2.929-0.656,4.266
		c-0.842,1.488-2.283,2.161-3.884,1.832c-1.36-0.28-2.158-1.193-2.25-2.575C39.735,76.053,40.888,74.211,42.395,73.892z
		 M49.458,82.3c0.098-0.147,0.161-0.216,0.195-0.297c0.895-2.178,1.637-4.405,1.906-6.755c0.097-0.845,0.057-1.711,0.007-2.563
		c-0.012-0.212-0.283-0.537-0.48-0.574c-0.191-0.036-0.528,0.178-0.644,0.374c-0.228,0.384-0.397,0.821-0.502,1.257
		c-0.65,2.702-0.639,5.455-0.598,8.21C49.343,82.041,49.399,82.13,49.458,82.3z"/>
	<path style="fill:#FAD0CC;" d="M77.138,79.08c0.192-1.558,0.329-3.093,0.592-4.606c0.114-0.653,0.435-1.29,0.758-1.882
		c0.317-0.583,0.892-0.847,1.551-0.669c0.626,0.169,1.021,0.677,0.98,1.295c-0.112,1.658-0.195,3.335-0.528,4.956
		c-0.36,1.75-0.989,3.444-1.502,5.162c-0.389,1.304-0.028,2.506,0.602,3.619c0.343,0.606,1.049,0.609,1.531,0.001
		c0.512-0.646,0.884-1.403,1.319-2.11c0.144-0.234,0.293-0.464,0.44-0.695c0.075,0.029,0.15,0.059,0.225,0.088
		c-0.025,0.198,0.006,0.426-0.083,0.589c-0.54,0.993-1.01,2.046-1.69,2.937c-0.948,1.241-2.296,1.041-3.04-0.348
		c-0.201-0.376-0.342-0.785-0.553-1.277c-0.314,0.444-0.581,0.854-0.879,1.239c-1.503,1.944-3.417,1.725-4.465-0.504
		c-0.084-0.179-0.165-0.36-0.295-0.645c-0.225,0.327-0.383,0.602-0.585,0.84c-0.358,0.422-0.694,0.884-1.126,1.219
		c-1.141,0.884-2.353,0.641-3.081-0.602c-0.263-0.448-0.414-0.961-0.634-1.486c-0.295,0.46-0.546,0.927-0.868,1.339
		c-1.156,1.481-3.125,1.333-3.865-0.388c-1.042-2.423-0.858-4.882,0.222-7.275c0.081-0.179,0.207-0.381,0.369-0.471
		c0.335-0.186,0.707-0.304,1.064-0.451c-0.032,0.327-0.012,0.669-0.105,0.977c-0.567,1.87-0.641,3.779-0.517,5.709
		c0.005,0.075,0.019,0.151,0.038,0.224c0.196,0.739,0.353,1.536,1.278,1.692c0.938,0.159,1.336-0.602,1.598-1.238
		c0.396-0.962,0.646-1.997,0.851-3.022c0.257-1.282,0.336-2.601,0.636-3.87c0.113-0.48,0.602-0.89,0.975-1.279
		c0.119-0.124,0.416-0.078,0.631-0.111c0.022,0.212,0.104,0.439,0.056,0.633c-0.485,1.978-0.729,3.981-0.615,6.015
		c0.041,0.727,0.116,1.469,0.314,2.165c0.273,0.962,1.109,1.173,1.791,0.456c0.805-0.847,1.451-1.756,1.36-3.074
		c-0.114-1.66,0.324-3.216,1.465-4.497C74.528,78.417,75.693,78.231,77.138,79.08z M77.29,81.818
		c-0.836-0.023-0.925-0.165-0.642-0.962c0.191-0.539,0.238-1.083-0.293-1.432c-0.555-0.365-1.104-0.153-1.483,0.313
		c-0.329,0.404-0.622,0.872-0.798,1.36c-0.573,1.593-0.57,3.235-0.134,4.852c0.13,0.483,0.467,0.963,0.835,1.311
		c0.211,0.2,0.795,0.302,1.004,0.155c0.939-0.661,1.559-1.642,1.706-2.752C77.604,83.757,77.371,82.805,77.29,81.818z
		 M78.632,81.414c0.118,0.019,0.237,0.038,0.355,0.058c0.427-2.066,0.882-4.128,1.265-6.202c0.122-0.662,0.087-1.36,0.055-2.038
		c-0.009-0.195-0.238-0.499-0.409-0.532c-0.17-0.032-0.422,0.185-0.584,0.346c-0.115,0.114-0.167,0.312-0.205,0.482
		C78.526,76.135,78.634,78.778,78.632,81.414z"/>
	<path style="fill:#FAD0CC;" d="M60.063,83.816c-0.249,0.833-0.459,1.985-0.935,3.013c-0.654,1.411-2.137,2.084-3.648,1.891
		c-1.444-0.184-2.503-1.162-2.895-2.719c-0.315-1.252-0.321-2.497,0.185-3.716c0.083-0.201,0.159-0.438,0.134-0.645
		c-0.203-1.644,0.654-2.834,2.332-3.196c2.147-0.464,3.754,0.459,4.355,2.58C59.815,81.817,59.874,82.658,60.063,83.816z
		 M53.959,82.712c-0.057,1.396-0.113,2.731,0.456,3.994c0.314,0.698,0.846,1.117,1.639,1.139c0.797,0.022,1.407-0.36,1.692-1.057
		c0.869-2.127,0.976-4.312,0.229-6.5c-0.259-0.759-0.861-1.18-1.674-1.198c-0.849-0.018-1.435,0.447-1.796,1.172
		c-0.342,0.687-0.31,1.364,0.233,1.969c0.088,0.098,0.122,0.243,0.205,0.417C54.6,82.671,54.329,82.688,53.959,82.712z"/>
</g>
<path style="fill:#FAD0CC;" d="M55.768,49.592c0.316-1.244-1.546-1.752-1.915-0.528c-0.119,0.395-0.297,0.764-0.479,1.131
	c-0.229-0.183-0.44-0.38-0.573-0.617c-0.639-0.906-2.066-0.116-1.506,0.88c0.449,0.799,1.267,1.093,1.854,1.739
	c0.394,0.433,1.102,0.287,1.39-0.179c0.05-0.082,0.101-0.161,0.151-0.242c0.071-0.067,0.137-0.145,0.192-0.243
	c0.222-0.395,0.439-0.785,0.617-1.193c0.022-0.048,0.044-0.097,0.064-0.146C55.643,50.001,55.714,49.802,55.768,49.592z"/>
</svg>
