<?xml version="1.0" encoding="iso-8859-1"?>
<!-- Generator: Adobe Illustrator 22.0.1, SVG Export Plug-In . SVG Version: 6.00 Build 0)  -->
<svg version="1.1" id="&#x420;&#x435;&#x436;&#x438;&#x43C;_&#x438;&#x437;&#x43E;&#x43B;&#x44F;&#x446;&#x438;&#x438;"
	 xmlns="http://www.w3.org/2000/svg" xmlns:xlink="http://www.w3.org/1999/xlink" x="0px" y="0px" viewBox="0 0 30 30"
	 style="enable-background:new 0 0 30 30;" xml:space="preserve">
<g>
	<g>
		<path style="fill:#D97A8B;" d="M8.003,0.617c-1.644,0-3.288-0.007-4.932,0.002c-1.484,0.008-2.438,0.965-2.44,2.445
			c-0.004,3.216,0.007,6.432,0,9.648c-0.002,0.93,0.284,1.709,0.98,2.354c0.729,0.676,1.407,1.408,2.126,2.095
			c0.274,0.262,0.259,0.389-0.065,0.6c-1.922,1.25-2.999,3.015-3.032,5.325c-0.044,3.075,2.218,5.677,5.331,6.213
			c2.432,0.419,4.967-0.766,6.316-2.952c0.256-0.414,0.258-0.416,0.613-0.054c0.758,0.771,1.507,1.552,2.272,2.316
			c1.039,1.036,2.056,1.036,3.086,0.008c3.451-3.443,6.885-6.903,10.357-10.324c1.003-0.988,1.013-2.162,0.002-3.163
			c-4.049-4.007-8.074-8.039-12.106-12.063c-0.622-0.621-1.232-1.255-1.859-1.872c-0.462-0.455-1.055-0.573-1.673-0.576
			C11.32,0.611,9.662,0.617,8.003,0.617z M7.881,1.957c1.572,0,3.144,0.007,4.716-0.003c0.62-0.004,1.112,0.17,1.571,0.64
			c2.067,2.114,4.172,4.189,6.264,6.278c2.429,2.424,4.86,4.848,7.29,7.272c0.442,0.441,0.457,0.641,0.089,1.011
			c-1.423,1.431-2.844,2.865-4.269,4.295c-2.087,2.094-4.175,4.187-6.266,6.277c-0.441,0.441-0.646,0.439-1.086-0.001
			c-0.958-0.959-1.909-1.925-2.872-2.88c-0.203-0.201-0.276-0.393-0.217-0.689c0.124-0.623,0.134-1.25,0.054-1.89
			c-0.434-3.476-3.816-5.989-7.262-5.352c-0.335,0.062-0.538-0.023-0.758-0.249c-0.816-0.836-1.62-1.686-2.479-2.476
			c-0.517-0.475-0.687-1.013-0.684-1.686c0.016-3.129,0.008-6.259,0.01-9.388c0.001-0.859,0.31-1.158,1.182-1.158
			C4.738,1.957,6.31,1.957,7.881,1.957z M1.985,23.185c-0.014-2.759,2.195-5.042,4.931-5.024c2.715,0.017,4.929,2.099,4.935,4.918
			c0.006,2.73-2.033,4.908-4.9,4.943C4.13,28.055,2.044,25.815,1.985,23.185z"/>
		<path style="fill:#D97A8B;" d="M16.722,29.516c0.543,0,1.091-0.272,1.628-0.808c1.043-1.041,2.085-2.083,3.127-3.126
			c2.363-2.365,4.807-4.811,7.229-7.198c0.519-0.512,0.794-1.09,0.795-1.672c0.001-0.582-0.274-1.162-0.793-1.676
			c-3.074-3.042-6.186-6.15-9.195-9.156c-0.97-0.969-1.94-1.938-2.91-2.906c-0.266-0.266-0.53-0.533-0.794-0.801
			c-0.347-0.353-0.707-0.717-1.066-1.071c-0.554-0.545-1.272-0.611-1.764-0.614c-1.178-0.006-2.357-0.005-3.535-0.004
			c-0.454,0-0.907,0.001-1.361,0.001h-0.08c-0.491,0-0.983-0.001-1.474-0.001C5.376,0.482,4.223,0.481,3.07,0.487
			c-1.559,0.009-2.567,1.02-2.569,2.575c-0.002,1.42,0,2.84,0.001,4.26c0.001,1.766,0.003,3.592-0.001,5.388
			c-0.002,1.009,0.332,1.81,1.021,2.45c0.402,0.373,0.796,0.77,1.177,1.154c0.308,0.31,0.626,0.632,0.948,0.939
			c0.138,0.132,0.155,0.188,0.153,0.211s-0.031,0.078-0.199,0.187c-2.018,1.313-3.058,3.14-3.091,5.432
			c-0.045,3.125,2.243,5.792,5.439,6.342c0.328,0.057,0.665,0.085,1.001,0.085c2.181,0,4.268-1.186,5.447-3.097
			c0.068-0.11,0.138-0.223,0.173-0.254c0.038,0.02,0.139,0.123,0.236,0.222c0.267,0.272,0.533,0.545,0.799,0.818
			c0.481,0.494,0.978,1.004,1.474,1.499C15.624,29.242,16.176,29.516,16.722,29.516z M10.805,0.745c0.724,0,1.449,0.001,2.173,0.004
			c0.72,0.003,1.208,0.17,1.583,0.539c0.358,0.352,0.716,0.716,1.063,1.068c0.264,0.268,0.529,0.537,0.795,0.803
			c0.97,0.968,1.94,1.937,2.91,2.906c3.009,3.006,6.121,6.114,9.196,9.157c0.469,0.464,0.717,0.98,0.716,1.491
			s-0.249,1.025-0.717,1.487c-2.423,2.387-4.867,4.834-7.231,7.199c-1.042,1.042-2.083,2.085-3.126,3.126
			c-0.487,0.485-0.973,0.732-1.445,0.732c-0.475,0-0.965-0.249-1.457-0.74c-0.495-0.494-0.992-1.003-1.472-1.496
			c-0.266-0.273-0.532-0.546-0.8-0.818c-0.198-0.202-0.298-0.303-0.428-0.303c-0.153,0-0.232,0.127-0.388,0.38
			c-1.132,1.834-3.135,2.974-5.226,2.973c-0.321,0-0.643-0.027-0.957-0.081c-3.069-0.528-5.266-3.087-5.223-6.083
			c0.031-2.2,1.031-3.956,2.973-5.218c0.155-0.101,0.3-0.217,0.316-0.38c0.015-0.162-0.103-0.299-0.232-0.422
			c-0.319-0.305-0.636-0.625-0.943-0.934c-0.383-0.386-0.778-0.785-1.184-1.162c-0.642-0.596-0.94-1.314-0.938-2.259
			c0.004-1.796,0.003-3.623,0.001-5.389c-0.001-1.42-0.002-2.839-0.001-4.259c0.002-1.398,0.908-2.307,2.31-2.315
			C4.225,0.744,5.378,0.746,6.53,0.748c0.492,0.001,0.983,0.001,1.475,0.001h0.08c0.454,0,0.907,0,1.361-0.001
			C9.898,0.745,10.352,0.745,10.805,0.745z M16.735,28.186c0.221,0,0.413-0.147,0.634-0.368c1.992-1.992,4.1-4.104,6.266-6.277
			c0.884-0.887,1.767-1.776,2.65-2.665c0.54-0.543,1.079-1.087,1.619-1.63c0.423-0.425,0.402-0.704-0.09-1.195l-2.973-2.965
			c-1.439-1.435-2.878-2.871-4.317-4.307c-0.519-0.518-1.04-1.036-1.56-1.554c-1.549-1.541-3.15-3.135-4.704-4.723
			c-0.459-0.469-0.966-0.679-1.643-0.679h-0.022c-0.588,0.004-1.227,0.005-2.01,0.005c-0.451,0-0.901-0.001-1.352-0.001
			C8.782,1.826,8.331,1.826,7.881,1.826h-0.91H5.317H3.165c-0.944,0-1.311,0.361-1.312,1.288c-0.001,0.971-0.001,1.941,0,2.912
			c0.001,2.122,0.001,4.317-0.01,6.475c-0.004,0.768,0.22,1.317,0.726,1.782c0.7,0.643,1.375,1.339,2.028,2.013
			c0.148,0.153,0.297,0.306,0.445,0.458c0.268,0.275,0.508,0.353,0.875,0.286c0.347-0.064,0.702-0.097,1.055-0.097
			c3.022,0,5.681,2.345,6.055,5.338c0.082,0.656,0.065,1.261-0.053,1.849c-0.065,0.325,0.011,0.567,0.253,0.807
			c0.585,0.58,1.175,1.174,1.746,1.749c0.375,0.377,0.749,0.754,1.125,1.13C16.321,28.038,16.514,28.186,16.735,28.186z
			 M12.618,2.084c0.61,0,1.045,0.18,1.457,0.601c1.554,1.59,3.156,3.184,4.706,4.726c0.52,0.517,1.04,1.035,1.56,1.553
			c1.439,1.436,2.878,2.871,4.317,4.307l2.973,2.965c0.413,0.412,0.383,0.532,0.089,0.828c-0.54,0.543-1.08,1.086-1.619,1.63
			c-0.883,0.889-1.765,1.778-2.65,2.665c-2.165,2.173-4.273,4.285-6.266,6.277c-0.205,0.205-0.34,0.292-0.451,0.292
			s-0.246-0.088-0.452-0.293c-0.376-0.376-0.75-0.753-1.124-1.129c-0.571-0.575-1.162-1.17-1.748-1.751
			c-0.182-0.18-0.229-0.33-0.181-0.572c0.123-0.615,0.141-1.247,0.056-1.932c-0.389-3.121-3.162-5.565-6.312-5.565
			c-0.369,0-0.739,0.034-1.102,0.101c-0.277,0.051-0.433,0.002-0.642-0.212c-0.149-0.152-0.297-0.305-0.445-0.458
			c-0.656-0.676-1.334-1.375-2.039-2.023c-0.453-0.417-0.645-0.892-0.642-1.59c0.011-2.159,0.011-4.354,0.01-6.477
			c0-0.971,0-1.941,0-2.912c0.001-0.788,0.246-1.028,1.051-1.028h2.98h0.827h0.91c0.451,0,0.901,0.001,1.352,0.001
			c0.451,0.001,0.902,0.001,1.352,0.001c0.784,0,1.423-0.002,2.012-0.005L12.618,2.084z M6.888,28.151L6.888,28.151h0.065
			c2.873-0.034,5.035-2.215,5.029-5.073c-0.006-2.812-2.231-5.03-5.064-5.048H6.886c-1.326,0-2.578,0.524-3.525,1.477
			c-0.977,0.982-1.511,2.288-1.504,3.678C1.918,25.971,4.128,28.151,6.888,28.151z M6.885,18.29h0.031
			c2.689,0.017,4.8,2.121,4.806,4.789c0.006,2.711-2.045,4.78-4.772,4.812H6.889c-2.618,0-4.715-2.069-4.774-4.71
			c-0.006-1.318,0.501-2.559,1.429-3.491C4.442,18.788,5.629,18.29,6.885,18.29z"/>
	</g>
	<g>
		<path style="fill:#D97A8B;" d="M6.325,8.8C7.72,8.809,8.816,7.695,8.821,6.264C8.826,4.875,7.72,3.745,6.346,3.736
			C4.95,3.726,3.759,4.889,3.75,6.273C3.74,7.679,4.873,8.791,6.325,8.8z M6.325,7.446C5.653,7.45,5.112,6.943,5.105,6.304
			c-0.007-0.65,0.522-1.214,1.15-1.227c0.669-0.013,1.215,0.518,1.22,1.187C7.481,6.964,7.016,7.442,6.325,7.446z"/>
		<path style="fill:#D97A8B;" d="M6.341,8.93c1.458,0,2.604-1.171,2.609-2.665c0.005-1.456-1.163-2.648-2.604-2.659H6.327
			c-1.458,0-2.698,1.221-2.708,2.666C3.614,6.988,3.891,7.656,4.398,8.153c0.506,0.496,1.19,0.772,1.926,0.777H6.341z M6.327,3.866
			h0.017c1.298,0.009,2.351,1.085,2.347,2.398C8.686,7.613,7.654,8.67,6.341,8.67H6.326C5.658,8.666,5.038,8.416,4.581,7.967
			C4.125,7.519,3.876,6.917,3.88,6.273C3.888,4.968,5.009,3.866,6.327,3.866z M6.317,7.576L6.317,7.576
			c0.38-0.002,0.699-0.128,0.932-0.364c0.236-0.239,0.359-0.567,0.356-0.949c-0.006-0.726-0.6-1.316-1.325-1.316H6.253
			c-0.7,0.014-1.285,0.636-1.278,1.358C4.982,7.018,5.572,7.576,6.317,7.576z M6.279,5.207c0.583,0,1.061,0.475,1.066,1.058
			C7.347,6.576,7.25,6.84,7.064,7.03c-0.183,0.186-0.439,0.285-0.74,0.287l0,0c-0.608,0-1.083-0.445-1.089-1.014
			C5.229,5.72,5.697,5.219,6.258,5.207H6.279z"/>
	</g>
	<g>
		<path style="fill:#D97A8B;" d="M8.864,23.768c0.303,0,0.605-0.002,0.908,0c0.213,0.001,0.319-0.102,0.323-0.314
			c0.001-0.029,0.002-0.058,0.004-0.086c0.058-0.937,0.056-0.94-0.874-0.945c-0.375-0.002-0.752-0.025-1.124,0.006
			c-0.417,0.035-0.522-0.147-0.504-0.529c0.024-0.518-0.008-1.038,0.005-1.557c0.008-0.321-0.131-0.423-0.439-0.431
			c-0.915-0.024-0.914-0.033-0.91,0.86c0.002,0.432-0.008,0.865,0.003,1.297c0.006,0.26-0.102,0.362-0.359,0.359
			c-0.562-0.008-1.125,0.009-1.687-0.005c-0.326-0.008-0.462,0.105-0.467,0.449c-0.013,0.899-0.026,0.899,0.875,0.899
			c0.418,0,0.836,0.011,1.254-0.003c0.28-0.009,0.387,0.1,0.381,0.38c-0.013,0.562,0.008,1.125-0.007,1.687
			c-0.008,0.315,0.114,0.429,0.429,0.439c0.924,0.028,0.924,0.038,0.924-0.895c0-0.418,0.008-0.836-0.002-1.254
			c-0.006-0.258,0.098-0.368,0.358-0.358C8.258,23.777,8.561,23.769,8.864,23.768z"/>
		<path style="fill:#D97A8B;" d="M7.043,26.412c0.252,0,0.488-0.017,0.601-0.223c0.086-0.156,0.086-0.388,0.085-0.809
			c0-0.132,0.001-0.262,0.002-0.392c0.002-0.284,0.003-0.577-0.003-0.866C7.726,24.03,7.74,23.967,7.77,23.937
			c0.029-0.03,0.092-0.044,0.182-0.04c0.107,0.004,0.222,0.006,0.36,0.006c0.096,0,0.191-0.001,0.287-0.002
			c0.089-0.001,0.178-0.002,0.267-0.002l0.554-0.001c0.118,0,0.235,0,0.353,0.001l0,0c0.285,0,0.449-0.161,0.454-0.442
			c0.001-0.027,0.002-0.054,0.004-0.081c0.032-0.506,0.047-0.76-0.102-0.919s-0.4-0.161-0.901-0.163
			c-0.105-0.001-0.209-0.003-0.314-0.005c-0.123-0.003-0.246-0.005-0.369-0.005c-0.174,0-0.317,0.005-0.452,0.016
			c-0.15,0.013-0.251-0.006-0.301-0.058c-0.05-0.053-0.071-0.163-0.063-0.336c0.014-0.292,0.01-0.588,0.006-0.875
			c-0.003-0.225-0.006-0.458-0.001-0.685c0.012-0.492-0.317-0.557-0.566-0.564l-0.029-0.001c-0.125-0.003-0.232-0.006-0.324-0.006
			c-0.261,0-0.434,0.022-0.548,0.137c-0.146,0.146-0.145,0.384-0.143,0.857c0.001,0.16,0,0.316-0.001,0.472
			c-0.002,0.272-0.003,0.554,0.004,0.832c0.002,0.09-0.011,0.151-0.041,0.181c-0.029,0.029-0.087,0.044-0.175,0.044H5.899
			c-0.253-0.004-0.506-0.002-0.759-0.001c-0.136,0.001-0.272,0.002-0.407,0.002c-0.2,0-0.365-0.002-0.519-0.006H4.179
			c-0.38,0-0.559,0.183-0.565,0.577l-0.001,0.038c-0.007,0.464-0.01,0.697,0.135,0.844c0.147,0.149,0.388,0.149,0.87,0.149
			c0.127,0,0.253,0.001,0.379,0.002c0.128,0.001,0.257,0.002,0.385,0.002c0.19,0,0.348-0.002,0.495-0.007
			c0.101-0.003,0.17,0.011,0.202,0.044s0.047,0.101,0.045,0.203c-0.006,0.274-0.004,0.552-0.003,0.821
			c0.002,0.284,0.004,0.577-0.004,0.865c-0.01,0.384,0.161,0.56,0.555,0.572l0.03,0.001C6.834,26.408,6.947,26.412,7.043,26.412z
			 M7.925,23.635c-0.151,0-0.263,0.039-0.341,0.119c-0.082,0.084-0.119,0.205-0.115,0.373c0.007,0.285,0.005,0.577,0.003,0.859
			c-0.001,0.131-0.002,0.262-0.002,0.393c0,0.354,0,0.587-0.054,0.685c-0.031,0.057-0.1,0.088-0.373,0.088
			c-0.094,0-0.204-0.003-0.333-0.007l-0.03-0.001c-0.25-0.008-0.309-0.068-0.303-0.306c0.008-0.292,0.006-0.587,0.004-0.873
			c-0.002-0.267-0.003-0.543,0.003-0.814c0.004-0.18-0.034-0.304-0.119-0.391c-0.087-0.088-0.215-0.128-0.396-0.122
			c-0.144,0.005-0.298,0.007-0.486,0.007c-0.128,0-0.256-0.001-0.383-0.002c-0.127-0.001-0.254-0.002-0.38-0.002
			c-0.384,0-0.615,0-0.686-0.072c-0.069-0.07-0.065-0.304-0.06-0.658l0.001-0.038c0.004-0.273,0.083-0.321,0.305-0.321h0.028
			c0.156,0.004,0.323,0.006,0.526,0.006c0.136,0,0.273-0.001,0.409-0.002c0.251-0.001,0.502-0.003,0.754,0.001h0.015
			c0.162,0,0.28-0.04,0.361-0.123c0.081-0.083,0.119-0.204,0.114-0.369c-0.007-0.274-0.005-0.553-0.004-0.824
			c0.001-0.157,0.002-0.314,0.001-0.471c-0.002-0.367-0.003-0.606,0.067-0.676c0.043-0.043,0.148-0.06,0.364-0.06
			c0.09,0,0.195,0.003,0.317,0.006l0.029,0.001c0.254,0.007,0.319,0.068,0.313,0.298c-0.006,0.232-0.003,0.467,0.001,0.695
			c0.004,0.282,0.008,0.574-0.006,0.859c-0.008,0.171,0,0.386,0.134,0.527c0.108,0.113,0.267,0.157,0.51,0.137
			c0.127-0.011,0.264-0.016,0.43-0.016c0.121,0,0.242,0.003,0.364,0.005c0.106,0.002,0.212,0.004,0.318,0.005
			c0.386,0.002,0.641,0.004,0.713,0.081c0.073,0.078,0.057,0.336,0.032,0.726c-0.002,0.031-0.004,0.061-0.004,0.092
			c-0.002,0.139-0.05,0.187-0.189,0.187c-0.122-0.001-0.24-0.001-0.358-0.001l-0.555,0.001c-0.09,0-0.179,0.001-0.269,0.002
			C8.5,23.64,8.406,23.641,8.311,23.641c-0.135,0-0.246-0.002-0.35-0.006C7.948,23.636,7.937,23.635,7.925,23.635z"/>
	</g>
</g>
</svg>
