<?xml version="1.0" encoding="iso-8859-1"?>
<!-- Generator: Adobe Illustrator 22.0.1, SVG Export Plug-In . SVG Version: 6.00 Build 0)  -->
<svg version="1.1" id="Layer_1" xmlns="http://www.w3.org/2000/svg" xmlns:xlink="http://www.w3.org/1999/xlink" x="0px" y="0px"
	 viewBox="0 0 80 80" style="enable-background:new 0 0 80 80;" xml:space="preserve">
<g>
	<path style="fill:#F2D0CD;" d="M52.732,8.5H27.268C16.919,8.5,8.5,16.919,8.5,27.268v25.464c0,10.35,8.419,18.768,18.768,18.768
		h25.464c10.35,0,18.768-8.419,18.768-18.768V27.268C71.5,16.919,63.081,8.5,52.732,8.5z M65.162,52.732
		c0,6.865-5.565,12.43-12.43,12.43H27.268c-6.865,0-12.43-5.565-12.43-12.43V27.268c0-6.865,5.565-12.43,12.43-12.43h25.464
		c6.865,0,12.43,5.565,12.43,12.43V52.732L65.162,52.732z"/>
	<path style="fill:#F2D0CD;" d="M40,23.706c-8.985,0-16.294,7.309-16.294,16.294S31.015,56.294,40,56.294S56.294,48.985,56.294,40
		S48.985,23.706,40,23.706z M40,49.956c-5.499,0-9.956-4.458-9.956-9.956s4.458-9.956,9.956-9.956c5.499,0,9.956,4.458,9.956,9.956
		C49.956,45.499,45.499,49.956,40,49.956z"/>
	<circle style="fill:#F2D0CD;" cx="56.326" cy="23.828" r="3.904"/>
</g>
</svg>
