<?xml version="1.0" encoding="utf-8"?>
<!-- Generator: Adobe Illustrator 22.0.1, SVG Export Plug-In . SVG Version: 6.00 Build 0)  -->
<svg version="1.1" id="Objets" xmlns="http://www.w3.org/2000/svg" xmlns:xlink="http://www.w3.org/1999/xlink" x="0px" y="0px"
	 viewBox="0 0 193 155" style="enable-background:new 0 0 193 155;" xml:space="preserve">
<style type="text/css">
	.st0{fill:#F9778A;}
	.st1{fill:#A4825E;}
	.st2{fill:#FFFFFF;}
</style>
<path class="st0" d="M52.9,130.3c0,0-11.2,9-27.5,1.7c-16.3-7.3-10.7-21.3-10.7-21.3S1.2,107.3,0.1,97.2
	c-1.1-10.1,12.4-5.6,11.8-14.6c-0.6-9-9.6-12.1-9.6-12.1s11.9-4.8,11.3-10.9c-0.6-6.2-16.9-20.2-9-28.6c7.9-8.4,14-3.4,14-3.4
	S14.7,5.6,33.2,2.3s24.1,10.1,24.1,10.1S73.6,1.1,97.8,1.7c24.2,0.6,41.3,11.7,41.3,11.7s17.1-14.5,33.4-5.5
	c16.3,9,5.6,17.4,5.6,17.4s10.2,0.7,12.1,11.6c1.9,10.9-7.1,17.6-7.1,23.8s9.7,8,9.7,8s-12.5,6.6-6.9,16.1
	c5.6,9.5,9.5,15.7,5.1,20.8c-4.5,5.1-9.7,3.1-9.7,3.1s-2.1,17.1-15.6,19.4c-13.5,2.2-26.2-2.9-26.2-2.9s-11.4,16.9-39.5,16.3
	C72,141,52.9,130.3,52.9,130.3z"/>
<path class="st1" d="M191.9,67.2c-5.6-0.4-13.2-2.4-9.7-10.7c1.2-2.7,4-5.1,5.7-7.5c2.2-3.1,3.3-8.4,2.2-12.1
	c-1.3-4.3-7.8-10.4-12.6-8.5c2.4-7.3-0.4-15.3-8.3-18.6c-8.9-3.7-22.2-2-30.3,3.6C131.9,2,113.9,0.4,102,0.2c-9.8-0.1-19.7,1.1-29,4
	C67.8,5.8,61,8,57.3,12.3c-4.2-7.7-18-7.8-25.1-5.3c-8.6,2.9-17.4,13.3-14.1,22.3c-5-1.6-11.3,0.2-13,5.8c-1.4,4.7-0.2,8.4,2.2,12.4
	c1.8,2.9,3.5,5.3,4.6,8.6c2.1,6.3-3,10.7-8.3,12.2c-0.4-0.1-0.7-0.1-1.1-0.2C1.1,68,1,70.1,2.2,70.5c9.7,3.3,14.4,11.7,6,19.7
	c-2.6,2.5-4.3,4.7-3.9,8.3c0.6,5.3,8.2,9.6,13.4,9.4c-2.8,9.6,7.2,20.2,15.9,22.5c5.5,1.4,17.9,1.5,21.1-4.8
	c5.1,10.1,21.9,11.7,31.6,12.8c11.5,1.2,23.5-1,34.7-3.1c7-1.3,14.4-4,18.5-10c3.8,4.5,16.8,5.3,21,5.3
	c12.7,0.1,17.3-10.9,17.8-21.8c1,0.2,2,0.1,3-0.1c4.2,0,8.8-2.4,9.2-6.9c1.3-12.4-18.6-24.3,1.4-31.4c0.8-0.3,1.1-1,0.9-1.7
	C193.2,68,192.8,67.2,191.9,67.2z M179.8,79.6c-0.1,3.4,1.6,7,3.2,9.9c1,1.8,2.2,3.5,3.2,5.3c2.6,4.4,0.9,8.3-2.5,10.2
	c-0.4,0.2-0.9,0.3-1.2,0.4c-0.5,0.1-1.1,0.3-1.6,0.4c-0.3,0-0.5,0-0.8,0c-0.8,0-1.7-0.1-2.5-0.2c-0.1,0-0.2,0-0.2,0
	c-0.6-0.1-1.3,0.2-1.6,0.9c-1.4,3.7-1.1,7.6-2,11.4c-1.8,8-11.3,8.9-17.9,8.5c-5.6-0.3-10.5-2.3-15.7-3.9c-0.5-0.8-1.7-1.2-2.4-0.3
	c-10.1,12.6-33.7,13.2-48.4,12.8c-11.1-0.3-27.4-2.7-33.6-13.2c-0.1-0.2-0.3-0.4-0.5-0.5c-0.5-0.6-1.6-0.5-2.1,0.2
	c-4.6,6.4-11.2,7.2-18.7,5.8c-9.3-1.7-14-11.2-14.9-19.8c0.2-0.3,0.1-0.8-0.3-0.9c-2.6-1-5.2-1.6-7.7-3c-5.7-3.1-3.8-9.3,0-12.9
	c2.6-2.5,3.8-5,4.2-8.5c0.7-5.8-3.5-10.6-8.5-12.9c4.6-1.1,7.6-4.5,8.1-10c0.4-4.3-2-8.4-4.2-11.8c-2.8-4.3-5.6-8.9-1.6-13.9
	c2.8-3.5,7.5-1.8,10.8-0.5c1.2,0.5,2.3-1.4,1.3-2.2c0,0-0.1-0.1-0.1-0.1c-1-9.5,3.5-17.9,13.1-21c7.9-2.6,15.3,0.6,21.1,5.6
	c0.8,0.7,2.1,0.3,2.4-0.6C70.3,7.3,84.8,4.8,99,4.2c13.2-0.6,28.5,1.5,37.7,11.8c0.9,1,2.2,0.5,2.7-0.4c6.7-1.8,13-3.6,20-4
	c4.9-0.3,9.2,1.2,12.8,4.6c4.1,3.9,2.5,9.6,2.1,14.5c-0.1,0.8,0.8,1.2,1.4,1c0.1,0,0.2,0,0.2,0c11.8-1.9,12.4,11,6.7,17.9
	c-2.1,2.5-5.2,5.7-5,9.3c0.3,5.1,3.5,9.5,8,10.7C182.2,71.7,179.9,74.5,179.8,79.6z"/>
<path class="st1" d="M153.4,126.8c-1,1-1.8,2.1-2.8,3.1c-1.1,1.3-2.4,2.4-3.8,3.4c-0.4-0.4-0.9-0.8-1.6-1.1c-1.6-0.7-3.4,0-4.6,0.9
	c-1.4,1.1-1.9,2.6-1.6,4c-1.3-1.6-3.5-3.4-5.7-3.5c-2.8-0.1-4,1.6-3.4,3.6c0.5,1.5,1.8,2.8,3.2,4c-2,0.7-3.8,1.6-6,2.2
	c-1.2,0.3-2.8,0.4-4,0.7c0.4-2.3,0.2-4.4-1.5-5.7c-2.9-2.1-5,1.2-5.9,3.5c-0.9-1.1-2.2-2.1-3.7-2.1c-2.2,0-3.5,0.7-3.6,2.5
	c0,1.3,0.6,2.6,1.5,3.7c-5.6,0.5-11,0.8-16.7,0.3c0.9-1.7,1.6-4.1-0.3-5.5c-2.4-1.8-6.5,0.3-7.6,2.6c-1.5-2.4-5.4-4.4-7.8-1.5
	c-1.1,1.2-1.3,2.5-0.9,3.8c-1.5-0.4-3-0.6-4.6-0.7c-2.4-0.2-4.5-0.6-6.7-1.4c0.7-0.9,1.1-1.9,0.8-2.9c-1-4.2-5.6-2.8-8.5-0.8
	c-0.1-1.3-0.7-2.5-1.7-3.6c-1.6-1.6-3.7-0.1-4.4,1.2c-0.1,0.2-0.2,0.3-0.2,0.5c-4.1-2.1-6.9-5.2-10.8-7.6c-0.4-0.3-0.9,0.2-0.6,0.5
	c3.1,2.9,6.1,7,11,8.1c-1,3.4-0.8,8.9,2.5,10.7c-0.2,0.5,0.5,1.1,1.3,0.9c3.4-1,6.1-2.6,8.4-4.9c0.4-0.4,0.9-0.9,1.4-1.4
	c3.5,1.8,8.4,1.9,12.4,2.2c1.2,2.7,4.3,5.4,5.6,7.8c0.1,0.2,0.4,0.2,0.6,0.1c0.2,0.1,0.5,0,0.7-0.1c1.4-1.3,3.5-1.9,5-3.1
	c1.6-1.2,2.9-2.7,4-4.3c0-0.1,0.1-0.1,0.1-0.2c5.3,1.7,12.4,1.4,17.8-0.1c2.4,2.3,6.3,4.2,9.2,5c0.3,0.1,0.5-0.1,0.5-0.3
	c0.1-0.1,0.1-0.1,0.1-0.2c0.6-1.5,1.7-3.8,2.4-6.2c1.6,0.4,4-0.4,5.3-0.7c2-0.5,4.3-1.3,5.9-2.5c0.7,0.5,1.3,0.9,1.9,1.4
	c2,1.4,5.1,3.5,8,3.2c0.5,0.1,1-0.1,0.9-0.7c-1-3.2,4.3-8.6,2.3-12c3.2-1.4,5.5-3.9,7.1-6.5C154.6,127,153.9,126.3,153.4,126.8z
	 M63,144.2c-2.2,2.5-5.3,4.4-8.9,5.5c-2.2-2.1-2-5.8-1.8-8.3c0.1-1.3,0.4-2.5,1.2-3.6c1.2-1.7,2.3,0.9,2.4,1.4
	c0.3,0.8,0.3,1.7,0.1,2.5c-0.2,0.7,0.9,1.1,1.4,0.5c0.9-1.1,2-1.9,3.5-2.6c2.1-0.9,3.3-0.1,3.6,2.4C64.3,142.8,63.6,143.5,63,144.2z
	 M89,149.7c-1.7,1.6-4.3,2.3-5.9,3.8c-0.8-1.8-2.2-3.3-3.4-4.9c-1.2-1.5-2-3.2-1.6-5c0.7-3.1,5-1.7,6.1-0.1c0.2,0.2,0.7,1.4,0.9,1.8
	c0.1,0.1,0.2,0.2,0.4,0.2c0.2,0.1,0.4,0.1,0.4-0.1c0,0,0,0,0-0.1c0-0.1,0.1-0.1,0.1-0.2c0,0,0,0,0,0c0.3-1.2,1-2.1,2.2-2.8
	c1.3-0.8,3.8-1.5,4.4,0.2C93.5,145,90.8,148,89,149.7z M121.8,142.3c-0.2,2.9-1.2,5.7-2.3,8.4c-2.2-1.3-4.4-2.4-6.4-3.9
	c-1.2-0.9-2-2.1-2.6-3.3c-0.7-1.2,0.2-1.8,2.7-2c1.1,0.4,1.7,1.5,2.3,2.3c0.4,0.5,1.3,0.3,1.4-0.3c0.2-1.1,0.5-2.2,1.1-3.2
	c0.6-1.1,1.7-1.3,3.3-0.5C121.9,140.5,121.8,141.5,121.8,142.3z M143.3,145.3c-3.5-1.4-6.4-3-9.2-5.2c-0.7-0.5-1.3-1.1-1.8-1.8
	c-0.3-0.3-0.5-0.7-0.7-1c-0.9-1.2-0.2-2.1,2.2-2.5c2.2,0.5,3.5,2.5,5.1,3.7c0.4,0.3,0.9,0.1,0.9-0.2c0.2,0,0.4-0.1,0.4-0.3
	c-0.2-1.6,0.4-3.2,1.9-4.3c2.6-1.8,4.1,1,4,2.8C146,139.5,142.7,142.2,143.3,145.3z"/>
<g>
	<path class="st2" d="M92.4,53.2c0,3.1,1.6,5.9,4,6.8c2.5,0.9,5.3,0,7.5-2.4c1.5-1.7,2.3-3.7,2.7-6c0.4-2.7,1.3-5.5,2.5-7.9
		c0.8-1.5,2.6-2.8,4.2-3.5c2.7-1.3,5.5,0,6.9,2.6c1.6,3.1,1,7.3-1.3,9.5c-1.4,1.4-3.1,1.9-5,1.6c-0.7-0.1-1.3-0.7-2-1
		c0.1-0.2,0.1-0.3,0.2-0.5c0.3,0,0.6-0.2,0.8-0.1c2.2,0.5,3.4,0.1,3.9-2c0.5-2.2,0.6-4.6,0.3-6.8c-0.3-2.1-2.2-2.6-3.8-1.1
		c-0.6,0.5-1.1,1.2-1.4,1.9c-1.8,4-2.3,8.1-1,12.3c1.7,5.6,7.3,6.8,11.2,2.4c1.9-2.1,3-4.4,2.9-7.4c0-4.2,0.5-8.5,0.8-12.8
		c-1-0.9-3.5,0.4-3.6-2.2c1.4-0.1,3.2,0.3,4.1-0.4c0.9-0.7,0.9-2.6,1.4-3.8c0.5-1.2,1.2-2.4,2-3.4c0.3-0.4,1.1-0.6,2.1-1.1
		c-0.6,3.1-1.2,5.7-1.8,8.8c2.4-0.5,4.4-0.8,6.7-1.3c-1.1,3.8-4.4,2.8-7,3.5c-0.6,6-1.3,12-0.3,18c0.3,1.9,0.9,4.1,3.2,4.5
		c2.3,0.4,3.1-1.8,4.1-3.3c0.8-1.2,1.3-2.5,1.9-3.7c0.2-0.5,0.6-0.9,0.9-1.4c0.2,0.1,0.3,0.1,0.5,0.2c0,0.4,0.2,0.9,0,1.3
		c-1.6,2.8-3,5.8-5,8.4c-1.8,2.4-4.9,2.2-6.9-0.1c-0.7-0.8-1.2-1.7-1.6-2.6c-0.4-0.9-0.7-1.8-1.1-2.9c-2.4,3.6-4.7,7.4-9.6,7.2
		c-4.7-0.2-7.9-2.5-9.2-7.4c-0.9,1.2-1.6,2.1-2.4,3c-2.6,2.7-5.7,4-9.4,2.9c-3.5-1.1-5.6-3.6-6.3-7.2c-0.8-4.2-0.5-8.4,1.6-12.3
		c1.5-2.8,3.8-4.8,7.3-4.6c0.4,0,0.7,0,1.1,0.1c3.2,0.9,5.1,4.4,4.6,8.6c-0.4,3.5-2.7,5.8-6.1,5.9C95.6,53.2,94.1,53.2,92.4,53.2z
		 M92.3,50.8c4.5,1.4,7.2-0.4,7.4-4.9c0-1,0.1-2-0.3-2.9c-0.4-1-1.2-2.4-2-2.5c-0.9-0.1-2.3,0.8-2.9,1.6
		C92.6,44.7,92.2,47.7,92.3,50.8z"/>
	<path class="st2" d="M36.3,56.5c-0.2,0.6-0.2,1-0.3,1.3c-1.2,2.6-0.6,5,1.7,6.6c2.6,1.7,5.4,2.1,8.4,1c3.7-1.5,4.5-6.2,1.2-8.5
		c-2.6-1.8-5.5-3.3-8.4-4.8c-3.1-1.6-6-3.3-8.1-6.1c-5.9-7.5-3.3-19.2,5.3-24.4c3.4-2.1,7-3.3,11.1-2.5c4.5,0.9,7.4,3.5,8.6,7.9
		c1.3,4.8,0.6,9.3-2.4,13.4c-2.7,3.7-7.3,3.9-10.3,0.5c-3.9-4.3-2.4-12.9,2.8-15.7c0.2-0.1,0.5-0.1,1.1-0.2
		c-0.4,0.9-0.6,1.5-0.9,2.1c-1.7,3.3-2,6.9-1.2,10.5c0.2,0.7,0.5,1.4,0.8,2c0.7,1.3,1.6,2.4,3.3,2.2c1.6-0.1,2.2-1.4,2.6-2.7
		c1.4-4.4,1.7-8.9,0.3-13.3c-1.6-5.2-6.2-7-11-4.4c-6.1,3.3-9.9,13-7.5,19.6c1.5,3.9,4.7,6.1,8.2,8c1.7,0.9,3.5,1.8,5.1,2.8
		c4.9,2.9,6.6,6.2,5.3,10.2c-1.3,4.2-6.1,7-11.1,6.6c-3.1-0.3-6-1.2-8.1-3.7c-1.2-1.4-1.6-3-0.8-4.8C32.7,58.2,34.1,57,36.3,56.5z"
		/>
	<path class="st2" d="M70.4,57.8c-0.7,1.2-1.3,2.3-2,3.2c-2.6,3.4-6.7,3.4-9.1-0.2c-0.8-1.1-1.4-2.5-1.7-3.8
		c-0.9-4.4-0.7-8.7,0.6-13c0.5-1.7,1.3-3.2,3.2-3.7c0.5-0.1,1,0,1.5,0c0,0.5,0.1,1-0.1,1.4c-1.6,4.5-1.9,9.2-1.7,13.9
		c0.1,1.4,0.3,2.8,0.9,4.1c0.9,2.1,3.3,2.4,4.7,0.6c1.7-2.1,2.2-4.7,2.4-7.3c0.2-2.8,0.6-5.7,1.1-8.5c0.3-1.6,1.4-2.8,3.2-3.1
		c1.2-0.2,1.5,0.2,1.1,1.3c-1.4,4.5-1.4,9.1-1.1,13.8c0.1,1.3,0.3,2.6,0.9,3.7c0.5,0.9,1.6,2,2.6,2.1c0.8,0.1,2.1-0.9,2.6-1.7
		c2.1-3.4,2.6-7.2,2.6-11.1c0-2.4-0.4-4.8-0.8-7.2c-0.3-1.9,1.2-3.9,3.1-3.9c0.4,0,1,0.5,1.1,0.9c0.3,0.7,0.4,1.5,0.5,2.3
		c0.4,5.5,0,10.9-2,16c-0.7,1.7-1.7,3.4-3,4.8c-3,3.3-7.5,2.6-9.5-1.4C71.2,60,70.9,59,70.4,57.8z"/>
</g>
<g>
	<path class="st2" d="M69.8,78.6c-0.5,1-0.9,1.7-1.3,2.4c-1.4,2.7-1.8,5.5-1.2,8.5c0.3,1.5,1.1,2.6,2.6,3c1.7,0.5,3-0.2,4.1-1.4
		c3.3-3.9,3.4-13.3,0.1-17.2c-2.6-3.1-7.5-3.5-11.3-0.9c-2.7,1.8-4.4,4.4-5.4,7.4c-2.7,7.5-3.5,15.2-1.9,23
		c1.2,5.9,4.2,10.7,10.4,12.6c3.8,1.2,7.4,0.5,10.5-1.8c3-2.3,5.2-5.4,6.5-8.9c0.4-1,0.2-2.3,0.1-3.4c-0.4-7.5-0.7-15,1.2-22.4
		c0.5-1.9,1.3-3.7,2.3-5.3c0.8-1.4,2.2-2.4,4-2.1c1.9,0.3,2.6,1.9,2.8,3.6c0.7,4.9-0.3,9.6-1.7,14.2c-1.1,3.5-2.4,6.9-3.9,10.2
		c-0.7,1.5-1.1,3-0.7,4.6c0.8,2.9,1.4,6,2.6,8.7c0.8,1.8,2.6,3.2,3.9,4.8c-3.3,1.3-6.8-2.6-10-11c-0.6,1-1.1,2-1.7,2.9
		c-3.6,5.6-8.3,9.6-15.4,8.9c-8.6-0.8-14.3-5.9-16-14.3c-1.8-8.8-1-17.4,3.2-25.4c2.6-5,6.5-8.6,12.4-9.6c6.8-1.2,12.7,2.8,13.8,9.6
		c0.6,3.6,0.2,7.1-1.6,10.3c-2,3.6-5.5,5.2-9.4,4.4c-3.3-0.7-5.2-2.9-5.4-6.2C63.4,83.8,66.1,79.3,69.8,78.6z M86.8,98.8
		c0.2-0.4,0.4-0.5,0.5-0.7c2.2-5.3,3.9-10.6,4.6-16.3c0.2-2,0.1-4.1,0-6.2c0-0.5-0.7-1.3-1.2-1.4c-0.5-0.1-1.3,0.4-1.6,0.9
		c-0.5,0.9-1,2-1.2,3c-1.6,6.5-1.5,13.1-1.4,19.8C86.5,98.2,86.6,98.4,86.8,98.8z"/>
	<path class="st2" d="M153.5,91.1c0.5-3.8,0.8-7.5,1.4-11.1c0.3-1.6,1-3.1,1.8-4.5c0.8-1.4,2.1-2,3.7-1.6c1.5,0.4,2.5,1.6,2.4,3.1
		c-0.3,4-0.5,8-1.3,11.9c-0.9,4.2-2.4,8.3-3.6,12.4c-0.9,3.1-0.1,6,1.5,8.7c0.8,1.5,2.5,1.5,3.7,0c1.2-1.6,2.1-3.4,3.2-5.1
		c0.3-0.6,0.7-1.1,1.1-1.7c0.2,0.1,0.4,0.1,0.5,0.2c-0.1,0.5,0,1-0.2,1.4c-1.3,2.4-2.4,4.9-4.1,7.1c-2.3,3-5.5,2.5-7.3-0.8
		c-0.5-0.9-0.8-1.9-1.3-3.1c-0.8,1.1-1.4,2.1-2.1,3c-3.6,4.7-8.2,4.2-10.8-1.2c-0.2-0.4-0.4-0.9-0.7-1.6c-0.5,0.8-0.9,1.5-1.4,2
		c-0.9,1-1.7,2.1-2.7,2.9c-2.8,2.1-5.7,1.5-7.4-1.5c-0.6-1.1-1-2.3-1.5-3.6c-0.7,1.1-1.3,2.2-2.1,3.2c-2.8,3.6-7.5,3.2-9.3-0.9
		c-2.5-5.8-2.1-11.8,0.5-17.5c0.2-0.4,0.5-0.9,0.9-1.1c0.8-0.4,1.7-0.7,2.6-1.1c-0.1,0.8,0,1.6-0.3,2.4c-1.4,4.5-1.5,9.1-1.2,13.8
		c0,0.2,0,0.4,0.1,0.5c0.5,1.8,0.9,3.7,3.1,4.1c2.3,0.4,3.2-1.5,3.9-3c1-2.3,1.6-4.8,2.1-7.3c0.6-3.1,0.8-6.3,1.5-9.3
		c0.3-1.2,1.5-2.1,2.3-3.1c0.3-0.3,1-0.2,1.5-0.3c0.1,0.5,0.2,1.1,0.1,1.5c-1.2,4.8-1.8,9.6-1.5,14.5c0.1,1.8,0.3,3.5,0.8,5.2
		c0.7,2.3,2.7,2.8,4.3,1.1c1.9-2,3.5-4.2,3.3-7.4c-0.3-4,0.8-7.8,3.5-10.8C147.2,89.5,150,89,153.5,91.1z M153.9,97.7
		c-2-0.1-2.2-0.4-1.5-2.3c0.5-1.3,0.6-2.6-0.7-3.5c-1.3-0.9-2.7-0.4-3.6,0.8c-0.8,1-1.5,2.1-1.9,3.3c-1.4,3.8-1.4,7.8-0.3,11.7
		c0.3,1.2,1.1,2.3,2,3.2c0.5,0.5,1.9,0.7,2.4,0.4c2.3-1.6,3.8-4,4.1-6.6C154.6,102.3,154.1,100,153.9,97.7z M157.1,96.7
		c0.3,0,0.6,0.1,0.9,0.1c1-5,2.1-9.9,3-14.9c0.3-1.6,0.2-3.3,0.1-4.9c0-0.5-0.6-1.2-1-1.3c-0.4-0.1-1,0.4-1.4,0.8
		c-0.3,0.3-0.4,0.8-0.5,1.2C156.8,84,157.1,90.3,157.1,96.7z"/>
	<path class="st2" d="M112.3,102.5c-0.6,2-1.1,4.8-2.3,7.3c-1.6,3.4-5.2,5-8.8,4.6c-3.5-0.4-6-2.8-7-6.6c-0.8-3-0.8-6,0.4-9
		c0.2-0.5,0.4-1.1,0.3-1.6c-0.5-4,1.6-6.8,5.6-7.7c5.2-1.1,9,1.1,10.5,6.2C111.8,97.7,111.9,99.7,112.3,102.5z M97.6,99.8
		c-0.1,3.4-0.3,6.6,1.1,9.6c0.8,1.7,2,2.7,4,2.7c1.9,0.1,3.4-0.9,4.1-2.5c2.1-5.1,2.4-10.4,0.6-15.7c-0.6-1.8-2.1-2.8-4-2.9
		c-2,0-3.5,1.1-4.3,2.8c-0.8,1.7-0.7,3.3,0.6,4.7c0.2,0.2,0.3,0.6,0.5,1C99.2,99.7,98.5,99.8,97.6,99.8z"/>
</g>
<path class="st2" d="M102,20c0.8-3-3.7-4.2-4.6-1.3c-0.3,1-0.7,1.8-1.2,2.7c-0.6-0.4-1.1-0.9-1.4-1.5c-1.5-2.2-5-0.3-3.6,2.1
	c1.1,1.9,3.1,2.6,4.5,4.2c0.9,1,2.7,0.7,3.4-0.4c0.1-0.2,0.2-0.4,0.4-0.6c0.2-0.2,0.3-0.3,0.5-0.6c0.5-1,1.1-1.9,1.5-2.9
	c0.1-0.1,0.1-0.2,0.2-0.4C101.7,21,101.9,20.5,102,20z"/>
</svg>
