<?xml version="1.0" encoding="iso-8859-1"?>
<!-- Generator: Adobe Illustrator 22.0.1, SVG Export Plug-In . SVG Version: 6.00 Build 0)  -->
<svg version="1.1" id="ARTBOARD_1" xmlns="http://www.w3.org/2000/svg" xmlns:xlink="http://www.w3.org/1999/xlink" x="0px" y="0px"
	 viewBox="0 0 265 100" style="enable-background:new 0 0 265 100;" xml:space="preserve">
<g>
	<defs>
		<rect id="SVGID_1_" y="-0.143" width="265" height="100.285"/>
	</defs>
	<clipPath id="SVGID_2_">
		<use xlink:href="#SVGID_1_"  style="overflow:visible;"/>
	</clipPath>
	<path style="opacity:0.6;clip-path:url(#SVGID_2_);fill:#4B291D;" d="M275.587-1.576c-3.468,0.074-6.93,0.382-10.354,0.937
		c-4.148,0.671-8.246,1.691-12.433,2.043c-15.107,1.271-30.455-6.178-45.142-2.42c-1.819,0.465-3.591,1.098-5.408,1.569
		c-8.156,2.116-18.346,1.438-26.411-0.946c-7.868-2.326-16.505-2.573-24.727-1.87c-7.48,0.64-14.846,2.419-22.348,2.73
		c-13.834,0.572-27.529-3.868-41.356-3.138C77.195-2.132,67.181,1.221,56.964,0.743c-8.137-0.381-16.031-3.184-24.174-3.397
		c-8.798-0.23-17.428,2.573-26.227,2.733C4.031,0.125,1.507-0.034-1.016-0.233v33.335c0.012,0.024,0.024,0.047,0.035,0.07
		c2.832,5.822,4.423,12.671,9.479,16.715c6.36,5.088,17.132,2.9,21.003-4.266c1.148-2.125,1.739-4.536,3.057-6.56
		c3.365-5.166,11.61-6.173,16.12-1.97c4.254,3.965,4.783,10.885,9.217,14.649c4.066,3.452,10.941,2.81,14.299-1.335
		c2.553-3.152,3.369-7.971,7.05-9.675c3.139-1.453,6.949,0.241,9.279,2.797c3.523,3.866,4.697,9.402,4.438,14.626
		c-0.26,5.224-1.793,10.287-3.054,15.363c-1.084,4.365-2.397,8.821-0.272,13.067c1.804,3.606,5.076,6.476,8.919,7.718
		c3.473,1.122,7.348,0.893,10.697-0.54c4.746-2.032,7.391-7.269,8.203-12.128c1.078-6.451-2.195-11.563-4.172-17.492
		c-1.891-5.669-3.009-11.595-3.315-17.564c-0.117-2.27-0.098-4.634,0.862-6.695c0.96-2.061,3.104-3.731,5.361-3.456
		c2.267,0.276,3.921,2.37,4.631,4.541c0.711,2.17,0.735,4.502,1.217,6.734c1.398,6.467,8.182,12.074,14.472,10.022
		c5.558-1.813,8.128-8.617,7.246-14.396c-0.406-2.659-1.367-5.226-1.561-7.908c-0.333-4.609,3.232-9.592,8.24-7.271
		c2.027,0.939,3.367,2.6,4.618,4.383c0.933,1.329,1.816,2.483,1.944,4.151c0.338,4.395-1.01,8.825-0.134,13.178
		c0.66,3.279,2.852,6.472,6.09,7.309c2.642,0.683,4.482-0.33,6.854-1.385c0.535-0.238,0.458-0.577,0.953-0.251
		c0.247,0.162,0.366,1.614,0.438,1.931c0.252,1.112,0.504,2.224,0.756,3.336c0.388,1.709,0.78,3.434,1.518,5.024
		c1.493,3.215,4.642,4.984,8.123,5.304c3.282,0.302,6.981-0.843,9.186-3.375c1.816-2.084,2.633-4.945,2.31-7.678
		c-0.337-2.848-0.448-5.686-1.179-8.505c-0.601-2.318-0.971-4.612-1.815-6.86c-0.99-2.635-2.043-5.35-1.903-8.161
		c0.237-4.755,4.708-5.921,7.995-2.72c1.765,1.719,2.688,4.095,3.822,6.282c1.134,2.187,2.695,4.383,5.039,5.142
		c3.892,1.26,8.049-1.939,12.064-1.152c3.135,0.614,5.339,3.548,6.334,6.584c0.995,3.036,1.085,6.288,1.75,9.413
		c0.73,3.432,2.167,6.712,4.193,9.576c1.516,2.143,3.687,4.201,6.312,4.16c3.51-0.055,5.795-3.741,6.726-7.126
		c1.366-4.969,1.224-10.079,1.168-15.179c-0.054-4.946-1.793-9.764-0.729-14.775c0.288-1.357,0.867-3.058,2.391-3.425
		c1.963-0.473,2.937,1.319,3.404,2.89c0.75,2.521,1.166,5.261,2.83,7.297c1.262,1.543,3.19,2.521,5.18,2.626
		c1.99,0.106,4.012-0.662,5.43-2.062c1.274-1.258,2.118-3.021,3.72-3.821c1.683-0.842,3.949-0.237,4.99,1.33
		c0.498,0.75,0.72,1.644,0.936,2.518c0.773,3.123,1.697,6.426,3.842,8.749V-1.576z"/>
	<path style="clip-path:url(#SVGID_2_);fill:#5B2B17;" d="M275.587-4.226c-3.468,0.074-6.93,0.382-10.354,0.937
		c-4.148,0.671-8.246,1.691-12.433,2.043c-15.107,1.271-30.455-6.178-45.142-2.42c-1.819,0.465-3.591,1.098-5.408,1.569
		c-8.156,2.116-18.346,1.438-26.411-0.946c-7.868-2.326-16.505-2.573-24.727-1.87c-7.48,0.64-14.846,2.419-22.348,2.73
		c-13.834,0.572-27.529-3.868-41.356-3.138C77.195-4.783,67.181-1.43,56.964-1.908c-8.137-0.381-16.031-3.184-24.174-3.397
		c-8.798-0.23-17.428,2.573-26.227,2.733C4.031-2.526,1.507-2.685-1.016-2.884V30.45c0.012,0.024,0.024,0.047,0.035,0.07
		c2.832,5.822,4.423,12.671,9.479,16.715c6.36,5.088,17.132,2.9,21.003-4.266c1.148-2.125,1.739-4.536,3.057-6.56
		c3.365-5.166,11.61-6.173,16.12-1.97c4.254,3.965,4.783,10.885,9.217,14.649c4.066,3.452,10.941,2.81,14.299-1.335
		c2.553-3.152,3.369-7.971,7.05-9.675c3.139-1.453,6.949,0.241,9.279,2.797c3.523,3.866,4.697,9.402,4.438,14.627
		c-0.26,5.224-1.793,10.287-3.054,15.363c-1.084,4.365-2.397,8.821-0.272,13.067c1.804,3.606,5.076,6.476,8.919,7.718
		c3.473,1.122,7.348,0.893,10.697-0.54c4.746-2.032,7.391-7.269,8.203-12.128c1.078-6.451-2.195-11.563-4.172-17.492
		c-1.891-5.669-3.009-11.595-3.315-17.564c-0.117-2.27-0.098-4.634,0.862-6.695c0.96-2.061,3.104-3.731,5.361-3.456
		c2.267,0.276,3.921,2.37,4.631,4.541c0.711,2.17,0.735,4.502,1.217,6.734c1.398,6.467,8.182,12.074,14.472,10.022
		c5.558-1.813,8.128-8.617,7.246-14.396c-0.406-2.659-1.367-5.226-1.561-7.908c-0.333-4.609,3.232-9.592,8.24-7.271
		c2.027,0.939,3.367,2.6,4.618,4.383c0.933,1.329,1.816,2.483,1.944,4.151c0.338,4.395-1.01,8.825-0.134,13.178
		c0.66,3.279,2.852,6.472,6.09,7.309c2.642,0.683,4.482-0.33,6.854-1.385c0.535-0.238,0.458-0.577,0.953-0.251
		c0.247,0.162,0.366,1.614,0.438,1.931c0.252,1.112,0.504,2.224,0.756,3.336c0.388,1.709,0.78,3.434,1.518,5.024
		c1.493,3.215,4.642,4.984,8.123,5.304c3.282,0.302,6.981-0.843,9.186-3.375c1.816-2.084,2.633-4.945,2.31-7.678
		c-0.337-2.848-0.448-5.686-1.179-8.505c-0.601-2.319-0.971-4.612-1.815-6.86c-0.99-2.635-2.043-5.35-1.903-8.161
		c0.237-4.755,4.708-5.921,7.995-2.72c1.765,1.719,2.688,4.095,3.822,6.282c1.134,2.187,2.695,4.383,5.039,5.142
		c3.892,1.26,8.049-1.939,12.064-1.152c3.135,0.614,5.339,3.548,6.334,6.584c0.995,3.036,1.085,6.288,1.75,9.413
		c0.73,3.432,2.167,6.712,4.193,9.576c1.516,2.143,3.687,4.201,6.312,4.16c3.51-0.055,5.795-3.741,6.726-7.126
		c1.366-4.969,1.224-10.079,1.168-15.179c-0.054-4.946-1.793-9.764-0.729-14.775c0.288-1.357,0.867-3.058,2.391-3.425
		c1.963-0.473,2.937,1.319,3.404,2.89c0.75,2.521,1.166,5.261,2.83,7.297c1.262,1.543,3.19,2.521,5.18,2.626
		c1.99,0.106,4.012-0.662,5.43-2.062c1.274-1.258,2.118-3.021,3.72-3.821c1.683-0.841,3.949-0.237,4.99,1.33
		c0.498,0.75,0.72,1.644,0.936,2.518c0.773,3.123,1.697,6.426,3.842,8.749V-4.226z"/>
	<path style="opacity:0.2;clip-path:url(#SVGID_2_);fill:#C1765F;" d="M12.365,45.188c2.517,1.116,5.558,1.15,8.052-0.052
		c0.906-0.437,1.735-0.963,2.307-1.796c0.336-0.489,0.635-1.065,0.862-1.61c0.218-0.524,0.19-1.577,0.475-1.992
		c-0.529,0.768-1.067,1.546-1.781,2.147c-1.653,1.389-3.989,1.62-6.142,1.46c-0.948-0.07-1.897-0.205-2.803-0.492
		c-3.431-1.086-5.8-4.149-7.873-7.09c-0.953-1.351-1.926-2.811-1.992-4.463C3.54,37.175,6.982,42.802,12.365,45.188z"/>
	<path style="opacity:0.2;clip-path:url(#SVGID_2_);fill:#C1765F;" d="M69.417,44.129c-1.55,1.199-3.24,2.452-5.198,2.528
		c-2.27,0.088-4.328-1.48-5.556-3.391c-1.227-1.911-1.806-4.152-2.535-6.303c-0.729-2.151-1.684-4.332-3.43-5.785
		c-1.879-1.563-4.922-2.423-7.35-2.47c3.034-0.337,5.338,2.794,6.672,5.091c1.417,2.44,2.103,5.224,3.167,7.837
		c1.064,2.613,2.656,5.203,5.189,6.444c1.965,0.963,4.371,0.974,6.345,0.03c1.974-0.944,3.475-2.824,3.959-4.958
		C70.259,43.477,69.838,43.803,69.417,44.129z"/>
	<path style="opacity:0.2;clip-path:url(#SVGID_2_);fill:#C1765F;" d="M91.655,35.831c1.625,1.644,2.747,3.72,3.643,5.85
		c0.933,2.216,1.654,4.615,1.347,7c-0.211-0.791-0.422-1.582-0.634-2.372c-0.314-1.175-0.629-2.355-1.108-3.474
		c-1.218-2.847-3.511-5.218-6.316-6.53c-3.402-1.591-8.148-1.77-11.503,0.048c0.631-0.137,1.118-0.619,1.621-1.025
		c0.694-0.561,1.48-1.008,2.316-1.319C84.882,32.574,88.667,32.808,91.655,35.831z"/>
	<path style="opacity:0.2;clip-path:url(#SVGID_2_);fill:#C1765F;" d="M98.452,61.83c-0.083-2.154-0.62-4.276-1.15-6.385
		c3.014,4.657,3.466,10.865,1.159,15.909c-0.505,1.105-1.131,2.152-1.613,3.267c-1.602,3.71-1.478,8.124,0.331,11.738
		c0.365,0.728,0.803,1.436,1.418,1.97c0.415,0.361,0.901,0.632,1.401,0.859c2.053,0.931,4.432,1.122,6.608,0.531
		c2.175-0.591,4.131-1.96,5.431-3.802c-0.711,2.665-2.999,4.774-5.646,5.552c-2.646,0.778-5.574,0.309-8.008-0.988
		c-0.669-0.356-1.31-0.777-1.842-1.317c-0.555-0.565-0.977-1.245-1.378-1.928c-0.529-0.9-1.039-1.831-1.269-2.85
		c-0.161-0.711-0.181-1.446-0.176-2.174c0.021-3.186,0.395-6.448,1.655-9.361c1.151-2.663,2.441-5.461,2.925-8.393
		C98.444,63.576,98.485,62.701,98.452,61.83z"/>
	<path style="opacity:0.2;clip-path:url(#SVGID_2_);fill:#C1765F;" d="M127.685,41.268c-0.565-3.895-1.932-8.664-6.432-9.466
		c-0.541-0.096-1.094-0.097-1.644-0.092c-0.812,0.007-1.624,0.027-2.435,0.058c0.539,0.098,1.075,0.213,1.607,0.345
		c2.253,0.556,4.223,1.69,5.16,3.868c1.041,2.421,1.092,5.116,1.546,7.677c0.341,1.924,0.924,3.836,1.996,5.47
		c1.072,1.634,2.675,2.976,4.569,3.456c1.894,0.48,4.073-0.006,5.391-1.449c-3.568,0.767-7.535-1.386-8.837-4.795
		C127.991,44.73,127.932,42.973,127.685,41.268z"/>
	<path style="opacity:0.2;clip-path:url(#SVGID_2_);fill:#C1765F;" d="M160.681,37.05c0.348-1.455,0.451-2.927,0.561-4.413
		c0.125-1.69,0.117-3.616-0.652-5.207c-0.934-1.933-2.85-2.657-4.84-3.065c-1.881-0.385-3.828-0.177-5.729,0.093
		c3.792-0.034,7.162,1.466,8.563,5.157c0.991,2.612,0.819,5.544,0.103,8.245c-0.248,0.934-0.559,1.852-0.758,2.798
		c-0.341,1.622-0.346,3.294-0.35,4.951c-0.002,0.948,0.017,1.968,0.573,2.736c0.529,0.731,1.485,1.14,1.808,1.982
		c-1.579-1.711-1.767-4.315-1.301-6.596C159.124,41.45,160.14,39.314,160.681,37.05z"/>
	<path style="opacity:0.2;clip-path:url(#SVGID_2_);fill:#C1765F;" d="M174.194,57.935c0.704,3.072,1.809,6.073,4.207,7.814
		c1.516,1.101,3.514,1.509,5.34,1.092c1.826-0.417,3.448-1.653,4.336-3.302c-1.216,0.757-2.521,1.421-3.933,1.661
		c-1.412,0.24-2.953,0.01-4.08-0.874c-0.626-0.491-1.094-1.154-1.518-1.828c-1.722-2.739-2.858-5.798-3.981-8.832
		c-0.84-2.268-1.68-4.537-2.52-6.805c0.604,1.631,0.66,3.538,1.022,5.24C173.439,53.847,173.729,55.906,174.194,57.935z"/>
	<path style="opacity:0.2;clip-path:url(#SVGID_2_);fill:#C1765F;" d="M203.389,35.174c-1.527-1.83-2.326-4.141-3.464-6.234
		c-1.139-2.094-2.841-4.123-5.178-4.585c-1.804-0.357-3.78,0.365-4.929,1.802c1.587-0.897,3.658-0.863,5.215,0.086
		c1.818,1.108,2.754,3.186,3.683,5.102c1.095,2.258,2.342,4.483,4.102,6.271c1.76,1.788,4.099,3.117,6.606,3.23
		c2.507,0.113,5.14-1.168,6.221-3.432c-1.962,1.108-4.316,1.504-6.533,1.099C206.895,38.106,204.833,36.904,203.389,35.174z"/>
	<path style="opacity:0.2;clip-path:url(#SVGID_2_);fill:#C1765F;" d="M227.816,48.418c-0.484-1.333-0.96-2.254-1.975-3.201
		c-1.168-1.09-2.154-1.435-3.559-2.073c1.137,0.517,1.829,1.666,2.451,2.75c0.239,0.417,0.479,0.835,0.698,1.263
		c1.042,2.036,1.321,4.302,1.779,6.523c0.691,3.353,1.059,6.825,2.492,9.934c0.469,1.018,1.093,2.03,2.07,2.579
		c0.837,0.471,1.833,0.546,2.793,0.579c0.69,0.024,1.415,0.023,2.022-0.306c1.05-0.568,1.397-1.892,2.178-2.795
		c-0.944,1.683-3.36,2.118-5.097,1.276c-1.737-0.841-2.84-2.637-3.389-4.488c-0.549-1.851-0.635-3.801-0.898-5.713
		C229.085,52.589,228.56,50.464,227.816,48.418z"/>
	<path style="opacity:0.2;clip-path:url(#SVGID_2_);fill:#C1765F;" d="M251.776,29.437c-0.405-1.246-1.546-3.311-3.038-3.486
		c-1.263-0.149-3.344,0.848-4.502,1.319c-0.305,0.124-0.628,0.275-0.79,0.562c0.207-0.289,0.574-0.412,0.922-0.488
		c2.337-0.511,4.575-0.096,5.542,2.217c0.896,2.141,0.995,4.529,1.664,6.752c0.669,2.223,2.208,4.47,4.503,4.817
		c0.996,0.15,2.008-0.08,2.98-0.344c0.532-0.144,1.101-0.326,1.428-0.77c-1.061,0.035-2.121,0.069-3.182,0.104
		c-0.387,0.013-0.78,0.025-1.154-0.077c-0.772-0.209-1.337-0.862-1.779-1.528c-0.687-1.035-1.201-2.185-1.513-3.387
		C252.373,33.256,252.374,31.275,251.776,29.437z"/>
</g>
</svg>
