<?xml version="1.0" encoding="iso-8859-1"?>
<!-- Generator: Adobe Illustrator 22.0.1, SVG Export Plug-In . SVG Version: 6.00 Build 0)  -->
<svg version="1.1" xmlns="http://www.w3.org/2000/svg" xmlns:xlink="http://www.w3.org/1999/xlink" x="0px" y="0px"
	 viewBox="0 0 46 35" style="enable-background:new 0 0 46 35;" xml:space="preserve">
<g id="&#x41F;&#x440;&#x44F;&#x43C;&#x43E;&#x443;&#x433;&#x43E;&#x43B;&#x44C;&#x43D;&#x438;&#x43A;_9_1_" style="enable-background:new    ;">
	<g id="&#x41F;&#x440;&#x44F;&#x43C;&#x43E;&#x443;&#x433;&#x43E;&#x43B;&#x44C;&#x43D;&#x438;&#x43A;_9">
		<g>
			<path style="fill:#FF788B;" d="M38.625,2.688c2.757,0,5,2.243,5,5v19.625c0,2.757-2.243,5-5,5H7.375c-2.757,0-5-2.243-5-5V7.688
				c0-2.757,2.243-5,5-5H38.625 M38.625,0.688H7.375c-3.866,0-7,3.134-7,7v19.625c0,3.866,3.134,7,7,7h31.25c3.866,0,7-3.134,7-7
				V7.688C45.625,3.822,42.491,0.688,38.625,0.688L38.625,0.688z"/>
		</g>
	</g>
</g>
<g id="&#x41F;&#x440;&#x44F;&#x43C;&#x43E;&#x443;&#x433;&#x43E;&#x43B;&#x44C;&#x43D;&#x438;&#x43A;_10_&#x43A;&#x43E;&#x43F;&#x438;&#x44F;_1_" style="enable-background:new    ;">
	
		<g id="&#x41F;&#x440;&#x44F;&#x43C;&#x43E;&#x443;&#x433;&#x43E;&#x43B;&#x44C;&#x43D;&#x438;&#x43A;_10_&#x43A;&#x43E;&#x43F;&#x438;&#x44F;">
		<g>
			<path style="fill-rule:evenodd;clip-rule:evenodd;fill:#FF788B;" d="M36.675,8.781H8.388c-0.559,0-1.013,0.453-1.013,1.013v0.756
				c0,0.559,0.453,1.013,1.013,1.013h28.287c0.559,0,1.013-0.453,1.013-1.013V9.794C37.688,9.235,37.234,8.781,36.675,8.781z"/>
		</g>
	</g>
</g>
<g id="&#x41F;&#x440;&#x44F;&#x43C;&#x43E;&#x443;&#x433;&#x43E;&#x43B;&#x44C;&#x43D;&#x438;&#x43A;_10_&#x43A;&#x43E;&#x43F;&#x438;&#x44F;_2_1_" style="enable-background:new    ;">
	
		<g id="&#x41F;&#x440;&#x44F;&#x43C;&#x43E;&#x443;&#x433;&#x43E;&#x43B;&#x44C;&#x43D;&#x438;&#x43A;_10_&#x43A;&#x43E;&#x43F;&#x438;&#x44F;_2">
		<g>
			<path style="fill-rule:evenodd;clip-rule:evenodd;fill:#FF788B;" d="M36.675,16.531H8.388c-0.559,0-1.013,0.453-1.013,1.013V18.3
				c0,0.559,0.453,1.013,1.013,1.013h28.287c0.559,0,1.013-0.453,1.013-1.013v-0.756C37.688,16.985,37.234,16.531,36.675,16.531z"/>
		</g>
	</g>
</g>
<g id="&#x41F;&#x440;&#x44F;&#x43C;&#x43E;&#x443;&#x433;&#x43E;&#x43B;&#x44C;&#x43D;&#x438;&#x43A;_10_&#x43A;&#x43E;&#x43F;&#x438;&#x44F;_3_1_" style="enable-background:new    ;">
	
		<g id="&#x41F;&#x440;&#x44F;&#x43C;&#x43E;&#x443;&#x433;&#x43E;&#x43B;&#x44C;&#x43D;&#x438;&#x43A;_10_&#x43A;&#x43E;&#x43F;&#x438;&#x44F;_3">
		<g>
			<path style="fill-rule:evenodd;clip-rule:evenodd;fill:#FF788B;" d="M36.675,24.281H8.388c-0.559,0-1.013,0.453-1.013,1.013
				v0.756c0,0.559,0.453,1.013,1.013,1.013h28.287c0.559,0,1.013-0.453,1.013-1.013v-0.756
				C37.688,24.735,37.234,24.281,36.675,24.281z"/>
		</g>
	</g>
</g>
</svg>
