<?xml version="1.0" encoding="iso-8859-1"?>
<!-- Generator: Adobe Illustrator 22.0.1, SVG Export Plug-In . SVG Version: 6.00 Build 0)  -->
<svg version="1.1" id="&#x421;&#x43B;&#x43E;&#x439;_1"
	 xmlns="http://www.w3.org/2000/svg" xmlns:xlink="http://www.w3.org/1999/xlink" x="0px" y="0px" viewBox="0 0 240 50"
	 style="enable-background:new 0 0 240 50;" xml:space="preserve">
<path style="fill:#ED1C24;" d="M237,34.661c-0.119,0.006-0.238,0.015-0.357,0.018c-3.952,0.087-3.981,0.097-5.353-3.538
	c-0.335-0.887-0.784-1.33-1.736-1.186c-0.155,0.023-0.321,0.025-0.475,0c-2.577-0.417-4.422,0.17-4.926,3.146
	c-0.217,1.278-1.43,1.56-2.626,1.589c-2.461,0.06-2.451,0.068-2.447-2.325c0.002-0.78-0.04-1.507,1.015-1.686
	c0.42-0.071,0.465-0.607,0.6-0.97c1.579-4.24,3.182-8.471,4.702-12.731c0.374-1.049,0.861-1.522,2.04-1.48
	c3.39,0.121,2.613-0.394,3.73,2.588c1.448,3.865,2.89,7.732,4.289,11.615c0.284,0.788,0.697,1.209,1.544,1.145
	C237,32.116,237,33.388,237,34.661z M228.216,21.933c-0.084-0.005-0.168-0.01-0.251-0.016c-0.252,0.744-0.505,1.489-0.757,2.233
	c-0.745,2.202-0.574,2.389,1.771,2.114c0.569-0.067,0.683-0.292,0.514-0.77C229.07,24.307,228.642,23.12,228.216,21.933z"/>
<path style="fill:#ED1C24;" d="M25.899,2.697c2.632,2.647,5.269,5.29,7.891,7.946c0.317,0.321,0.903,0.603,0.684,1.143
	c-0.233,0.576-0.876,0.423-1.374,0.441c-0.674,0.026-1.351,0.032-2.025,0.006c-1.059-0.041-1.531,0.467-1.525,1.504
	c0.009,1.628,0.009,3.257-0.006,4.885c-0.014,1.498-0.314,1.79-1.845,1.802c-1.549,0.012-3.098,0.011-4.647,0.001
	c-1.584-0.01-1.93-0.36-1.947-1.987c-0.016-1.549-0.037-3.099,0.004-4.647c0.03-1.126-0.467-1.6-1.571-1.56
	c-0.833,0.03-1.668,0.006-2.502-0.014c-0.355-0.009-0.776-0.011-0.955-0.366c-0.222-0.441,0.141-0.75,0.415-1.023
	c2.732-2.716,5.472-5.422,8.21-8.132C25.104,2.697,25.502,2.697,25.899,2.697z"/>
<path style="fill:#ED1C24;" d="M24.945,47.303c-2.957-2.598-5.599-5.517-8.41-8.264c-0.201-0.197-0.403-0.439-0.296-0.733
	c0.132-0.363,0.492-0.358,0.81-0.362c0.874-0.011,1.748-0.014,2.622-0.013c0.983,0.001,1.448-0.461,1.434-1.465
	c-0.024-1.747-0.017-3.496,0.003-5.243c0.018-1.557,0.458-2.024,1.968-2.049c1.588-0.027,3.179-0.038,4.766,0.013
	c1.3,0.042,1.685,0.47,1.7,1.767c0.02,1.748-0.01,3.496,0.016,5.243c0.019,1.3,0.431,1.695,1.723,1.732
	c0.595,0.017,1.192-0.014,1.787,0.013c0.416,0.019,0.967-0.168,1.181,0.323c0.24,0.551-0.298,0.851-0.615,1.173
	c-1.589,1.613-3.189,3.215-4.8,4.806c-1.045,1.032-2.114,2.039-3.172,3.057C25.422,47.303,25.184,47.303,24.945,47.303z"/>
<path style="fill:#ED1C24;" d="M3,24.404c2.677-2.708,5.352-5.418,8.036-8.119c0.269-0.271,0.551-0.655,1.008-0.447
	c0.397,0.181,0.316,0.608,0.316,0.953c0.006,5.435,0.005,10.871,0,16.306c0,0.347,0.072,0.781-0.333,0.943
	c-0.457,0.183-0.721-0.224-0.992-0.492c-2.682-2.646-5.357-5.3-8.035-7.951C3,25.199,3,24.801,3,24.404z"/>
<path style="fill:#ED1C24;" d="M189.752,34.688c-2.783,0-5.566,0.004-8.348-0.001c-2.568-0.005-3.124-0.571-3.127-3.179
	c-0.003-3.618-0.01-7.235,0.005-10.853c0.003-0.71-0.078-1.264-0.976-1.289c-0.558-0.016-0.697-0.43-0.699-0.92
	c-0.016-3.535-0.251-2.855,2.658-2.923c0.358-0.008,0.716-0.008,1.073,0.004c1.637,0.053,2.316,0.705,2.326,2.353
	c0.023,3.777,0.007,7.553,0.011,11.33c0.001,1.585,0.005,1.585,1.576,1.592c3.316,0.015,3.315,0.015,3.316-3.312
	c0-3.538,0.031-7.077-0.018-10.614c-0.014-1.05,0.354-1.394,1.386-1.369c3.506,0.085,2.998-0.41,3.023,2.934
	c0.027,3.657,0.045,7.315-0.016,10.972c-0.019,1.125,0.381,1.495,1.451,1.402c0.75-0.066,1.513-0.059,2.264-0.002
	c0.96,0.072,1.226-0.349,1.217-1.259c-0.036-3.816-0.02-7.633-0.012-11.449c0.004-1.956,0.607-2.556,2.563-2.578
	c0.835-0.01,1.67,0.017,2.504-0.001c0.714-0.016,1.01,0.327,0.995,1.016c-0.012,0.556-0.016,1.114,0.006,1.669
	c0.027,0.682-0.14,1.164-0.947,1.209c-0.827,0.047-0.726,0.702-0.727,1.247c-0.007,3.578-0.003,7.156-0.005,10.734
	c-0.002,2.741-0.545,3.286-3.27,3.289C195.238,34.69,192.495,34.688,189.752,34.688z"/>
<path style="fill:#ED1C24;" d="M83.917,15.265c5.575,0.027,9.947,4.316,9.925,9.736c-0.023,5.588-4.513,9.978-10.173,9.946
	c-5.563-0.031-9.902-4.454-9.88-10.072C73.81,19.399,78.196,15.237,83.917,15.265z M78.377,24.985
	c0.004,3.341,2.341,5.828,5.468,5.819c2.969-0.008,5.428-2.63,5.439-5.8c0.012-3.191-2.388-5.622-5.537-5.61
	C80.618,19.406,78.373,21.744,78.377,24.985z"/>
<path style="fill:#ED1C24;" d="M166.041,15.264c5.677-0.005,10.03,4.202,10.043,9.707c0.014,5.544-4.421,9.97-9.996,9.976
	c-5.659,0.007-10.022-4.372-10.011-10.046C156.088,19.439,160.399,15.269,166.041,15.264z M160.661,25.024
	c0.018,3.334,2.374,5.805,5.509,5.779c2.952-0.024,5.419-2.691,5.402-5.841c-0.016-3.19-2.425-5.592-5.584-5.568
	C162.861,19.419,160.643,21.762,160.661,25.024z"/>
<path style="fill:#ED1C24;" d="M95.986,26.397c0-1.948-0.004-3.895,0.003-5.843c0.002-0.6-0.048-1.134-0.837-1.162
	c-0.678-0.024-0.84-0.456-0.84-1.05c0-3.357-0.226-2.778,2.648-2.816c2.027-0.027,4.054,0.005,6.081-0.007
	c0.803-0.005,1.586,0.111,2.353,0.327c3.599,1.018,4.973,4.797,2.815,7.845c-0.424,0.598-0.474,0.879,0.111,1.427
	c2.618,2.452,2.026,6.767-1.114,8.535c-1.206,0.679-2.526,0.968-3.887,1.01c-1.628,0.051-3.259,0.048-4.888,0.008
	c-1.669-0.041-2.4-0.773-2.431-2.433c-0.036-1.947-0.008-3.895-0.008-5.842C95.991,26.397,95.988,26.397,95.986,26.397z
	 M100.369,28.605c0.017,2.386-0.231,2.187,2.165,2.196c0.357,0.001,0.717,0.012,1.071-0.023c1.191-0.12,1.876-0.871,1.893-2.046
	c0.017-1.214-0.702-2.022-1.947-2.113c-0.711-0.052-1.43,0.006-2.143-0.029c-0.774-0.038-1.095,0.306-1.04,1.063
	C100.391,27.968,100.372,28.287,100.369,28.605z M102.051,22.921c1.549-0.002,2.032-0.158,2.445-0.768
	c0.536-0.791,0.365-1.982-0.354-2.465c-0.665-0.447-3.476-0.447-3.63,0.056c-0.281,0.916-0.32,1.925-0.003,2.811
	C100.752,23.237,101.574,22.8,102.051,22.921z"/>
<path style="fill:#ED1C24;" d="M55.655,26.97c-0.001-2.146-0.001-4.293-0.001-6.439c0-0.533,0.014-1.092-0.731-1.119
	c-0.807-0.029-0.954-0.511-0.947-1.198c0.034-3.13-0.28-2.644,2.652-2.692c0.238-0.004,0.477-0.002,0.715,0
	c2.079,0.02,2.691,0.629,2.707,2.714c0.01,1.312,0.021,2.624,0,3.935c-0.012,0.701,0.268,1.014,0.984,1.006
	c1.709-0.021,3.418-0.021,5.127-0.001c0.73,0.009,0.977-0.339,0.969-1.024c-0.018-1.391-0.027-2.783,0.009-4.173
	c0.045-1.769,0.728-2.418,2.497-2.455c0.358-0.007,0.715-0.003,1.073-0.003c2.486-0.001,3.047,0.737,2.471,3.209
	c-0.084,0.36-0.255,0.616-0.609,0.618c-1.049,0.004-1.057,0.684-1.055,1.458c0.015,4.134-0.028,8.268,0.028,12.401
	c0.016,1.155-0.376,1.526-1.509,1.499c-3.323-0.08-2.872,0.323-2.906-2.833c-0.014-1.272-0.021-2.544,0-3.816
	c0.012-0.708-0.288-1.005-0.996-0.997c-1.709,0.02-3.418,0.021-5.127,0.001c-0.739-0.009-0.963,0.355-0.957,1.033
	c0.017,1.788-0.021,3.578,0.011,5.366c0.015,0.841-0.269,1.244-1.163,1.233c-3.897-0.046-3.174,0.395-3.238-3.073
	C55.632,30.071,55.655,28.52,55.655,26.97z"/>
<path style="fill:#ED1C24;" d="M144.726,15.523c2.226,0.001,4.451-0.017,6.677,0.007c1.717,0.018,2.394,0.686,2.402,2.394
	c0.02,3.855,0.014,7.71,0.003,11.565c-0.002,0.731,0.008,1.377,1.015,1.349c0.422-0.011,0.64,0.285,0.644,0.702
	c0.008,0.794,0.007,1.589,0,2.384c-0.004,0.488-0.291,0.735-0.753,0.736c-1.151,0.004-2.312,0.072-3.451-0.054
	c-1.325-0.147-1.83-0.878-1.839-2.469c-0.02-3.656-0.007-7.312-0.009-10.969c-0.001-1.762-0.003-1.763-1.782-1.766
	c-1.272-0.002-2.545,0.039-3.815-0.012c-0.939-0.038-1.244,0.338-1.237,1.26c0.034,4.093,0.016,8.187,0.013,12.28
	c-0.001,1.746-0.008,1.762-1.691,1.756c-3.08-0.01-2.689,0.268-2.703-2.65c-0.017-3.736-0.011-7.471,0.001-11.207
	c0.002-0.759,0.025-1.461-1.037-1.476c-0.419-0.006-0.615-0.315-0.627-0.729c-0.003-0.119-0.014-0.238-0.014-0.357
	c0.008-3.193-0.258-2.708,2.598-2.74C140.99,15.504,142.858,15.522,144.726,15.523z"/>
<path style="fill:#ED1C24;" d="M119.723,15.522c2.513,0.023,2.055-0.233,2.899,2.043c1.49,4.018,2.981,8.035,4.466,12.054
	c0.208,0.562,0.354,1.138,1.109,1.232c0.44,0.055,0.48,0.453,0.526,0.822c0.347,2.769-0.277,3.379-3.048,2.979
	c-0.939-0.136-1.628-0.59-1.992-1.488c-0.045-0.11-0.076-0.228-0.134-0.331c-0.514-0.915-0.356-2.486-1.411-2.731
	c-1.506-0.351-3.151-0.112-4.737-0.098c-0.366,0.003-0.515,0.327-0.631,0.634c-0.168,0.446-0.335,0.891-0.505,1.336
	c-0.948,2.492-1.957,3.081-4.635,2.695c-0.192-0.028-0.412-0.053-0.561-0.16c-0.544-0.388-0.444-3.444,0.164-3.612
	c0.766-0.211,0.949-0.758,1.169-1.351c1.491-4.017,2.983-8.034,4.472-12.052C117.742,15.155,117.473,15.569,119.723,15.522z
	 M119.74,21.525c-0.364,1.058-0.648,1.872-0.925,2.689c-0.713,2.1-0.57,2.259,1.648,2.047c0.653-0.063,0.834-0.298,0.612-0.91
	C120.647,24.167,120.244,22.974,119.74,21.525z"/>
<path style="fill:#ED1C24;" d="M214.644,27.015c-0.001,2.145-0.033,4.291,0.013,6.435c0.021,0.944-0.358,1.259-1.264,1.246
	c-3.692-0.054-3.107,0.392-3.136-3.061c-0.031-3.615,0-7.23-0.015-10.844c-0.002-0.556,0.195-1.297-0.722-1.36
	c-0.736-0.05-1.591-0.235-1.626,0.962c-0.013,0.43-0.326,0.605-0.722,0.647c-0.079,0.008-0.161,0.026-0.237,0.015
	c-0.984-0.144-2.413,0.541-2.868-0.446c-0.577-1.251-0.439-2.811,0.121-4.175c0.287-0.699,0.986-0.895,1.694-0.896
	c4.409-0.009,8.818-0.009,13.228-0.002c0.825,0.001,1.509,0.33,1.764,1.155c0.383,1.238,0.175,2.519,0.148,3.784
	c-0.002,0.075-0.027,0.177-0.079,0.218c-0.917,0.718-1.981,0.255-2.976,0.35c-0.546,0.052-0.91-0.218-0.973-0.806
	c-0.11-1.027-0.893-0.814-1.541-0.82c-0.824-0.008-0.806,0.586-0.805,1.164C214.647,22.725,214.646,24.87,214.644,27.015z"/>
<path style="fill:#ED1C24;" d="M38.289,24.946c0-2.581-0.004-5.163,0.005-7.744c0.002-0.428-0.066-0.964,0.398-1.167
	c0.5-0.219,0.775,0.285,1.07,0.578c2.338,2.323,4.67,4.653,6.995,6.99c1.107,1.113,1.122,1.585,0.036,2.683
	c-2.319,2.343-4.655,4.668-6.992,6.993c-0.299,0.297-0.592,0.763-1.086,0.564c-0.481-0.194-0.42-0.722-0.421-1.151
	C38.284,30.109,38.288,27.528,38.289,24.946z"/>
</svg>
