<?xml version="1.0" encoding="iso-8859-1"?>
<!-- Generator: Adobe Illustrator 22.0.1, SVG Export Plug-In . SVG Version: 6.00 Build 0)  -->
<svg version="1.1" id="Capa_1" xmlns="http://www.w3.org/2000/svg" xmlns:xlink="http://www.w3.org/1999/xlink" x="0px" y="0px"
	 viewBox="167 357 80 80" style="enable-background:new 167 357 80 80;" xml:space="preserve">
<path style="fill:#F2D0CD;" d="M246.468,403.29l-8.986-14.377c-0.18-0.539-0.899-0.899-1.438-0.899h-57.508
	c-0.539,0-1.258,0.359-1.438,0.899l-8.986,14.377c-0.359,0.539-0.359,1.258,0,1.797c0.18,0.539,0.719,0.899,1.438,0.899h7.189
	v23.363c0,3.055,2.336,5.391,5.391,5.391h28.754h21.566c3.055,0,5.391-2.336,5.391-5.391v-17.971c0-1.078-0.719-1.797-1.797-1.797
	s-1.797,0.719-1.797,1.797v17.971c0,1.078-0.719,1.797-1.797,1.797h-19.768v-30.551c0-1.078-0.719-1.797-1.797-1.797
	s-1.797,0.719-1.797,1.797v30.551h-26.957c-1.078,0-1.797-0.719-1.797-1.797v-25.16c0-1.078-0.719-1.797-1.797-1.797h-5.751
	l6.829-10.783h28.035l-6.29,9.884c-0.359,0.539-0.899,0.899-1.438,0.899h-14.197c-1.078,0-1.797,0.719-1.797,1.797
	s0.719,1.797,1.797,1.797h14.197c1.797,0,3.594-0.899,4.493-2.516l6.47-10.244l6.47,10.244c1.078,1.617,2.696,2.516,4.493,2.516
	h23.183c0.719,0,1.258-0.359,1.617-0.899C247.007,404.548,246.827,403.829,246.468,403.29z M221.847,402.391
	c-0.539,0-1.258-0.359-1.438-0.899l-6.29-9.884h20.847l6.829,10.783H221.847z"/>
<path style="fill:#F2D0CD;" d="M198.305,420.363c0-1.078-0.719-1.797-1.797-1.797h-10.783c-1.078,0-1.797,0.719-1.797,1.797
	s0.719,1.797,1.797,1.797h10.783C197.586,422.16,198.305,421.441,198.305,420.363z"/>
<path style="fill:#F2D0CD;" d="M185.725,423.957c-1.078,0-1.797,0.719-1.797,1.797s0.719,1.797,1.797,1.797h5.391
	c1.078,0,1.797-0.719,1.797-1.797s-0.719-1.797-1.797-1.797H185.725z"/>
<path style="fill:#F2D0CD;" d="M222.746,374.176c0.539,1.617,0.719,3.235,0.719,4.852c0,1.078-0.18,2.157-0.359,3.235
	c-0.18,0.899,0.359,1.977,1.438,2.157c0.18,0,0.18,0,0.359,0c0.899,0,1.617-0.539,1.797-1.438c0.18-1.258,0.359-2.696,0.359-3.954
	c0-1.977-0.359-3.954-0.899-5.931c-0.359-0.899-1.258-1.438-2.336-1.258C222.925,372.2,222.386,373.278,222.746,374.176z"/>
<path style="fill:#F2D0CD;" d="M189.678,384.42c0.18,0,0.18,0,0.359,0c0.899-0.18,1.617-1.078,1.438-2.157s-0.359-2.157-0.359-3.235
	c0-8.986,7.189-16.174,16.174-16.174c2.516,0,4.852,0.539,7.009,1.617c0.899,0.359,1.977,0,2.336-0.899
	c0.359-0.899,0-1.977-0.899-2.336c-2.516-1.258-5.391-1.977-8.447-1.977c-10.962,0-19.768,8.806-19.768,19.768
	c0,1.258,0.18,2.696,0.359,3.954C188.061,383.881,188.78,384.42,189.678,384.42z"/>
<path style="fill:#F2D0CD;" d="M203.157,374.176c-0.719-0.719-1.797-0.719-2.516,0c-0.719,0.719-0.719,1.797,0,2.516l5.391,5.391
	c0.359,0.359,0.899,0.539,1.258,0.539c0.359,0,0.899-0.18,1.258-0.539l14.377-14.377c0.719-0.719,0.719-1.797,0-2.516
	c-0.719-0.719-1.797-0.719-2.516,0L207.29,378.31L203.157,374.176z"/>
</svg>
