<?xml version="1.0" encoding="iso-8859-1"?>
<!-- Generator: Adobe Illustrator 22.0.1, SVG Export Plug-In . SVG Version: 6.00 Build 0)  -->
<svg version="1.1" id="OBJECTS" xmlns="http://www.w3.org/2000/svg" xmlns:xlink="http://www.w3.org/1999/xlink" x="0px" y="0px"
	 viewBox="0 0 330 270" style="enable-background:new 0 0 330 270;" xml:space="preserve">
<g>
	<g>
		
			<image style="overflow:visible;opacity:0.75;" width="50" height="50" xlink:href="A631FCB0.png"  transform="matrix(1 0 0 1 140 30)">
		</image>
		<g>
			<g>
				
					<ellipse transform="matrix(0.1611 -0.9869 0.9869 0.1611 84.3744 205.3334)" style="fill:#FF798F;" cx="162.969" cy="53.036" rx="18.555" ry="18.555"/>
				<g>
					<g>
						<path style="fill:#FFFFFF;" d="M161.534,65.371v-2.72c-1.562-0.027-3.178-0.512-4.121-1.185l0.646-1.805
							c0.97,0.646,2.37,1.158,3.878,1.158c1.913,0,3.205-1.104,3.205-2.639c0-1.481-1.05-2.397-3.043-3.205
							c-2.747-1.077-4.443-2.316-4.443-4.659c0-2.235,1.589-3.932,4.066-4.336v-2.72h1.67v2.612c1.616,0.054,2.72,0.485,3.501,0.943
							l-0.673,1.777c-0.565-0.323-1.669-0.916-3.393-0.916c-2.074,0-2.855,1.239-2.855,2.316c0,1.4,0.997,2.101,3.339,3.07
							c2.774,1.131,4.175,2.532,4.175,4.929c0,2.127-1.481,4.121-4.255,4.578v2.801H161.534z"/>
					</g>
				</g>
			</g>
		</g>
	</g>
	<g>
		
			<image style="overflow:visible;opacity:0.75;" width="289" height="192" xlink:href="A631FCB1.png"  transform="matrix(1 0 0 1 4 77)">
		</image>
		<g>
			<g>
				<g>
					<g>
						<path style="fill:#C9835E;" d="M276.295,242.75H16.904V92.099c0-5.988,4.854-10.843,10.843-10.843h237.706
							c5.988,0,10.843,4.854,10.843,10.843V242.75z"/>
						<rect x="28.825" y="92.133" style="fill:#FF798F;" width="235.55" height="139.741"/>
						<polygon style="fill:#E0B3B1;" points="28.825,92.133 28.825,175.5 28.825,207.722 144.414,92.133 						"/>
						<polygon style="fill:#E0B3B1;" points="161.068,92.133 28.825,224.376 28.825,231.874 50.568,231.874 190.31,92.133 						"/>
						<rect x="8.5" y="242.75" style="fill:#FFD3D0;" width="276.199" height="11.865"/>
						<polygon style="fill:#C9835E;" points="8.5,254.615 15.421,260.218 277.778,260.218 284.699,254.615 						"/>
						
							<line style="fill:#C9835E;stroke:#65270F;stroke-width:2;stroke-miterlimit:10;" x1="231.143" y1="248.683" x2="264.375" y2="248.683"/>
					</g>
					<g>
						<path style="fill:none;stroke:#FFFFFF;stroke-width:2;stroke-linecap:round;stroke-linejoin:round;stroke-miterlimit:10;" d="
							M194.014,208.251H99.185c-3.97,0-7.189-3.219-7.189-7.189v-14.496c0-3.97,3.219-7.189,7.189-7.189h94.829
							c3.97,0,7.189,3.219,7.189,7.189v14.496C201.203,205.032,197.985,208.251,194.014,208.251z"/>
						<g>
							<g>
								<path style="fill:#FFFFFF;" d="M113.806,189.32c0.626-0.104,1.446-0.194,2.49-0.194c1.282,0,2.221,0.298,2.817,0.835
									c0.552,0.477,0.88,1.208,0.88,2.102c0,0.909-0.269,1.625-0.775,2.146c-0.686,0.73-1.804,1.104-3.071,1.104
									c-0.388,0-0.746-0.015-1.043-0.089v4.025h-1.297V189.32z M115.104,194.165c0.283,0.074,0.641,0.104,1.073,0.104
									c1.565,0,2.52-0.761,2.52-2.147c0-1.327-0.939-1.968-2.371-1.968c-0.566,0-0.999,0.045-1.222,0.104V194.165z"/>
								<path style="fill:#FFFFFF;" d="M123.6,196.088l-1.043,3.161h-1.342l3.414-10.048h1.565l3.429,10.048h-1.387l-1.073-3.161
									H123.6z M126.895,195.074l-0.984-2.892c-0.224-0.656-0.373-1.252-0.522-1.833h-0.03c-0.149,0.596-0.313,1.208-0.507,1.819
									l-0.984,2.907H126.895z"/>
								<path style="fill:#FFFFFF;" d="M133.647,199.249v-4.264l-3.175-5.784h1.476l1.417,2.773c0.388,0.76,0.686,1.372,0.999,2.072
									h0.03c0.283-0.656,0.626-1.312,1.014-2.072l1.446-2.773h1.476l-3.369,5.77v4.278H133.647z"/>
								<path style="fill:#FFFFFF;" d="M149.285,194.836c-0.075-1.401-0.164-3.086-0.149-4.338h-0.045
									c-0.343,1.178-0.76,2.43-1.267,3.816l-1.774,4.875h-0.984l-1.625-4.786c-0.477-1.416-0.879-2.713-1.163-3.906h-0.03
									c-0.03,1.252-0.104,2.937-0.194,4.442l-0.268,4.309h-1.237l0.701-10.048h1.655l1.714,4.86
									c0.417,1.237,0.76,2.341,1.014,3.384h0.045c0.253-1.014,0.611-2.117,1.058-3.384l1.789-4.86h1.655l0.626,10.048h-1.267
									L149.285,194.836z"/>
								<path style="fill:#FFFFFF;" d="M159.495,194.538h-3.906v3.623h4.353v1.088h-5.65v-10.048h5.427v1.088h-4.129v3.175h3.906
									V194.538z"/>
								<path style="fill:#FFFFFF;" d="M163.117,199.249v-10.048h1.417l3.22,5.083c0.745,1.178,1.327,2.236,1.804,3.265l0.03-0.015
									c-0.119-1.342-0.149-2.564-0.149-4.129v-4.204h1.222v10.048h-1.312l-3.19-5.099c-0.701-1.118-1.372-2.266-1.878-3.354
									l-0.045,0.015c0.075,1.267,0.104,2.475,0.104,4.145v4.293H163.117z"/>
								<path style="fill:#FFFFFF;" d="M176.324,190.304h-3.056v-1.103h7.439v1.103h-3.071v8.945h-1.312V190.304z"/>
							</g>
						</g>
					</g>
				</g>
				
					<line style="fill:none;stroke:#FFFFFF;stroke-width:2;stroke-linecap:round;stroke-linejoin:round;stroke-miterlimit:10;" x1="103.462" y1="124.956" x2="189.738" y2="124.956"/>
				
					<line style="fill:none;stroke:#FFFFFF;stroke-width:2;stroke-linecap:round;stroke-linejoin:round;stroke-miterlimit:10;" x1="103.462" y1="136.91" x2="189.738" y2="136.91"/>
				
					<line style="fill:none;stroke:#FFFFFF;stroke-width:2;stroke-linecap:round;stroke-linejoin:round;stroke-miterlimit:10;" x1="103.462" y1="148.864" x2="189.738" y2="148.864"/>
			</g>
		</g>
	</g>
	<g>
		
			<image style="overflow:visible;opacity:0.75;" width="127" height="78" xlink:href="A631FCB7.png"  transform="matrix(1 0 0 1 203 98)">
		</image>
		<g>
			<g>
				<path style="fill:#68270E;" d="M314.664,167.446h-100.58c-3.775,0-6.836-3.06-6.836-6.836v-51.672
					c0-3.775,3.06-6.836,6.836-6.836h100.58c3.775,0,6.836,3.06,6.836,6.836v51.672C321.5,164.385,318.44,167.446,314.664,167.446z"
					/>
				<g>
					<g>
						<path style="fill:#FFFFFF;" d="M226.781,116.694c-0.235,0.118-0.705,0.235-1.306,0.235c-1.395,0-2.444-0.88-2.444-2.502
							c0-1.549,1.05-2.598,2.583-2.598c0.617,0,1.005,0.132,1.174,0.22l-0.154,0.521c-0.242-0.118-0.587-0.206-0.998-0.206
							c-1.16,0-1.93,0.741-1.93,2.041c0,1.211,0.697,1.989,1.901,1.989c0.389,0,0.785-0.081,1.042-0.206L226.781,116.694z"/>
						<path style="fill:#FFFFFF;" d="M228.317,111.975c0.323-0.066,0.786-0.103,1.226-0.103c0.682,0,1.123,0.125,1.431,0.403
							c0.25,0.22,0.389,0.558,0.389,0.939c0,0.653-0.411,1.086-0.932,1.263v0.022c0.382,0.132,0.609,0.484,0.727,0.998
							c0.162,0.69,0.279,1.167,0.382,1.358h-0.661c-0.081-0.14-0.191-0.565-0.33-1.182c-0.147-0.683-0.411-0.939-0.991-0.961h-0.602
							v2.143h-0.639V111.975z M228.956,114.228h0.653c0.683,0,1.116-0.375,1.116-0.939c0-0.639-0.462-0.917-1.138-0.925
							c-0.309,0-0.528,0.029-0.631,0.059V114.228z"/>
						<path style="fill:#FFFFFF;" d="M235.563,114.536h-1.923v1.784h2.143v0.536h-2.782v-4.947h2.672v0.536h-2.033v1.563h1.923
							V114.536z"/>
						<path style="fill:#FFFFFF;" d="M237.349,111.975c0.389-0.059,0.852-0.103,1.358-0.103c0.917,0,1.571,0.213,2.004,0.616
							c0.44,0.404,0.697,0.977,0.697,1.776c0,0.807-0.25,1.468-0.712,1.923c-0.462,0.462-1.226,0.712-2.188,0.712
							c-0.455,0-0.836-0.022-1.16-0.059V111.975z M237.987,116.349c0.162,0.029,0.396,0.037,0.646,0.037
							c1.365,0,2.106-0.763,2.106-2.099c0.007-1.167-0.653-1.908-2.004-1.908c-0.33,0-0.58,0.029-0.749,0.066V116.349z"/>
						<path style="fill:#FFFFFF;" d="M243.612,111.909v4.947h-0.639v-4.947H243.612z"/>
						<path style="fill:#FFFFFF;" d="M246.402,112.452h-1.504v-0.543h3.663v0.543h-1.512v4.404h-0.646V112.452z"/>
						<path style="fill:#FFFFFF;" d="M255.594,116.694c-0.235,0.118-0.705,0.235-1.306,0.235c-1.395,0-2.444-0.88-2.444-2.502
							c0-1.549,1.05-2.598,2.583-2.598c0.617,0,1.005,0.132,1.174,0.22l-0.154,0.521c-0.242-0.118-0.587-0.206-0.998-0.206
							c-1.16,0-1.93,0.741-1.93,2.041c0,1.211,0.697,1.989,1.901,1.989c0.389,0,0.785-0.081,1.042-0.206L255.594,116.694z"/>
						<path style="fill:#FFFFFF;" d="M257.96,115.299l-0.514,1.556h-0.661l1.681-4.947h0.771l1.688,4.947h-0.683l-0.528-1.556
							H257.96z M259.582,114.8l-0.484-1.424c-0.11-0.323-0.184-0.616-0.257-0.903h-0.015c-0.073,0.294-0.154,0.595-0.25,0.896
							l-0.484,1.431H259.582z"/>
						<path style="fill:#FFFFFF;" d="M262.388,111.975c0.323-0.066,0.786-0.103,1.226-0.103c0.682,0,1.123,0.125,1.431,0.403
							c0.25,0.22,0.389,0.558,0.389,0.939c0,0.653-0.411,1.086-0.932,1.263v0.022c0.382,0.132,0.609,0.484,0.727,0.998
							c0.162,0.69,0.279,1.167,0.382,1.358h-0.661c-0.081-0.14-0.191-0.565-0.33-1.182c-0.147-0.683-0.411-0.939-0.991-0.961h-0.602
							v2.143h-0.639V111.975z M263.026,114.228h0.653c0.683,0,1.116-0.375,1.116-0.939c0-0.639-0.462-0.917-1.138-0.925
							c-0.309,0-0.528,0.029-0.631,0.059V114.228z"/>
						<path style="fill:#FFFFFF;" d="M267.072,111.975c0.389-0.059,0.852-0.103,1.358-0.103c0.917,0,1.571,0.213,2.004,0.616
							c0.44,0.404,0.697,0.977,0.697,1.776c0,0.807-0.25,1.468-0.712,1.923c-0.462,0.462-1.226,0.712-2.188,0.712
							c-0.455,0-0.836-0.022-1.16-0.059V111.975z M267.711,116.349c0.162,0.029,0.396,0.037,0.646,0.037
							c1.365,0,2.106-0.763,2.106-2.099c0.007-1.167-0.653-1.908-2.004-1.908c-0.33,0-0.58,0.029-0.749,0.066V116.349z"/>
					</g>
				</g>
				<g>
					<g>
						<path style="fill:#FFFFFF;" d="M226.277,152.726h-0.015l-0.838,0.452l-0.126-0.497l1.053-0.563h0.556v4.82h-0.63V152.726z"/>
						<path style="fill:#FFFFFF;" d="M229.41,156.938v-0.4l0.512-0.497c1.231-1.171,1.788-1.794,1.795-2.521
							c0-0.49-0.237-0.942-0.957-0.942c-0.438,0-0.801,0.222-1.023,0.408l-0.208-0.46c0.334-0.282,0.809-0.489,1.365-0.489
							c1.038,0,1.476,0.712,1.476,1.402c0,0.89-0.645,1.609-1.661,2.588l-0.385,0.356v0.015h2.165v0.542H229.41z"/>
						<path style="fill:#FFFFFF;" d="M234.115,156.188c0.186,0.119,0.616,0.304,1.068,0.304c0.838,0,1.098-0.534,1.09-0.935
							c-0.007-0.675-0.616-0.964-1.246-0.964h-0.363v-0.49h0.363c0.475,0,1.076-0.245,1.076-0.815c0-0.386-0.245-0.727-0.846-0.727
							c-0.385,0-0.756,0.171-0.964,0.319l-0.17-0.475c0.252-0.185,0.741-0.371,1.26-0.371c0.949,0,1.379,0.563,1.379,1.149
							c0,0.497-0.296,0.919-0.89,1.135v0.015c0.593,0.119,1.075,0.563,1.075,1.239c0,0.771-0.601,1.446-1.757,1.446
							c-0.542,0-1.016-0.17-1.253-0.326L234.115,156.188z"/>
						<path style="fill:#FFFFFF;" d="M240.526,156.938v-1.313h-2.239v-0.43l2.15-3.078h0.705v2.996h0.675v0.512h-0.675v1.313
							H240.526z M240.526,155.113v-1.609c0-0.252,0.008-0.504,0.022-0.756h-0.022c-0.148,0.282-0.267,0.489-0.4,0.712l-1.179,1.639
							v0.015H240.526z"/>
						<path style="fill:#FFFFFF;" d="M248.251,152.666h-1.839l-0.186,1.238c0.111-0.015,0.215-0.029,0.393-0.029
							c0.371,0,0.742,0.082,1.038,0.259c0.378,0.215,0.69,0.63,0.69,1.238c0,0.942-0.749,1.646-1.795,1.646
							c-0.526,0-0.971-0.148-1.201-0.296l0.163-0.497c0.2,0.119,0.593,0.267,1.031,0.267c0.616,0,1.142-0.4,1.142-1.046
							c-0.007-0.623-0.423-1.068-1.387-1.068c-0.274,0-0.489,0.03-0.667,0.052l0.312-2.314h2.306V152.666z"/>
						<path style="fill:#FFFFFF;" d="M252.675,152.577c-0.133-0.007-0.304,0-0.489,0.029c-1.023,0.171-1.565,0.92-1.676,1.713h0.022
							c0.23-0.304,0.63-0.556,1.164-0.556c0.853,0,1.454,0.615,1.454,1.557c0,0.882-0.601,1.698-1.602,1.698
							c-1.031,0-1.706-0.801-1.706-2.054c0-0.949,0.341-1.698,0.816-2.173c0.4-0.393,0.935-0.638,1.542-0.712
							c0.193-0.03,0.356-0.037,0.475-0.037V152.577z M252.489,155.358c0-0.689-0.393-1.105-0.994-1.105
							c-0.393,0-0.756,0.245-0.934,0.593c-0.045,0.074-0.074,0.17-0.074,0.289c0.015,0.793,0.378,1.379,1.061,1.379
							C252.111,156.515,252.489,156.048,252.489,155.358z"/>
						<path style="fill:#FFFFFF;" d="M257.603,152.117v0.43l-2.099,4.39h-0.675l2.091-4.264v-0.015h-2.358v-0.542H257.603z"/>
						<path style="fill:#FFFFFF;" d="M258.963,155.714c0-0.608,0.363-1.038,0.957-1.291l-0.007-0.022
							c-0.534-0.252-0.764-0.667-0.764-1.083c0-0.764,0.645-1.283,1.49-1.283c0.935,0,1.402,0.586,1.402,1.187
							c0,0.408-0.2,0.845-0.793,1.127v0.022c0.601,0.237,0.971,0.66,0.971,1.246c0,0.838-0.719,1.401-1.639,1.401
							C259.571,157.019,258.963,156.418,258.963,155.714z M261.559,155.684c0-0.585-0.408-0.868-1.061-1.053
							c-0.563,0.163-0.868,0.534-0.868,0.994c-0.022,0.489,0.349,0.919,0.964,0.919C261.18,156.544,261.559,156.181,261.559,155.684
							z M259.764,153.274c0,0.482,0.363,0.742,0.919,0.89c0.416-0.141,0.734-0.438,0.734-0.875c0-0.386-0.23-0.786-0.816-0.786
							C260.061,152.503,259.764,152.859,259.764,153.274z"/>
						<path style="fill:#FFFFFF;" d="M267.304,152.726h-0.015l-0.838,0.452l-0.126-0.497l1.053-0.563h0.556v4.82h-0.63V152.726z"/>
						<path style="fill:#FFFFFF;" d="M270.437,156.938v-0.4l0.512-0.497c1.231-1.171,1.788-1.794,1.795-2.521
							c0-0.49-0.237-0.942-0.957-0.942c-0.438,0-0.801,0.222-1.023,0.408l-0.208-0.46c0.334-0.282,0.809-0.489,1.365-0.489
							c1.038,0,1.476,0.712,1.476,1.402c0,0.89-0.645,1.609-1.661,2.588l-0.386,0.356v0.015h2.166v0.542H270.437z"/>
						<path style="fill:#FFFFFF;" d="M275.142,156.188c0.186,0.119,0.616,0.304,1.068,0.304c0.838,0,1.098-0.534,1.09-0.935
							c-0.007-0.675-0.616-0.964-1.246-0.964h-0.363v-0.49h0.363c0.475,0,1.076-0.245,1.076-0.815c0-0.386-0.245-0.727-0.846-0.727
							c-0.385,0-0.756,0.171-0.964,0.319l-0.17-0.475c0.252-0.185,0.741-0.371,1.26-0.371c0.949,0,1.379,0.563,1.379,1.149
							c0,0.497-0.296,0.919-0.89,1.135v0.015c0.593,0.119,1.075,0.563,1.075,1.239c0,0.771-0.601,1.446-1.757,1.446
							c-0.542,0-1.016-0.17-1.253-0.326L275.142,156.188z"/>
						<path style="fill:#FFFFFF;" d="M281.553,156.938v-1.313h-2.239v-0.43l2.15-3.078h0.705v2.996h0.675v0.512h-0.675v1.313
							H281.553z M281.553,155.113v-1.609c0-0.252,0.008-0.504,0.022-0.756h-0.022c-0.148,0.282-0.267,0.489-0.4,0.712l-1.179,1.639
							v0.015H281.553z"/>
						<path style="fill:#FFFFFF;" d="M289.278,152.666h-1.839l-0.186,1.238c0.111-0.015,0.215-0.029,0.393-0.029
							c0.371,0,0.742,0.082,1.038,0.259c0.378,0.215,0.69,0.63,0.69,1.238c0,0.942-0.749,1.646-1.795,1.646
							c-0.526,0-0.971-0.148-1.201-0.296l0.163-0.497c0.2,0.119,0.593,0.267,1.031,0.267c0.616,0,1.142-0.4,1.142-1.046
							c-0.007-0.623-0.423-1.068-1.387-1.068c-0.274,0-0.49,0.03-0.667,0.052l0.312-2.314h2.306V152.666z"/>
						<path style="fill:#FFFFFF;" d="M293.702,152.577c-0.133-0.007-0.304,0-0.489,0.029c-1.023,0.171-1.565,0.92-1.676,1.713h0.022
							c0.23-0.304,0.63-0.556,1.164-0.556c0.853,0,1.454,0.615,1.454,1.557c0,0.882-0.601,1.698-1.602,1.698
							c-1.031,0-1.706-0.801-1.706-2.054c0-0.949,0.341-1.698,0.816-2.173c0.4-0.393,0.935-0.638,1.542-0.712
							c0.193-0.03,0.356-0.037,0.475-0.037V152.577z M293.516,155.358c0-0.689-0.393-1.105-0.994-1.105
							c-0.393,0-0.756,0.245-0.934,0.593c-0.045,0.074-0.074,0.17-0.074,0.289c0.015,0.793,0.378,1.379,1.06,1.379
							C293.138,156.515,293.516,156.048,293.516,155.358z"/>
						<path style="fill:#FFFFFF;" d="M298.629,152.117v0.43l-2.099,4.39h-0.675l2.091-4.264v-0.015h-2.358v-0.542H298.629z"/>
						<path style="fill:#FFFFFF;" d="M299.99,155.714c0-0.608,0.363-1.038,0.957-1.291l-0.007-0.022
							c-0.534-0.252-0.764-0.667-0.764-1.083c0-0.764,0.645-1.283,1.49-1.283c0.935,0,1.402,0.586,1.402,1.187
							c0,0.408-0.2,0.845-0.793,1.127v0.022c0.601,0.237,0.971,0.66,0.971,1.246c0,0.838-0.719,1.401-1.639,1.401
							C300.598,157.019,299.99,156.418,299.99,155.714z M302.585,155.684c0-0.585-0.408-0.868-1.061-1.053
							c-0.564,0.163-0.868,0.534-0.868,0.994c-0.022,0.489,0.349,0.919,0.964,0.919
							C302.207,156.544,302.585,156.181,302.585,155.684z M300.791,153.274c0,0.482,0.363,0.742,0.919,0.89
							c0.416-0.141,0.734-0.438,0.734-0.875c0-0.386-0.23-0.786-0.816-0.786C301.087,152.503,300.791,152.859,300.791,153.274z"/>
					</g>
				</g>
				<g>
					<path style="fill:#FFD3CF;" d="M236.274,140.339h-13.021c-1.516,0-2.745-1.229-2.745-2.745v-13.021
						c0-1.516,1.229-2.745,2.745-2.745h13.021c1.516,0,2.745,1.229,2.745,2.745v13.021
						C239.02,139.11,237.79,140.339,236.274,140.339z"/>
					<g>
						
							<line style="fill:none;stroke:#68270E;stroke-width:2;stroke-linecap:round;stroke-linejoin:round;stroke-miterlimit:10;" x1="220.508" y1="131.083" x2="239.02" y2="131.083"/>
						<rect x="225.638" y="126.613" style="fill:#E0B3B1;" width="8.25" height="8.939"/>
						
							<line style="fill:none;stroke:#68270E;stroke-width:2;stroke-linecap:round;stroke-linejoin:round;stroke-miterlimit:10;" x1="220.508" y1="126.613" x2="239.02" y2="126.613"/>
						
							<line style="fill:none;stroke:#68270E;stroke-width:2;stroke-linecap:round;stroke-linejoin:round;stroke-miterlimit:10;" x1="220.508" y1="135.553" x2="239.02" y2="135.553"/>
					</g>
				</g>
				
					<ellipse transform="matrix(0.2285 -0.9735 0.9735 0.2285 109.2278 384.8791)" style="fill:#FFD3CF;" cx="297.457" cy="123.521" rx="12.947" ry="12.947"/>
			</g>
		</g>
	</g>
	<g>
		
			<image style="overflow:visible;opacity:0.75;" width="84" height="166" xlink:href="A631FCB2.png"  transform="matrix(1 0 0 1 43 1)">
		</image>
		<g>
			<g>
				<g>
					<path style="fill:#C9835E;" d="M113.851,158.204H52.544c-2.554,0-4.625-2.071-4.625-4.625V47.4
						c0-2.554,2.071-4.625,4.625-4.625h61.308c2.554,0,4.625,2.071,4.625,4.625v106.18
						C118.476,156.134,116.405,158.204,113.851,158.204z"/>
					<rect x="56.115" y="54.412" style="fill:#E0B3B1;" width="54.166" height="26.991"/>
					<polygon style="fill:#FFD3CF;" points="78.689,54.412 56.115,54.412 56.115,76.986 					"/>
					<polygon style="fill:#FFD3CF;" points="58.843,81.403 69.032,81.403 96.023,54.412 85.834,54.412 					"/>
					<rect x="56.115" y="89.999" style="fill:#FFFFFF;" width="54.166" height="58.546"/>
					<g>
						<rect x="63.338" y="97.586" style="fill:#68270E;" width="7.565" height="7.565"/>
						<rect x="74.056" y="97.586" style="fill:#68270E;" width="7.565" height="7.565"/>
						<rect x="84.773" y="97.586" style="fill:#68270E;" width="7.565" height="7.565"/>
						<rect x="95.491" y="97.586" style="fill:#68270E;" width="7.565" height="7.565"/>
						<rect x="63.338" y="109.521" style="fill:#68270E;" width="7.565" height="7.565"/>
						<rect x="74.056" y="109.521" style="fill:#68270E;" width="7.565" height="7.565"/>
						<rect x="84.773" y="109.521" style="fill:#68270E;" width="7.565" height="7.565"/>
						<rect x="95.491" y="109.521" style="fill:#68270E;" width="7.565" height="7.565"/>
						<rect x="63.338" y="121.457" style="fill:#68270E;" width="7.565" height="7.565"/>
						<rect x="74.056" y="121.457" style="fill:#68270E;" width="7.565" height="7.565"/>
						<rect x="84.773" y="121.457" style="fill:#68270E;" width="7.565" height="7.565"/>
						<rect x="95.491" y="121.457" style="fill:#37474F;" width="7.565" height="7.565"/>
						<rect x="63.338" y="133.393" style="fill:#68270E;" width="7.565" height="7.565"/>
						<rect x="74.056" y="133.393" style="fill:#68270E;" width="7.565" height="7.565"/>
						<rect x="84.773" y="133.393" style="fill:#68270E;" width="7.565" height="7.565"/>
						<rect x="95.491" y="121.27" style="fill:#FF798F;" width="7.565" height="19.688"/>
					</g>
				</g>
				<rect x="59.233" y="35.724" style="fill:#65270F;" width="47.929" height="12.132"/>
				<rect x="62.178" y="5.782" style="fill:#FFFFFF;" width="42.038" height="42.073"/>
				
					<line style="fill:#65270F;stroke:#B0BEC5;stroke-width:3;stroke-miterlimit:10;" x1="69.012" y1="14.111" x2="97.382" y2="14.111"/>
				
					<line style="fill:#65270F;stroke:#B0BEC5;stroke-width:2;stroke-miterlimit:10;" x1="69.012" y1="22.316" x2="97.382" y2="22.316"/>
				
					<line style="fill:#65270F;stroke:#B0BEC5;stroke-width:2;stroke-miterlimit:10;" x1="69.012" y1="26.819" x2="97.382" y2="26.819"/>
				
					<line style="fill:#65270F;stroke:#B0BEC5;stroke-width:2;stroke-miterlimit:10;" x1="69.012" y1="31.321" x2="97.382" y2="31.321"/>
			</g>
		</g>
	</g>
</g>
</svg>
