<?xml version="1.0" encoding="iso-8859-1"?>
<!-- Generator: Adobe Illustrator 22.0.1, SVG Export Plug-In . SVG Version: 6.00 Build 0)  -->
<svg version="1.1" id="&#x421;&#x43B;&#x43E;&#x439;_1"
	 xmlns="http://www.w3.org/2000/svg" xmlns:xlink="http://www.w3.org/1999/xlink" x="0px" y="0px" viewBox="0 0 200 55"
	 style="enable-background:new 0 0 200 55;" xml:space="preserve">
<path style="fill:#FFC525;" d="M37.479,17.511c0.058,4.09-1.046,7.364-3.106,10.344c-0.407,0.589-0.838,0.719-1.564,0.527
	c-2.102-0.555-4.234-0.996-6.353-1.485c-0.319-0.074-0.765-0.036-0.872-0.386c-0.13-0.426,0.335-0.604,0.601-0.81
	c2.659-2.06,4.026-4.746,3.863-8.122c-0.192-3.971-2.75-7.507-6.872-8.765c-5.332-1.628-11.086,1.783-12.123,7.284
	c-1.066,5.653,2.51,10.299,7.725,11.432c3.353,0.728,6.691,1.526,10.037,2.283c2.118,0.48,4.238,0.955,6.362,1.408
	c1.036,0.221,1.183,0.502,0.566,1.403c-1.074,1.567-2.193,3.103-3.271,4.667c-2.279,3.309-4.646,6.556-6.879,9.898
	c-1.441,2.157-3.007,4.232-4.533,6.332c-0.484,0.666-0.718,0.666-1.193,0c-1.847-2.593-3.682-5.194-5.512-7.8
	c-3.047-4.338-6.023-8.728-9.147-13.011c-3.416-4.684-4.863-9.85-3.932-15.556c0.717-4.395,2.778-8.158,6.142-11.147
	c4.26-3.785,9.268-5.543,14.902-4.892c6.754,0.781,11.461,4.511,14.057,10.81C37.169,13.841,37.608,15.856,37.479,17.511z"/>
<path style="fill:#353934;" d="M152.512,28.576c-3.129,0-6.258,0.003-9.387-0.001c-1.214-0.002-1.352-0.137-1.353-1.346
	c-0.004-4.889-0.004-9.778,0-14.668c0.001-1.03,0.124-1.142,1.162-1.151c0.475-0.004,0.95-0.003,1.425,0
	c1.094,0.007,1.153,0.058,1.154,1.128c0.004,3.772,0.001,7.543,0.002,11.315c0,1.137,0.003,1.138,1.165,1.139
	c1.006,0.001,2.013-0.038,3.017,0.013c0.736,0.037,0.971-0.225,0.965-0.958c-0.029-3.771-0.014-7.543-0.012-11.315
	c0-1.255,0.067-1.319,1.328-1.322c0.391-0.001,0.782-0.002,1.173,0c1.183,0.006,1.247,0.062,1.248,1.221
	c0.003,3.688,0.001,7.376,0.002,11.064c0,1.296,0.001,1.296,1.257,1.298c0.978,0.001,1.958-0.04,2.933,0.014
	c0.744,0.041,0.962-0.235,0.956-0.962c-0.029-3.716-0.014-7.431-0.013-11.147c0.001-1.485,0.004-1.493,1.496-1.485
	c2.498,0.013,2.248-0.28,2.252,2.231c0.007,4.526,0.002,9.052,0.001,13.578c0,1.294-0.059,1.354-1.384,1.355
	C158.77,28.578,155.641,28.576,152.512,28.576z"/>
<path style="fill:#353934;" d="M129.727,28.774c-5.099-0.008-8.969-3.844-8.959-8.878c0.011-4.88,4.055-8.81,9.035-8.78
	c4.965,0.03,8.986,3.996,8.981,8.857C138.779,24.951,134.837,28.782,129.727,28.774z M134.899,20.022
	c0.01-3.129-2.085-5.316-5.102-5.326c-2.984-0.01-5.235,2.244-5.241,5.248c-0.006,3.079,2.141,5.241,5.206,5.241
	C132.833,25.185,134.889,23.118,134.899,20.022z"/>
<path style="fill:#353934;" d="M71.234,18.217c0.977-0.946,1.934-1.866,2.883-2.795c1.118-1.094,2.236-2.189,3.339-3.298
	c0.503-0.506,1.07-0.754,1.797-0.724c0.948,0.04,1.899,0.004,2.849,0.012c0.27,0.002,0.612-0.078,0.745,0.238
	c0.136,0.323-0.171,0.505-0.364,0.687c-2.069,1.958-4.123,3.933-6.233,5.847c-0.651,0.591-0.643,0.946-0.057,1.596
	c2.319,2.571,4.572,5.202,6.846,7.813c0.179,0.205,0.442,0.411,0.28,0.723c-0.131,0.251-0.42,0.251-0.672,0.253
	c-1.034,0.004-2.067-0.001-3.101,0.001c-0.618,0.001-1.037-0.339-1.411-0.783c-1.548-1.836-3.089-3.679-4.671-5.487
	c-0.277-0.316-0.487-1.038-1.034-0.749c-0.608,0.322-1.27,0.768-1.276,1.629c-0.008,1.173-0.001,2.347-0.007,3.52
	c-0.009,1.875-0.011,1.875-1.849,1.876c-2.013,0.001-2.013,0.001-2.012-2.005c0-4.638-0.002-9.275,0.001-13.913
	c0.001-1.16,0.086-1.242,1.231-1.248c0.503-0.003,1.009,0.036,1.508-0.009c0.806-0.073,1.123,0.297,1.116,1.063
	c-0.014,1.62-0.014,3.24-0.021,4.86C71.12,17.596,71.034,17.875,71.234,18.217z"/>
<path style="fill:#353934;" d="M117.691,20.032c0,2.487-0.022,4.974,0.013,7.46c0.011,0.796-0.274,1.104-1.071,1.092
	c-3.152-0.048-2.705,0.346-2.723-2.625c-0.02-3.325-0.025-6.65,0.01-9.975c0.008-0.779-0.254-1.02-1.014-1.002
	c-1.759,0.043-3.521,0.046-5.28-0.001c-0.795-0.021-1.068,0.227-1.06,1.044c0.037,3.772,0.018,7.544,0.015,11.316
	c-0.001,1.133-0.101,1.238-1.253,1.233c-2.944-0.013-2.497,0.286-2.51-2.475c-0.022-4.498-0.007-8.997-0.006-13.496
	c0-1.141,0.046-1.192,1.173-1.192c4.191-0.003,8.382-0.003,12.574,0c1.062,0.001,1.12,0.063,1.121,1.16
	c0.003,2.487,0.001,4.974,0.001,7.46C117.685,20.032,117.688,20.032,117.691,20.032z"/>
<path style="fill:#353934;" d="M189.767,11.409c1.768-0.484,2.43,0.504,3.037,1.987c1.883,4.601,3.913,9.14,5.877,13.708
	c0.552,1.284,0.427,1.473-0.933,1.469c-3.13-0.009-2.509,0.29-3.538-2.317c-0.32-0.811-0.753-1.087-1.614-1.061
	c-2.122,0.062-4.247,0.04-6.37,0.013c-0.631-0.008-1.016,0.202-1.163,0.819c-0.013,0.054-0.04,0.104-0.06,0.156
	c-0.95,2.511-1.542,2.837-4.242,2.377c-0.755-0.129-0.619-0.562-0.402-1.042c0.975-2.165,1.951-4.329,2.928-6.493
	c1.265-2.8,2.577-5.58,3.774-8.409c0.406-0.959,0.94-1.374,1.952-1.213C189.259,11.443,189.516,11.409,189.767,11.409z
	 M189.599,21.677c0,0.002,0,0.004,0,0.005c0.726,0,1.451-0.005,2.177,0.002c0.418,0.004,0.571-0.173,0.414-0.571
	c-0.744-1.895-1.484-3.793-2.243-5.682c-0.178-0.442-0.42-0.411-0.596,0.018c-0.76,1.86-1.51,3.723-2.27,5.582
	c-0.178,0.436-0.031,0.641,0.424,0.644C188.203,21.68,188.901,21.677,189.599,21.677z"/>
<path style="fill:#353934;" d="M85.373,19.923c0-2.487,0.017-4.974-0.01-7.46c-0.008-0.727,0.197-1.075,0.994-1.064
	c2.542,0.033,5.089-0.069,7.627,0.038c2.587,0.11,4.641,1.273,5.714,3.721c1.014,2.313,0.727,4.556-0.865,6.534
	c-1.332,1.654-3.184,2.299-5.257,2.353c-1.201,0.031-2.403,0.029-3.604,0.001c-0.615-0.014-0.853,0.217-0.83,0.835
	c0.033,0.921-0.007,1.844,0.012,2.766c0.013,0.631-0.257,0.937-0.894,0.928c-0.559-0.008-1.118,0.005-1.676,0
	c-1.107-0.009-1.207-0.105-1.209-1.191C85.371,24.897,85.373,22.41,85.373,19.923z M92.033,15.013c-0.852,0-1.523,0.008-2.193-0.003
	c-0.431-0.007-0.692,0.13-0.689,0.616c0.01,1.424,0.005,2.849,0.005,4.273c0,0.326,0.129,0.553,0.485,0.544
	c1.616-0.039,3.243,0.183,4.845-0.163c1.187-0.257,1.917-1.178,1.966-2.395c0.057-1.398-0.529-2.28-1.772-2.699
	C93.75,14.875,92.793,15.077,92.033,15.013z"/>
<path style="fill:#353934;" d="M49.207,11.409c1.496-0.389,2.276,0.335,2.954,1.617c1.213,2.294,2.602,4.494,3.927,6.728
	c0.12,0.203,0.176,0.552,0.465,0.526c0.263-0.024,0.327-0.354,0.437-0.571c1.253-2.465,2.512-4.928,3.735-7.408
	c0.309-0.627,0.698-0.951,1.425-0.902c0.723,0.049,1.452-0.001,2.179,0.012c0.921,0.017,1.055,0.254,0.599,1.064
	c-2.441,4.332-4.887,8.66-7.332,12.99c-0.453,0.803-0.909,1.603-1.37,2.402c-0.153,0.266-0.304,0.574-0.639,0.624
	c-1.082,0.163-2.176,0.142-3.255,0.025c-0.568-0.062-0.367-0.526-0.185-0.846c0.607-1.068,1.208-2.142,1.863-3.181
	c0.328-0.521,0.306-0.918-0.023-1.443c-2.167-3.455-4.302-6.93-6.438-10.404c-0.195-0.318-0.594-0.645-0.361-1.044
	c0.209-0.357,0.666-0.16,1.014-0.184C48.535,11.391,48.872,11.409,49.207,11.409z"/>
<path style="fill:#353934;" d="M173.292,11.41c2.234,0,4.468,0.018,6.702-0.01c0.747-0.009,1.094,0.259,1.055,1.022
	c-0.027,0.529-0.022,1.062,0,1.591c0.029,0.704-0.267,1.019-0.991,1.004c-1.312-0.027-2.626,0.029-3.937-0.02
	c-0.75-0.028-0.954,0.258-0.949,0.975c0.027,3.77,0.014,7.54,0.012,11.31c-0.001,1.176-0.111,1.283-1.296,1.294
	c-0.475,0.004-0.951-0.025-1.424,0.005c-0.803,0.051-1.071-0.311-1.066-1.097c0.026-3.77,0.014-7.54,0.013-11.31
	c0-1.16-0.002-1.161-1.144-1.164c-1.257-0.003-2.513-0.016-3.77,0.002c-0.664,0.01-0.99-0.25-0.953-0.941
	c0.027-0.501,0.001-1.005,0.004-1.508c0.006-1.093,0.058-1.151,1.126-1.153C168.88,11.407,171.086,11.41,173.292,11.41z"/>
<path style="fill:#8B8A8F;" d="M132.343,43.018c-1.313,0.001-2.627-0.022-3.94,0.011c-0.659,0.017-0.893-0.246-0.885-0.887
	c0.022-1.872,0.007-3.744,0.012-5.617c0.001-0.43-0.003-0.898,0.62-0.869c0.567,0.026,0.538,0.475,0.54,0.866
	c0.007,1.565,0.029,3.13-0.006,4.694c-0.015,0.698,0.247,0.931,0.933,0.915c2.437-0.056,2.068,0.296,2.097-2.088
	c0.015-1.201,0.001-2.403,0.008-3.605c0.002-0.377,0.033-0.763,0.54-0.786c0.558-0.025,0.617,0.374,0.618,0.792
	c0.004,1.565,0.027,3.13-0.007,4.694c-0.015,0.701,0.182,1.014,0.944,0.994c2.431-0.065,2.057,0.298,2.088-2.098
	c0.015-1.201,0.002-2.403,0.007-3.605c0.002-0.38,0.037-0.758,0.544-0.781c0.561-0.025,0.616,0.373,0.617,0.79
	c0.004,1.928-0.005,3.856,0.008,5.784c0.004,0.563-0.22,0.808-0.798,0.799C134.97,43.003,133.656,43.017,132.343,43.018z"/>
<path style="fill:#8B8A8F;" d="M81.702,39.312c0-0.977,0.004-1.955-0.002-2.932c-0.002-0.406,0.086-0.743,0.575-0.745
	c1.114-0.005,2.236-0.123,3.339,0.128c1.571,0.357,2.076,1.702,1.1,2.978c-0.21,0.274-0.318,0.405,0.037,0.634
	c0.845,0.545,0.875,1.379,0.665,2.234c-0.206,0.836-0.87,1.275-1.649,1.344c-1.164,0.102-2.342,0.051-3.514,0.053
	c-0.514,0.001-0.549-0.376-0.549-0.761C81.701,41.266,81.702,40.289,81.702,39.312z M84.369,39.659c-0.418,0-0.669,0.009-0.92-0.002
	c-0.496-0.022-0.717,0.211-0.7,0.703c0.013,0.39,0.002,0.781,0.007,1.171c0.004,0.31,0.107,0.568,0.463,0.578
	c0.778,0.021,1.564,0.113,2.33-0.095c0.584-0.159,0.873-0.554,0.86-1.174c-0.013-0.596-0.35-0.91-0.878-1.077
	C85.097,39.625,84.647,39.667,84.369,39.659z M84.097,38.793c0.334-0.021,0.673-0.014,1.002-0.068
	c0.575-0.096,0.997-0.363,0.98-1.038c-0.018-0.703-0.445-0.986-1.075-1.037c-0.389-0.031-0.782-0.024-1.173-0.022
	c-1.053,0.004-1.083,0.037-1.083,1.08C82.748,38.772,82.76,38.782,84.097,38.793z"/>
<path style="fill:#8B8A8F;" d="M197.781,37.278c-1.003,1.734-1.95,3.373-2.899,5.013c-0.181,0.312-0.329,0.657-0.758,0.71
	c-0.604,0.075-1.039-0.005-1.029-0.789c0.026-1.926,0.006-3.852,0.01-5.778c0.001-0.379,0.037-0.758,0.544-0.78
	c0.564-0.024,0.609,0.384,0.612,0.795c0.007,1.312-0.001,2.624,0.012,3.936c0.003,0.263-0.089,0.549,0.168,0.892
	c0.848-1.46,1.666-2.873,2.488-4.283c0.197-0.337,0.398-0.672,0.612-0.999c0.253-0.387,0.644-0.414,1.044-0.34
	c0.459,0.084,0.411,0.469,0.412,0.797c0.006,1.926,0.005,3.852,0.001,5.778c-0.001,0.369,0.005,0.767-0.533,0.762
	c-0.542-0.006-0.515-0.414-0.517-0.776c-0.007-1.34,0.001-2.68-0.009-4.019C197.935,37.928,198.015,37.644,197.781,37.278z"/>
<path style="fill:#8B8A8F;" d="M59.193,43.19c-2.163-0.01-3.49-1.498-3.487-3.909c0.003-2.316,1.432-3.853,3.537-3.804
	c2.177,0.051,3.56,1.539,3.542,3.81C62.765,41.742,61.423,43.201,59.193,43.19z M59.186,42.281c1.428,0.042,2.493-1.16,2.53-2.856
	c0.036-1.654-1.015-2.932-2.431-2.954c-1.43-0.023-2.462,1.11-2.517,2.764C56.711,40.944,57.738,42.238,59.186,42.281z"/>
<path style="fill:#8B8A8F;" d="M72.475,39.309c-0.001-2.336,1.339-3.792,3.514-3.82c2.069-0.026,3.572,1.587,3.563,3.824
	c-0.01,2.393-1.372,3.875-3.563,3.876C73.774,43.189,72.476,41.757,72.475,39.309z M78.387,39.275
	c-0.007-0.122-0.007-0.346-0.033-0.567c-0.145-1.238-1.004-2.137-2.124-2.231c-1.268-0.106-2.172,0.53-2.557,1.807
	c-0.251,0.832-0.191,1.663,0.102,2.466c0.346,0.946,1.315,1.573,2.281,1.534c1.036-0.042,1.844-0.665,2.176-1.667
	C78.366,40.211,78.376,39.795,78.387,39.275z"/>
<path style="fill:#8B8A8F;" d="M121.923,43.19c-2.2,0.008-3.552-1.446-3.584-3.855c-0.03-2.248,1.409-3.825,3.523-3.861
	c2.139-0.036,3.543,1.462,3.559,3.796C125.438,41.66,124.08,43.182,121.923,43.19z M119.474,39.331
	c-0.012,1.814,0.963,2.981,2.47,2.955c1.462-0.025,2.396-1.181,2.379-2.956c-0.011-1.157-0.32-2.175-1.49-2.668
	C121.059,35.916,119.488,37.177,119.474,39.331z"/>
<path style="fill:#8B8A8F;" d="M70.323,39.344c0,0.978,0.002,1.956-0.001,2.934c-0.001,0.394-0.074,0.735-0.587,0.727
	c-0.517-0.008-0.566-0.365-0.567-0.75c-0.005-1.537-0.032-3.075,0.007-4.611c0.019-0.752-0.223-1.112-1.007-1.017
	c-0.22,0.027-0.448,0.02-0.67,0.002c-0.595-0.049-0.858,0.182-0.865,0.81c-0.013,1.144-0.096,2.287-0.147,3.43
	c-0.027,0.596-0.159,1.157-0.488,1.667c-0.325,0.505-0.789,0.678-1.363,0.636c-0.339-0.025-0.605-0.134-0.641-0.522
	c-0.039-0.42,0.271-0.383,0.549-0.445c0.768-0.173,0.853-0.815,0.887-1.438c0.076-1.394,0.155-2.79,0.158-4.185
	c0.001-0.729,0.257-1.007,0.98-0.976c0.893,0.038,1.79,0.041,2.682-0.001c0.78-0.037,1.133,0.235,1.089,1.055
	c-0.048,0.892-0.011,1.788-0.011,2.682C70.325,39.344,70.324,39.344,70.323,39.344z"/>
<path style="fill:#8B8A8F;" d="M116.147,39.288c0,1.006,0.003,2.012-0.002,3.018c-0.002,0.355-0.047,0.691-0.526,0.685
	c-0.48-0.006-0.514-0.35-0.516-0.7c-0.007-1.593-0.026-3.186,0.001-4.778c0.011-0.643-0.208-0.926-0.872-0.888
	c-0.641,0.037-1.286,0.035-1.927,0.001c-0.648-0.035-0.901,0.216-0.887,0.874c0.031,1.452,0.011,2.906,0.007,4.359
	c-0.001,0.251-0.001,0.505-0.038,0.752c-0.054,0.358-0.332,0.403-0.632,0.4c-0.321-0.003-0.437-0.173-0.439-0.478
	c-0.014-2.067-0.034-4.134-0.051-6.2c-0.004-0.489,0.252-0.708,0.729-0.708c1.509,0.001,3.018,0.005,4.526-0.006
	c0.524-0.004,0.658,0.252,0.644,0.736c-0.028,0.977-0.008,1.956-0.008,2.934C116.154,39.288,116.151,39.288,116.147,39.288z"/>
<path style="fill:#8B8A8F;" d="M89.753,39.278c0-0.977-0.001-1.954,0.001-2.931c0.001-0.355,0.034-0.702,0.516-0.684
	c0.452,0.017,0.52,0.344,0.527,0.705c0.003,0.14,0.003,0.279,0.005,0.419c0.017,2.057-0.236,1.845,1.913,1.851
	c1.938,0.005,1.753,0.146,1.762-1.757c0.001-0.14,0-0.279,0.003-0.419c0.008-0.413,0.043-0.823,0.599-0.811
	c0.567,0.013,0.557,0.453,0.558,0.848c0.006,1.898,0.005,3.796,0.001,5.694c-0.001,0.404-0.014,0.815-0.589,0.81
	c-0.584-0.005-0.561-0.433-0.568-0.828c-0.01-0.586-0.018-1.173-0.003-1.758c0.014-0.519-0.188-0.778-0.735-0.764
	c-0.725,0.019-1.452,0.023-2.177-0.002c-0.594-0.021-0.787,0.261-0.769,0.815c0.022,0.641,0.004,1.284-0.006,1.926
	c-0.005,0.342-0.116,0.603-0.528,0.601c-0.422-0.002-0.505-0.28-0.506-0.616c-0.004-1.033-0.002-2.066-0.002-3.098
	C89.755,39.278,89.754,39.278,89.753,39.278z"/>
<path style="fill:#8B8A8F;" d="M184.711,39.292c0-0.978-0.002-1.956,0.001-2.934c0.001-0.35,0.028-0.698,0.503-0.714
	c0.501-0.017,0.605,0.328,0.605,0.722c0,0.53-0.037,1.06-0.045,1.59c-0.007,0.444,0.225,0.672,0.67,0.673
	c0.81,0.003,1.621-0.003,2.431,0.007c0.51,0.006,0.688-0.257,0.678-0.734c-0.012-0.559,0.003-1.118,0.006-1.676
	c0.002-0.366,0.158-0.588,0.551-0.576c0.356,0.012,0.485,0.239,0.485,0.556c0.003,2.068,0.004,4.136,0,6.203
	c-0.001,0.352-0.141,0.594-0.546,0.583c-0.425-0.012-0.487-0.306-0.491-0.635c-0.008-0.643-0.028-1.286-0.001-1.928
	c0.024-0.586-0.231-0.801-0.798-0.78c-0.698,0.026-1.399,0.036-2.095-0.002c-0.714-0.038-0.942,0.293-0.905,0.957
	c0.032,0.585,0.008,1.173,0.007,1.76c0,0.313,0.026,0.635-0.44,0.645c-0.435,0.009-0.607-0.216-0.608-0.616
	c-0.003-1.034-0.001-2.068-0.001-3.102C184.714,39.292,184.713,39.292,184.711,39.292z"/>
<path style="fill:#8B8A8F;" d="M159.402,39.075c0.831-0.895,1.652-1.801,2.498-2.682c0.386-0.402,0.801-0.796,1.439-0.732
	c0.16,0.016,0.363-0.063,0.441,0.132c0.075,0.188-0.097,0.308-0.214,0.419c-0.689,0.654-1.375,1.31-2.081,1.945
	c-0.383,0.345-0.423,0.643-0.092,1.071c0.804,1.038,1.564,2.11,2.339,3.17c0.112,0.153,0.301,0.309,0.192,0.515
	c-0.113,0.214-0.351,0.097-0.536,0.111c-0.433,0.031-0.733-0.162-0.977-0.519c-0.504-0.738-1.02-1.47-1.566-2.177
	c-0.216-0.28-0.344-0.871-0.825-0.638c-0.454,0.221-0.894,0.605-0.927,1.209c-0.025,0.446-0.008,0.894-0.018,1.341
	c-0.008,0.374-0.011,0.762-0.548,0.753c-0.483-0.009-0.502-0.361-0.502-0.708c-0.004-1.984-0.002-3.969-0.002-5.953
	c0-0.367,0.067-0.686,0.534-0.679c0.47,0.008,0.515,0.343,0.516,0.7c0.002,0.835,0.001,1.67,0.001,2.505
	C159.183,38.929,159.292,39.002,159.402,39.075z"/>
<path style="fill:#8B8A8F;" d="M148.591,40.829c-1.616,0.012-1.475-0.135-2.007,1.394c-0.072,0.208-0.171,0.421-0.31,0.588
	c-0.227,0.274-0.565,0.268-0.847,0.14c-0.276-0.125-0.129-0.39-0.051-0.589c0.81-2.052,1.628-4.1,2.438-6.151
	c0.147-0.373,0.367-0.596,0.805-0.592c0.44,0.004,0.642,0.236,0.788,0.611c0.79,2.029,1.594,4.052,2.386,6.08
	c0.087,0.222,0.252,0.518-0.087,0.646c-0.312,0.118-0.676,0.14-0.913-0.186c-0.112-0.154-0.175-0.348-0.242-0.53
	C149.996,40.706,150.344,40.839,148.591,40.829z M148.682,37.161c-0.076,0.01-0.152,0.02-0.228,0.03
	c-0.184,0.486-0.364,0.974-0.551,1.458c-0.505,1.31-0.472,1.355,0.966,1.297c0.083-0.003,0.166-0.004,0.249-0.007
	c0.369-0.012,0.5-0.194,0.375-0.543C149.224,38.651,148.952,37.907,148.682,37.161z"/>
<path style="fill:#8B8A8F;" d="M100.883,35.629c0.388-0.016,0.659,0.092,0.806,0.476c0.787,2.062,1.594,4.117,2.378,6.18
	c0.084,0.221,0.371,0.555-0.07,0.692c-0.345,0.106-0.751,0.105-0.941-0.315c-0.172-0.381-0.319-0.776-0.441-1.175
	c-0.144-0.471-0.431-0.696-0.926-0.656c-0.139,0.011-0.282,0.019-0.419-0.003c-1.3-0.21-2.237,0.114-2.467,1.587
	c-0.041,0.261-0.179,0.546-0.524,0.581c-0.449,0.046-0.835,0.023-0.588-0.608c0.816-2.081,1.636-4.161,2.445-6.244
	C100.278,35.778,100.52,35.609,100.883,35.629z M100.988,37.153c-0.066,0.011-0.132,0.022-0.198,0.033
	c-0.284,0.723-0.568,1.446-0.852,2.169c-0.142,0.361-0.096,0.601,0.368,0.591c0.39-0.008,0.78,0,1.17-0.004
	c0.384-0.004,0.493-0.2,0.364-0.545C101.557,38.647,101.272,37.9,100.988,37.153z"/>
<path style="fill:#8B8A8F;" d="M166.071,39.242c0-0.92,0.021-1.841-0.007-2.761c-0.018-0.593,0.189-0.883,0.813-0.868
	c0.975,0.023,1.951-0.034,2.92,0.136c1.184,0.208,1.794,0.893,1.796,2.052c0.002,1.192-0.626,1.962-1.772,2.197
	c-0.634,0.13-1.274,0.154-1.915,0.13c-0.576-0.022-0.807,0.238-0.782,0.804c0.022,0.501,0.003,1.004-0.009,1.506
	c-0.007,0.311-0.121,0.542-0.484,0.555c-0.4,0.015-0.55-0.21-0.551-0.571c-0.003-1.06-0.001-2.12-0.001-3.179
	C166.077,39.242,166.074,39.242,166.071,39.242z M168.459,39.137c0.326-0.022,0.666-0.008,0.991-0.073
	c0.834-0.167,1.209-0.84,0.943-1.638c-0.162-0.486-0.558-0.723-1.016-0.747c-0.708-0.037-1.437-0.226-2.124,0.13
	c-0.021,0.011-0.039,0.043-0.044,0.068c-0.129,0.661-0.218,1.36,0.025,1.974C167.433,39.35,168.036,39.036,168.459,39.137z"/>
<path style="fill:#8B8A8F;" d="M179.064,42.58c0.045,0.231-0.029,0.391-0.278,0.416c-0.309,0.032-0.646,0.065-0.807-0.278
	c-0.189-0.403-0.35-0.821-0.489-1.244c-0.152-0.464-0.434-0.693-0.931-0.645c-0.166,0.016-0.338,0.023-0.501-0.002
	c-1.232-0.187-2.142,0.101-2.35,1.514c-0.026,0.18-0.15,0.369-0.279,0.505c-0.215,0.225-0.526,0.228-0.782,0.123
	c-0.367-0.15-0.126-0.434-0.047-0.638c0.799-2.054,1.613-4.101,2.417-6.152c0.135-0.344,0.335-0.569,0.736-0.556
	c0.325,0.01,0.617,0.07,0.752,0.412c0.841,2.127,1.679,4.256,2.517,6.384C179.042,42.469,179.05,42.526,179.064,42.58z
	 M175.783,37.07c-0.381,0.499-0.463,1.029-0.654,1.503c-0.562,1.396-0.48,1.493,1.03,1.372c0.055-0.004,0.111-0.005,0.166-0.008
	c0.378-0.022,0.483-0.231,0.37-0.566C176.443,38.619,176.209,37.857,175.783,37.07z"/>
<path style="fill:#8B8A8F;" d="M141.414,39.728c0-0.782-0.016-1.565,0.005-2.347c0.014-0.532-0.198-0.776-0.739-0.751
	c-0.39,0.018-0.782,0.001-1.173-0.009c-0.314-0.008-0.55-0.12-0.543-0.488c0.006-0.306,0.194-0.481,0.474-0.483
	c1.675-0.011,3.351-0.009,5.026,0.006c0.286,0.003,0.454,0.201,0.454,0.5c-0.001,0.314-0.193,0.449-0.481,0.46
	c-0.363,0.014-0.728,0.04-1.089,0.012c-0.646-0.05-0.901,0.205-0.887,0.867c0.032,1.536,0.017,3.073,0.004,4.61
	c-0.003,0.369,0.097,0.862-0.499,0.878c-0.667,0.019-0.535-0.516-0.544-0.908c-0.018-0.782-0.005-1.565-0.005-2.347
	C141.416,39.728,141.415,39.728,141.414,39.728z"/>
<path style="fill:#8B8A8F;" d="M49.512,39.384c0.001-1.003,0.013-2.007-0.004-3.009c-0.009-0.532,0.224-0.762,0.749-0.757
	c1.142,0.01,2.285,0,3.427,0.007c0.348,0.002,0.703,0.039,0.691,0.518c-0.012,0.485-0.384,0.479-0.722,0.483
	c-0.724,0.009-1.451,0.037-2.173-0.003c-0.678-0.037-0.949,0.201-0.931,0.906c0.039,1.532,0.019,3.065,0.007,4.598
	c-0.003,0.369,0.097,0.852-0.509,0.859c-0.599,0.007-0.527-0.466-0.533-0.843C49.502,41.224,49.511,40.304,49.512,39.384z"/>
<path style="fill:#8B8A8F;" d="M181.156,39.298c0-0.977-0.002-1.953,0.001-2.93c0.001-0.35,0.025-0.704,0.502-0.706
	c0.451-0.002,0.547,0.314,0.547,0.682c0.002,2.009,0.001,4.018-0.001,6.026c0,0.386-0.137,0.642-0.583,0.64
	c-0.519-0.002-0.47-0.361-0.47-0.699c0-1.004,0-2.009,0-3.013C181.154,39.298,181.155,39.298,181.156,39.298z"/>
</svg>
