<?xml version="1.0" encoding="iso-8859-1"?>
<!-- Generator: Adobe Illustrator 22.0.1, SVG Export Plug-In . SVG Version: 6.00 Build 0)  -->
<svg version="1.1" id="&#x421;&#x43B;&#x43E;&#x439;_1"
	 xmlns="http://www.w3.org/2000/svg" xmlns:xlink="http://www.w3.org/1999/xlink" x="0px" y="0px" viewBox="0 0 55 40"
	 style="enable-background:new 0 0 55 40;" xml:space="preserve">
<g>
	<g>
		<path style="fill:#D97A8B;" d="M53.8,22.641c0.035,1.058,0.047,2.112-0.132,3.163c-0.42,2.476-1.512,4.608-3.262,6.404
			c-1.27,1.303-2.777,2.259-4.492,2.846c-1.998,0.684-4.054,0.857-6.138,0.429c-0.278-0.057-0.492-0.013-0.723,0.16
			c-1.864,1.387-4.142,1.286-5.901-0.263c-0.253-0.223-0.395-0.128-0.581,0.056c-1.14,1.129-2.475,1.963-3.965,2.547
			c-2.229,0.874-4.51,1.017-6.845,0.49c-2.248-0.508-4.184-1.572-5.803-3.207c-0.255-0.258-0.529-0.261-0.833-0.197
			c-0.745,0.157-1.5,0.195-2.257,0.189c-2.374-0.024-4.542-0.709-6.508-2.045c-2.054-1.396-3.513-3.257-4.42-5.562
			c-0.02-0.05-0.058-0.092-0.089-0.138c-0.217-0.939-0.433-1.878-0.65-2.817c-0.021-0.948-0.055-1.894,0.087-2.837
			C1.762,18.68,3.241,16.08,5.78,14.1c2.151-1.678,4.617-2.446,7.327-2.469c0.351-0.001,0.5-0.066,0.56-0.448
			c0.468-3.036,1.868-5.57,4.266-7.495c2.678-2.152,5.745-2.974,9.156-2.483c2.016,0.29,3.834,1.062,5.439,2.313
			c0.278,0.216,0.533,0.251,0.874,0.19c2.798-0.496,5.469-0.161,7.993,1.21c1.91,1.037,3.423,2.482,4.537,4.335
			c0.684,1.137,1.192,2.357,1.407,3.679c0.059,0.365,0.253,0.57,0.566,0.746c1.924,1.092,3.428,2.603,4.47,4.56
			c0.277,0.52,0.52,1.058,0.779,1.588C53.366,20.763,53.583,21.703,53.8,22.641z M45.954,13.186
			c-0.149-0.519-0.247-0.967-0.406-1.391c-0.674-1.784-1.714-3.308-3.205-4.521c-1.487-1.212-3.177-1.951-5.066-2.244
			c-1.407-0.217-2.8-0.125-4.17,0.262c-0.374,0.106-0.661,0.039-0.938-0.224c-0.552-0.526-1.193-0.943-1.86-1.29
			c-2.965-1.543-6.018-1.761-9.104-0.407c-2.957,1.298-4.875,3.543-5.82,6.63c-0.268,0.876-0.366,1.774-0.41,2.683
			c-0.025,0.524-0.054,0.541-0.557,0.482c-1.407-0.167-2.793-0.085-4.169,0.286c-2.325,0.625-4.188,1.929-5.605,3.843
			c-1.311,1.771-2.005,3.771-2.021,5.995c-0.026,3.142,1.109,5.809,3.446,7.872c2.794,2.466,6.069,3.209,9.697,2.281
			c0.278-0.071,0.455-0.016,0.651,0.192c0.507,0.542,1.012,1.084,1.615,1.531c2.901,2.153,6.086,2.693,9.524,1.648
			c2.017-0.613,3.662-1.813,4.965-3.465c0.524-0.665,0.528-0.692,0.914,0.054c1.064,2.06,3.683,2.331,5.126,0.726
			c0.203-0.226,0.416-0.306,0.728-0.227c1.917,0.483,3.827,0.503,5.735-0.081c2.122-0.649,3.882-1.839,5.205-3.602
			c1.91-2.541,2.592-5.397,1.909-8.534c-0.642-2.943-2.282-5.197-4.871-6.702C46.476,14.528,45.868,14.095,45.954,13.186z"/>
		<path style="fill:#D97A8B;" d="M44.695,35.589c-1.653,0.382-3.32,0.406-4.955,0.07c-0.238-0.049-0.389-0.016-0.581,0.127
			c-0.59,0.438-1.226,0.739-1.891,0.892c-1.488,0.344-2.993-0.07-4.235-1.164c-0.049-0.044-0.118-0.095-0.163-0.084
			c-0.047,0.011-0.114,0.073-0.175,0.132c-1.118,1.108-2.472,1.978-4.025,2.587c-2.22,0.869-4.558,1.037-6.95,0.496
			c-2.279-0.515-4.261-1.61-5.892-3.255c-0.197-0.199-0.402-0.205-0.668-0.149c-0.666,0.14-1.396,0.201-2.296,0.192
			c-2.393-0.024-4.615-0.722-6.606-2.075c-2.051-1.393-3.559-3.291-4.486-5.644c-0.005-0.012-0.021-0.035-0.036-0.054l-0.061-0.11
			l-0.65-2.817l-0.009-0.214c-0.021-0.88-0.042-1.791,0.092-2.691c0.486-3.243,2.02-5.892,4.561-7.873
			c2.101-1.639,4.601-2.484,7.434-2.505c0.094,0,0.161-0.007,0.209-0.018c0.07-0.016,0.135-0.032,0.175-0.28
			c0.482-3.126,1.939-5.685,4.33-7.607c2.694-2.165,5.838-3.017,9.293-2.52c2.042,0.293,3.9,1.083,5.524,2.348
			c0.218,0.17,0.417,0.212,0.732,0.155c2.926-0.518,5.654-0.105,8.11,1.229c1.929,1.047,3.477,2.528,4.604,4.399
			c0.759,1.26,1.226,2.485,1.43,3.743c0.045,0.279,0.174,0.447,0.478,0.619c1.971,1.119,3.498,2.677,4.539,4.631
			c0.19,0.356,0.364,0.722,0.539,1.086c0.081,0.169,0.161,0.339,0.244,0.507l0.664,2.856c0.038,1.058,0.055,2.147-0.129,3.234
			c-0.424,2.495-1.539,4.681-3.31,6.499c-1.289,1.322-2.824,2.294-4.562,2.89C45.548,35.369,45.118,35.491,44.695,35.589z
			 M39.346,35.306c0.141-0.033,0.293-0.032,0.465,0.004c1.992,0.409,4.03,0.266,6.044-0.423c1.684-0.576,3.171-1.519,4.422-2.802
			c1.721-1.764,2.802-3.887,3.215-6.308c0.18-1.054,0.162-2.123,0.13-3.128l-0.646-2.783c-0.07-0.131-0.151-0.301-0.232-0.472
			c-0.172-0.36-0.343-0.72-0.531-1.073c-1.01-1.893-2.489-3.403-4.4-4.489c-0.278-0.159-0.574-0.386-0.653-0.873
			c-0.196-1.212-0.649-2.395-1.384-3.616c-1.094-1.817-2.597-3.253-4.469-4.27c-2.416-1.313-4.993-1.702-7.876-1.191
			c-0.419,0.075-0.713,0.01-1.015-0.225c-1.574-1.226-3.377-1.992-5.356-2.277c-3.357-0.484-6.402,0.342-9.018,2.446
			c-2.32,1.864-3.733,4.349-4.201,7.384c-0.038,0.242-0.119,0.498-0.448,0.574c-0.076,0.018-0.165,0.026-0.287,0.027
			c-2.752,0.022-5.178,0.839-7.218,2.43c-2.466,1.923-3.955,4.495-4.428,7.645c-0.129,0.87-0.109,1.764-0.088,2.629l0.005,0.178
			l0.638,2.746c0.041,0.058,0.069,0.099,0.089,0.148c0.899,2.285,2.364,4.128,4.355,5.479c1.934,1.314,4.089,1.991,6.409,2.015
			c0.873,0.008,1.578-0.05,2.218-0.185c0.308-0.065,0.667-0.086,0.996,0.247c1.581,1.596,3.504,2.658,5.716,3.157
			c2.321,0.525,4.589,0.365,6.74-0.482c1.507-0.59,2.821-1.433,3.904-2.507c0.094-0.093,0.206-0.194,0.346-0.227
			c0.157-0.037,0.313,0.018,0.48,0.164c1.155,1.016,2.547,1.402,3.919,1.085c0.616-0.143,1.207-0.421,1.757-0.831
			C39.078,35.401,39.21,35.336,39.346,35.306z M44.377,34.181L44.377,34.181c-1.634,0.377-3.361,0.342-5.134-0.104
			c-0.24-0.06-0.381-0.019-0.552,0.172c-0.459,0.511-1.049,0.861-1.707,1.013c-1.492,0.344-2.984-0.369-3.71-1.776
			c-0.088-0.171-0.195-0.378-0.257-0.447c-0.068,0.053-0.2,0.221-0.33,0.385l-0.029,0.038c-1.371,1.737-3.071,2.923-5.054,3.525
			c-3.493,1.061-6.755,0.497-9.682-1.676c-0.605-0.449-1.117-0.995-1.612-1.523c-0.174-0.185-0.283-0.22-0.478-0.176
			c-0.128,0.033-0.232,0.057-0.336,0.082c-3.594,0.83-6.805,0.024-9.546-2.396c-2.352-2.077-3.533-4.77-3.507-8.007
			c0.018-2.229,0.71-4.281,2.057-6.101c1.457-1.968,3.376-3.285,5.702-3.91c1.362-0.375,2.781-0.463,4.238-0.289
			c0.111,0.013,0.262,0.031,0.319,0.018c0.024-0.033,0.033-0.235,0.038-0.331c0.053-1.115,0.183-1.956,0.418-2.726
			c0.971-3.176,2.964-5.444,5.919-6.74c3.04-1.332,6.169-1.195,9.258,0.412c0.765,0.398,1.387,0.829,1.9,1.319
			c0.216,0.205,0.42,0.263,0.704,0.197l0.062-0.017c1.394-0.397,2.826-0.487,4.244-0.266c1.926,0.298,3.66,1.065,5.152,2.282
			c1.459,1.187,2.554,2.734,3.258,4.597c0.112,0.293,0.192,0.599,0.278,0.921c0.041,0.154,0.084,0.315,0.132,0.482l0.01,0.033
			l-0.003,0.035c-0.078,0.808,0.458,1.184,1.223,1.63c2.636,1.532,4.303,3.826,4.956,6.818c0.683,3.135,0.031,6.054-1.94,8.679
			c-1.325,1.763-3.105,2.995-5.295,3.665C44.842,34.065,44.609,34.127,44.377,34.181z M38.888,33.716
			c0.133-0.031,0.278-0.026,0.442,0.016c1.742,0.438,3.367,0.472,4.966,0.103c0,0,0,0,0.001,0c0.224-0.051,0.448-0.112,0.672-0.181
			c2.115-0.647,3.837-1.837,5.115-3.537c1.906-2.537,2.539-5.36,1.877-8.388c-0.631-2.89-2.241-5.106-4.786-6.585
			c-0.813-0.473-1.482-0.946-1.402-1.939c-0.045-0.159-0.086-0.31-0.124-0.457c-0.084-0.314-0.163-0.61-0.267-0.887
			c-0.681-1.801-1.741-3.299-3.151-4.445C40.787,6.24,39.112,5.498,37.25,5.21c-1.368-0.212-2.75-0.125-4.093,0.257l-0.078,0.02
			c-0.401,0.093-0.728,0.001-1.03-0.288c-0.49-0.467-1.085-0.878-1.819-1.259c-2.992-1.558-6.011-1.693-8.95-0.402
			c-2.855,1.253-4.78,3.446-5.721,6.517c-0.226,0.74-0.351,1.554-0.403,2.638c-0.015,0.321-0.029,0.596-0.314,0.662
			c-0.11,0.026-0.246,0.012-0.441-0.012c-1.43-0.17-2.775-0.081-4.104,0.281c-2.247,0.604-4.1,1.874-5.508,3.777
			c-1.302,1.758-1.97,3.74-1.986,5.891c-0.026,3.129,1.114,5.732,3.385,7.736c2.725,2.406,5.912,3.163,9.534,2.243
			c0.001,0,0.001,0,0.002,0c0.353-0.082,0.59-0.007,0.823,0.244c0.51,0.545,1.011,1.08,1.59,1.51
			c2.835,2.103,5.985,2.652,9.365,1.621c1.911-0.58,3.552-1.725,4.877-3.405l0.03-0.037c0.256-0.326,0.385-0.488,0.549-0.526
			c0.268-0.062,0.399,0.19,0.635,0.646c0.65,1.259,1.982,1.899,3.312,1.591c0.585-0.135,1.111-0.447,1.522-0.903
			C38.569,33.851,38.721,33.754,38.888,33.716z"/>
	</g>
</g>
</svg>
